999
dxfrw 0.6.3
  0
SECTION
  2
HEADER
  9
$ACADVER
  1
AC1021
  9
$DWGCODEPAGE
  3
ANSI_1252
  9
$INSBASE
 10
0
 20
0
 30
0
  9
$EXTMIN
 10
-0.5
 20
0.25
 30
0
  9
$EXTMAX
 10
419.8613464771435
 20
297.25
 30
0
  9
$LIMMIN
 10
0
 20
0
  9
$LIMMAX
 10
420
 20
297
  9
$ORTHOMODE
 70
    0
  9
$REGENMODE
 70
    1
  9
$FILLMODE
 70
    1
  9
$QTEXTMODE
 70
    0
  9
$MIRRTEXT
 70
    0
  9
$LTSCALE
 40
1
  9
$ATTMODE
 70
    0
  9
$TEXTSIZE
 40
2.5
  9
$TRACEWID
 40
15.68
  9
$TEXTSTYLE
  7
STANDARD
  9
$CLAYER
  8
0
  9
$CELTYPE
  6
BYLAYER
  9
$CECOLOR
 62
  256
  9
$CELTSCALE
 40
1
  9
$DISPSILH
 70
    0
  9
$DIMSCALE
 40
1
  9
$DIMASZ
 40
2.5
  9
$DIMEXO
 40
0.625
  9
$DIMDLI
 40
3.75
  9
$DIMRND
 40
0
  9
$DIMDLE
 40
0
  9
$DIMEXE
 40
1.25
  9
$DIMTP
 40
0
  9
$DIMTM
 40
0
  9
$DIMTXT
 40
2.5
  9
$DIMCEN
 40
2.5
  9
$DIMTSZ
 40
0
  9
$DIMTOL
 70
    0
  9
$DIMLIM
 70
    0
  9
$DIMTIH
 70
    0
  9
$DIMTOH
 70
    0
  9
$DIMSE1
 70
    0
  9
$DIMSE2
 70
    0
  9
$DIMTAD
 70
    1
  9
$DIMZIN
 70
    8
  9
$DIMBLK
  1

  9
$DIMASO
 70
    1
  9
$DIMSHO
 70
    1
  9
$DIMPOST
  1

  9
$DIMAPOST
  1

  9
$DIMALT
 70
    0
  9
$DIMALTD
 70
    3
  9
$DIMALTF
 40
0.03937
  9
$DIMLFAC
 40
1
  9
$DIMTOFL
 70
    1
  9
$DIMTVP
 40
0
  9
$DIMTIX
 70
    0
  9
$DIMSOXD
 70
    0
  9
$DIMSAH
 70
    0
  9
$DIMBLK1
  1

  9
$DIMBLK2
  1

  9
$DIMSTYLE
  2
Standard
  9
$DIMCLRD
 70
    0
  9
$DIMCLRE
 70
    0
  9
$DIMCLRT
 70
    0
  9
$DIMTFAC
 40
1
  9
$DIMGAP
 40
0.625
  9
$DIMJUST
 70
    0
  9
$DIMSD1
 70
    0
  9
$DIMSD2
 70
    0
  9
$DIMTOLJ
 70
    0
  9
$DIMTZIN
 70
    8
  9
$DIMALTZ
 70
    0
  9
$DIMALTTZ
 70
    0
  9
$DIMUPT
 70
    0
  9
$DIMDEC
 70
    2
  9
$DIMTDEC
 70
    2
  9
$DIMALTU
 70
    2
  9
$DIMALTTD
 70
    3
  9
$DIMTXSTY
  7
STANDARD
  9
$DIMAUNIT
 70
    0
  9
$DIMADEC
 70
    0
  9
$DIMALTRND
 40
0
  9
$DIMAZIN
 70
    0
  9
$DIMDSEP
 70
   44
  9
$DIMATFIT
 70
    3
  9
$DIMFRAC
 70
    0
  9
$DIMLDRBLK
  1
STANDARD
  9
$DIMLUNIT
 70
    2
  9
$DIMLWD
 70
   -2
  9
$DIMLWE
 70
   -2
  9
$DIMTMOVE
 70
    0
  9
$DIMFXL
 40
1
  9
$DIMFXLON
 70
    0
  9
$DIMJOGANG
 40
0.7854
  9
$DIMTFILL
 70
    0
  9
$DIMTFILLCLR
 70
    0
  9
$DIMARCSYM
 70
    0
  9
$DIMLTYPE
  6

  9
$DIMLTEX1
  6

  9
$DIMLTEX2
  6

  9
$LUNITS
 70
    2
  9
$LUPREC
 70
    4
  9
$SKETCHINC
 40
1
  9
$FILLETRAD
 40
0
  9
$AUNITS
 70
    0
  9
$AUPREC
 70
    2
  9
$MENU
  1
.
  9
$ELEVATION
 40
0
  9
$PELEVATION
 40
0
  9
$THICKNESS
 40
0
  9
$LIMCHECK
 70
    0
  9
$CHAMFERA
 40
0
  9
$CHAMFERB
 40
0
  9
$CHAMFERC
 40
0
  9
$CHAMFERD
 40
0
  9
$SKPOLY
 70
    0
  9
$USRTIMER
 70
    1
  9
$ANGBASE
 50
0
  9
$ANGDIR
 70
    0
  9
$PDMODE
 70
   34
  9
$PDSIZE
 40
0
  9
$PLINEWID
 40
0
  9
$SPLFRAME
 70
    0
  9
$SPLINETYPE
 70
    2
  9
$SPLINESEGS
 70
    8
  9
$HANDSEED
  5
20000
  9
$SURFTAB1
 70
    6
  9
$SURFTAB2
 70
    6
  9
$SURFTYPE
 70
    6
  9
$SURFU
 70
    6
  9
$SURFV
 70
    6
  9
$UCSBASE
  2

  9
$UCSNAME
  2

  9
$UCSORG
 10
0
 20
0
 30
0
  9
$UCSXDIR
 10
1
 20
0
 30
0
  9
$UCSYDIR
 10
0
 20
1
 30
0
  9
$UCSORTHOREF
  2

  9
$UCSORTHOVIEW
 70
    0
  9
$UCSORGTOP
 10
0
 20
0
 30
0
  9
$UCSORGBOTTOM
 10
0
 20
0
 30
0
  9
$UCSORGLEFT
 10
0
 20
0
 30
0
  9
$UCSORGRIGHT
 10
0
 20
0
 30
0
  9
$UCSORGFRONT
 10
0
 20
0
 30
0
  9
$UCSORGBACK
 10
0
 20
0
 30
0
  9
$PUCSBASE
  2

  9
$PUCSNAME
  2

  9
$PUCSORG
 10
0
 20
0
 30
0
  9
$PUCSXDIR
 10
1
 20
0
 30
0
  9
$PUCSYDIR
 10
0
 20
1
 30
0
  9
$PUCSORTHOREF
  2

  9
$PUCSORTHOVIEW
 70
    0
  9
$PUCSORGTOP
 10
0
 20
0
 30
0
  9
$PUCSORGBOTTOM
 10
0
 20
0
 30
0
  9
$PUCSORGLEFT
 10
0
 20
0
 30
0
  9
$PUCSORGRIGHT
 10
0
 20
0
 30
0
  9
$PUCSORGFRONT
 10
0
 20
0
 30
0
  9
$PUCSORGBACK
 10
0
 20
0
 30
0
  9
$USERI1
 70
    0
  9
$USERI2
 70
    0
  9
$USERI3
 70
    0
  9
$USERI4
 70
    0
  9
$USERI5
 70
    0
  9
$USERR1
 40
0
  9
$USERR2
 40
0
  9
$USERR3
 40
0
  9
$USERR4
 40
0
  9
$USERR5
 40
0
  9
$WORLDVIEW
 70
    1
  9
$SHADEDGE
 70
    3
  9
$SHADEDIF
 70
   70
  9
$TILEMODE
 70
    1
  9
$MAXACTVP
 70
   64
  9
$PINSBASE
 10
18.0033670034
 20
12.3442760943
 30
0
  9
$PLIMCHECK
 70
    0
  9
$PEXTMIN
 10
0
 20
0
 30
0
  9
$PEXTMAX
 10
0
 20
0
 30
0
  9
$GRIDMODE
 70
    1
  9
$SNAPSTYLE
 70
    0
  9
$PLIMMIN
 10
0
 20
0
  9
$PLIMMAX
 10
297
 20
210
  9
$UNITMODE
 70
    0
  9
$VISRETAIN
 70
    1
  9
$PLINEGEN
 70
    0
  9
$PSLTSCALE
 70
    1
  9
$TREEDEPTH
 70
 3020
  9
$CMLSTYLE
  2
Standard
  9
$CMLJUST
 70
    0
  9
$CMLSCALE
 40
20
  9
$PROXYGRAPHICS
 70
    1
  9
$MEASUREMENT
 70
    1
  9
$CELWEIGHT
370
   -1
  9
$ENDCAPS
280
    0
  9
$JOINSTYLE
280
    0
  9
$LWDISPLAY
290
    0
  9
$INSUNITS
 70
    0
  9
$HYPERLINKBASE
  1

  9
$STYLESHEET
  1

  9
$XEDIT
290
    1
  9
$CEPSNTYPE
380
    0
  9
$PSTYLEMODE
290
    1
  9
$EXTNAMES
290
    1
  9
$PSVPSCALE
 40
0.622895622896
  9
$OLESTARTUP
290
    0
  9
$SORTENTS
280
  127
  9
$INDEXCTL
280
    0
  9
$HIDETEXT
280
    1
  9
$XCLIPFRAME
290
    0
  9
$HALOGAP
280
    0
  9
$OBSCOLOR
 70
  257
  9
$OBSLTYPE
280
    0
  9
$INTERSECTIONDISPLAY
280
    0
  9
$INTERSECTIONCOLOR
 70
  257
  9
$DIMASSOC
280
    0
  9
$PROJECTNAME
  1

  9
$CAMERADISPLAY
290
    0
  9
$LENSLENGTH
 40
50
  9
$CAMERAHEIGHT
 40
0
  9
$STEPSPERSEC
 40
2
  9
$STEPSIZE
 40
50
  9
$3DDWFPREC
 40
2
  9
$PSOLWIDTH
 40
5
  9
$PSOLHEIGHT
 40
80
  9
$LOFTANG1
 40
1.570796326794897
  9
$LOFTANG2
 40
1.570796326794897
  9
$LOFTMAG1
 40
0
  9
$LOFTMAG2
 40
0
  9
$LOFTPARAM
 70
    7
  9
$LOFTNORMALS
280
    1
  9
$LATITUDE
 40
1
  9
$LONGITUDE
 40
1
  9
$NORTHDIRECTION
 40
0
  9
$TIMEZONE
 70
-8000
  9
$LIGHTGLYPHDISPLAY
280
    1
  9
$TILEMODELIGHTSYNCH
280
    1
  9
$SOLIDHIST
280
    1
  9
$SHOWHIST
280
    1
  9
$DWFFRAME
280
    2
  9
$DGNFRAME
280
    0
  9
$REALWORLDSCALE
290
    1
  9
$INTERFERECOLOR
 62
    1
  9
$CSHADOW
280
    0
  9
$SHADOWPLANELOCATION
 40
0
  0
ENDSEC
  0
SECTION
  2
CLASSES
  0
ENDSEC
  0
SECTION
  2
TABLES
  0
TABLE
  2
VPORT
  5
8
330
0
100
AcDbSymbolTable
 70
    1
  0
VPORT
  5
31
330
2
100
AcDbSymbolTableRecord
100
AcDbViewportTableRecord
  2
*ACTIVE
 70
    0
 10
0
 20
0
 11
1
 21
1
 12
276.6613508442777
 22
151.2861163227017
 13
0
 23
0
 14
10
 24
10
 15
10
 25
10
 16
0
 26
0
 36
1
 17
0
 27
0
 37
0
 40
308.1444652908067
 41
2.227848101265823
 42
50
 43
0
 44
0
 50
0
 51
0
 71
    0
 72
  100
 73
    1
 74
    3
 75
    0
 76
    1
 77
    0
 78
    0
281
    0
 65
    1
110
0
120
0
130
0
111
1
121
0
131
0
112
0
122
1
132
0
 79
    0
146
0
348
10020
 60
    7
 61
    5
292
1
282
    1
141
0
142
0
 63
  250
421
3358443
  0
ENDTAB
  0
TABLE
  2
LTYPE
  5
5
330
0
100
AcDbSymbolTable
 70
    4
  0
LTYPE
  5
14
330
5
100
AcDbSymbolTableRecord
100
AcDbLinetypeTableRecord
  2
ByBlock
 70
    0
  3

 72
   65
 73
    0
 40
0
  0
LTYPE
  5
15
330
5
100
AcDbSymbolTableRecord
100
AcDbLinetypeTableRecord
  2
ByLayer
 70
    0
  3

 72
   65
 73
    0
 40
0
  0
LTYPE
  5
16
330
5
100
AcDbSymbolTableRecord
100
AcDbLinetypeTableRecord
  2
Continuous
 70
    0
  3
Solid line
 72
   65
 73
    0
 40
0
  0
LTYPE
  5
32
330
5
100
AcDbSymbolTableRecord
100
AcDbLinetypeTableRecord
  2
DOT
 70
    0
  3
Dot . . . . . . . . . . . . . . . . . . . . . .
 72
   65
 73
    2
 40
6.35
 49
0
 74
    0
 49
-6.35
 74
    0
  0
LTYPE
  5
33
330
5
100
AcDbSymbolTableRecord
100
AcDbLinetypeTableRecord
  2
DOTTINY
 70
    0
  3
Dot (.15x) .....................................
 72
   65
 73
    2
 40
0.9525
 49
0
 74
    0
 49
-0.9525
 74
    0
  0
LTYPE
  5
34
330
5
100
AcDbSymbolTableRecord
100
AcDbLinetypeTableRecord
  2
DOT2
 70
    0
  3
Dot (.5x) .....................................
 72
   65
 73
    2
 40
3.175
 49
0
 74
    0
 49
-3.175
 74
    0
  0
LTYPE
  5
35
330
5
100
AcDbSymbolTableRecord
100
AcDbLinetypeTableRecord
  2
DOTX2
 70
    0
  3
Dot (2x) .  .  .  .  .  .  .  .  .  .  .  .  .
 72
   65
 73
    2
 40
12.7
 49
0
 74
    0
 49
-12.7
 74
    0
  0
LTYPE
  5
36
330
5
100
AcDbSymbolTableRecord
100
AcDbLinetypeTableRecord
  2
DASHED
 70
    0
  3
Dashed _ _ _ _ _ _ _ _ _ _ _ _ _ _ _ _ _
 72
   65
 73
    2
 40
19.05
 49
12.7
 74
    0
 49
-6.35
 74
    0
  0
LTYPE
  5
37
330
5
100
AcDbSymbolTableRecord
100
AcDbLinetypeTableRecord
  2
DASHEDTINY
 70
    0
  3
Dashed (.15x) _ _ _ _ _ _ _ _ _ _ _ _ _ _ _ _ _
 72
   65
 73
    2
 40
2.8575
 49
1.905
 74
    0
 49
-0.9525
 74
    0
  0
LTYPE
  5
38
330
5
100
AcDbSymbolTableRecord
100
AcDbLinetypeTableRecord
  2
DASHED2
 70
    0
  3
Dashed (.5x) _ _ _ _ _ _ _ _ _ _ _ _ _ _ _ _ _
 72
   65
 73
    2
 40
9.524999999999999
 49
6.35
 74
    0
 49
-3.175
 74
    0
  0
LTYPE
  5
39
330
5
100
AcDbSymbolTableRecord
100
AcDbLinetypeTableRecord
  2
DASHEDX2
 70
    0
  3
Dashed (2x) ____  ____  ____  ____  ____  ___
 72
   65
 73
    2
 40
38.09999999999999
 49
25.4
 74
    0
 49
-12.7
 74
    0
  0
LTYPE
  5
3A
330
5
100
AcDbSymbolTableRecord
100
AcDbLinetypeTableRecord
  2
DASHDOT
 70
    0
  3
Dash dot __ . __ . __ . __ . __ . __ . __ . __
 72
   65
 73
    4
 40
25.4
 49
12.7
 74
    0
 49
-6.35
 74
    0
 49
0
 74
    0
 49
-6.35
 74
    0
  0
LTYPE
  5
3B
330
5
100
AcDbSymbolTableRecord
100
AcDbLinetypeTableRecord
  2
DASHDOTTINY
 70
    0
  3
Dash dot (.15x) _._._._._._._._._._._._._._._.
 72
   65
 73
    4
 40
3.81
 49
1.905
 74
    0
 49
-0.9525
 74
    0
 49
0
 74
    0
 49
-0.9525
 74
    0
  0
LTYPE
  5
3C
330
5
100
AcDbSymbolTableRecord
100
AcDbLinetypeTableRecord
  2
DASHDOT2
 70
    0
  3
Dash dot (.5x) _._._._._._._._._._._._._._._.
 72
   65
 73
    4
 40
12.7
 49
6.35
 74
    0
 49
-3.175
 74
    0
 49
0
 74
    0
 49
-3.175
 74
    0
  0
LTYPE
  5
3D
330
5
100
AcDbSymbolTableRecord
100
AcDbLinetypeTableRecord
  2
DASHDOTX2
 70
    0
  3
Dash dot (2x) ____  .  ____  .  ____  .  ___
 72
   65
 73
    4
 40
50.8
 49
25.4
 74
    0
 49
-12.7
 74
    0
 49
0
 74
    0
 49
-12.7
 74
    0
  0
LTYPE
  5
3E
330
5
100
AcDbSymbolTableRecord
100
AcDbLinetypeTableRecord
  2
DIVIDE
 70
    0
  3
Divide ____ . . ____ . . ____ . . ____ . . ____
 72
   65
 73
    6
 40
31.75
 49
12.7
 74
    0
 49
-6.35
 74
    0
 49
0
 74
    0
 49
-6.35
 74
    0
 49
0
 74
    0
 49
-6.35
 74
    0
  0
LTYPE
  5
3F
330
5
100
AcDbSymbolTableRecord
100
AcDbLinetypeTableRecord
  2
DIVIDETINY
 70
    0
  3
Divide (.15x) __..__..__..__..__..__..__..__.._
 72
   65
 73
    6
 40
4.7625
 49
1.905
 74
    0
 49
-0.9525
 74
    0
 49
0
 74
    0
 49
-0.9525
 74
    0
 49
0
 74
    0
 49
-0.9525
 74
    0
  0
LTYPE
  5
40
330
5
100
AcDbSymbolTableRecord
100
AcDbLinetypeTableRecord
  2
DIVIDE2
 70
    0
  3
Divide (.5x) __..__..__..__..__..__..__..__.._
 72
   65
 73
    6
 40
15.875
 49
6.35
 74
    0
 49
-3.175
 74
    0
 49
0
 74
    0
 49
-3.175
 74
    0
 49
0
 74
    0
 49
-3.175
 74
    0
  0
LTYPE
  5
41
330
5
100
AcDbSymbolTableRecord
100
AcDbLinetypeTableRecord
  2
DIVIDEX2
 70
    0
  3
Divide (2x) ________  .  .  ________  .  .  _
 72
   65
 73
    6
 40
63.5
 49
25.4
 74
    0
 49
-12.7
 74
    0
 49
0
 74
    0
 49
-12.7
 74
    0
 49
0
 74
    0
 49
-12.7
 74
    0
  0
LTYPE
  5
42
330
5
100
AcDbSymbolTableRecord
100
AcDbLinetypeTableRecord
  2
BORDER
 70
    0
  3
Border __ __ . __ __ . __ __ . __ __ . __ __ .
 72
   65
 73
    6
 40
44.45
 49
12.7
 74
    0
 49
-6.35
 74
    0
 49
12.7
 74
    0
 49
-6.35
 74
    0
 49
0
 74
    0
 49
-6.35
 74
    0
  0
LTYPE
  5
43
330
5
100
AcDbSymbolTableRecord
100
AcDbLinetypeTableRecord
  2
BORDERTINY
 70
    0
  3
Border (.15x) __.__.__.__.__.__.__.__.__.__.__.
 72
   65
 73
    6
 40
6.6675
 49
1.905
 74
    0
 49
-0.9525
 74
    0
 49
1.905
 74
    0
 49
-0.9525
 74
    0
 49
0
 74
    0
 49
-0.9525
 74
    0
  0
LTYPE
  5
44
330
5
100
AcDbSymbolTableRecord
100
AcDbLinetypeTableRecord
  2
BORDER2
 70
    0
  3
Border (.5x) __.__.__.__.__.__.__.__.__.__.__.
 72
   65
 73
    6
 40
22.225
 49
6.35
 74
    0
 49
-3.175
 74
    0
 49
6.35
 74
    0
 49
-3.175
 74
    0
 49
0
 74
    0
 49
-3.175
 74
    0
  0
LTYPE
  5
45
330
5
100
AcDbSymbolTableRecord
100
AcDbLinetypeTableRecord
  2
BORDERX2
 70
    0
  3
Border (2x) ____  ____  .  ____  ____  .  ___
 72
   65
 73
    6
 40
88.89999999999999
 49
25.4
 74
    0
 49
-12.7
 74
    0
 49
25.4
 74
    0
 49
-12.7
 74
    0
 49
0
 74
    0
 49
-12.7
 74
    0
  0
LTYPE
  5
46
330
5
100
AcDbSymbolTableRecord
100
AcDbLinetypeTableRecord
  2
CENTER
 70
    0
  3
Center ____ _ ____ _ ____ _ ____ _ ____ _ ____
 72
   65
 73
    4
 40
50.8
 49
31.75
 74
    0
 49
-6.35
 74
    0
 49
6.35
 74
    0
 49
-6.35
 74
    0
  0
LTYPE
  5
47
330
5
100
AcDbSymbolTableRecord
100
AcDbLinetypeTableRecord
  2
CENTERTINY
 70
    0
  3
Center (.15x) ___ _ ___ _ ___ _ ___ _ ___ _ ___
 72
   65
 73
    4
 40
7.619999999999999
 49
4.7625
 74
    0
 49
-0.9525
 74
    0
 49
0.9525
 74
    0
 49
-0.9525
 74
    0
  0
LTYPE
  5
48
330
5
100
AcDbSymbolTableRecord
100
AcDbLinetypeTableRecord
  2
CENTER2
 70
    0
  3
Center (.5x) ___ _ ___ _ ___ _ ___ _ ___ _ ___
 72
   65
 73
    4
 40
28.575
 49
19.05
 74
    0
 49
-3.175
 74
    0
 49
3.175
 74
    0
 49
-3.175
 74
    0
  0
LTYPE
  5
49
330
5
100
AcDbSymbolTableRecord
100
AcDbLinetypeTableRecord
  2
CENTERX2
 70
    0
  3
Center (2x) ________  __  ________  __  _____
 72
   65
 73
    4
 40
101.6
 49
63.5
 74
    0
 49
-12.7
 74
    0
 49
12.7
 74
    0
 49
-12.7
 74
    0
  0
ENDTAB
  0
TABLE
  2
LAYER
  5
2
330
0
100
AcDbSymbolTable
 70
    1
  0
LAYER
  5
10
330
2
100
AcDbSymbolTableRecord
100
AcDbLayerTableRecord
  2
0
 70
    0
 62
    7
  6
CONTINUOUS
370
   35
390
F
  0
LAYER
  5
4A
330
2
100
AcDbSymbolTableRecord
100
AcDbLayerTableRecord
  2
Contour
 70
    0
 62
    7
  6
CONTINUOUS
370
   -3
390
F
  0
LAYER
  5
4B
330
2
100
AcDbSymbolTableRecord
100
AcDbLayerTableRecord
  2
frame-title
 70
    0
 62
    7
  6
CONTINUOUS
370
   35
390
F
  0
LAYER
  5
4C
330
2
100
AcDbSymbolTableRecord
100
AcDbLayerTableRecord
  2
hatch
 70
    0
 62
  113
  6
CONTINUOUS
370
   25
390
F
  0
LAYER
  5
4D
330
2
100
AcDbSymbolTableRecord
100
AcDbLayerTableRecord
  2
help-lines
 70
    0
 62
    5
  6
CONTINUOUS
370
   25
390
F
  0
LAYER
  5
4E
330
2
100
AcDbSymbolTableRecord
100
AcDbLayerTableRecord
  2
labels
 70
    0
 62
    7
  6
CONTINUOUS
370
   25
390
F
  0
LAYER
  5
4F
330
2
100
AcDbSymbolTableRecord
100
AcDbLayerTableRecord
  2
schematic
 70
    0
 62
    7
  6
CONTINUOUS
370
   25
390
F
  0
LAYER
  5
50
330
2
100
AcDbSymbolTableRecord
100
AcDbLayerTableRecord
  2
schematics
 70
    0
 62
    7
  6
CONTINUOUS
370
   25
390
F
  0
ENDTAB
  0
TABLE
  2
STYLE
  5
3
330
0
100
AcDbSymbolTable
 70
    3
  0
STYLE
  5
51
330
2
100
AcDbSymbolTableRecord
100
AcDbTextStyleTableRecord
  2
standard
 70
    0
 40
0
 41
1
 50
0
 71
    0
 42
1
  3
standard
  4

  0
STYLE
  5
52
330
2
100
AcDbSymbolTableRecord
100
AcDbTextStyleTableRecord
  2
iso
 70
    0
 40
0
 41
1
 50
0
 71
    0
 42
1
  3
iso
  4

  0
ENDTAB
  0
TABLE
  2
VIEW
  5
6
330
0
100
AcDbSymbolTable
 70
    0
  0
ENDTAB
  0
TABLE
  2
UCS
  5
7
330
0
100
AcDbSymbolTable
 70
    0
  0
ENDTAB
  0
TABLE
  2
APPID
  5
9
330
0
100
AcDbSymbolTable
 70
    1
  0
APPID
  5
12
330
9
100
AcDbSymbolTableRecord
100
AcDbRegAppTableRecord
  2
ACAD
 70
    0
  0
APPID
  5
53
330
9
100
AcDbSymbolTableRecord
100
AcDbRegAppTableRecord
  2
LibreCad
 70
    0
  0
ENDTAB
  0
TABLE
  2
DIMSTYLE
  5
A
330
0
100
AcDbSymbolTable
 70
    1
100
AcDbDimStyleTable
 71
    1
  0
DIMSTYLE
105
54
330
A
100
AcDbSymbolTableRecord
100
AcDbDimStyleTableRecord
  2
Standard
 70
    0
 40
1
 41
2.5
 42
0.625
 43
0.38
 44
1.25
 45
0
 46
0
 47
0
 48
0
 49
1
140
2.5
141
0.09
142
0
143
25.4
144
1
145
0
146
1
147
0.625
148
0
 71
    0
 72
    0
 73
    0
 74
    1
 75
    0
 76
    0
 77
    0
 78
    8
 79
    0
170
    0
171
    2
172
    0
173
    0
174
    0
175
    0
176
    0
177
    0
178
    0
179
    0
271
    2
272
    4
273
    2
274
    2
275
    0
276
    0
277
    2
278
   44
279
    0
280
    0
281
    0
282
    0
283
    1
284
    0
285
    0
286
    0
288
    0
289
    3
340
STANDARD
341

371
   -2
372
   -2
  0
ENDTAB
  0
TABLE
  2
BLOCK_RECORD
  5
1
330
0
100
AcDbSymbolTable
 70
    2
  0
BLOCK_RECORD
  5
1F
330
1
100
AcDbSymbolTableRecord
100
AcDbBlockTableRecord
  2
*Model_Space
 70
    0
280
    1
281
    0
  0
BLOCK_RECORD
  5
1E
330
1
100
AcDbSymbolTableRecord
100
AcDbBlockTableRecord
  2
*Paper_Space
 70
    0
280
    1
281
    0
  0
BLOCK_RECORD
  5
55
330
1
100
AcDbSymbolTableRecord
100
AcDbBlockTableRecord
  2
*D2
 70
    0
280
    1
281
    0
  0
BLOCK_RECORD
  5
58
330
1
100
AcDbSymbolTableRecord
100
AcDbBlockTableRecord
  2
*D4
 70
    0
280
    1
281
    0
  0
BLOCK_RECORD
  5
5B
330
1
100
AcDbSymbolTableRecord
100
AcDbBlockTableRecord
  2
*D3
 70
    0
280
    1
281
    0
  0
BLOCK_RECORD
  5
5E
330
1
100
AcDbSymbolTableRecord
100
AcDbBlockTableRecord
  2
*D5
 70
    0
280
    1
281
    0
  0
BLOCK_RECORD
  5
61
330
1
100
AcDbSymbolTableRecord
100
AcDbBlockTableRecord
  2
*D1
 70
    0
280
    1
281
    0
  0
BLOCK_RECORD
  5
64
330
1
100
AcDbSymbolTableRecord
100
AcDbBlockTableRecord
  2
a3
 70
    0
280
    1
281
    0
  0
BLOCK_RECORD
  5
67
330
1
100
AcDbSymbolTableRecord
100
AcDbBlockTableRecord
  2
a3-0
 70
    0
280
    1
281
    0
  0
BLOCK_RECORD
  5
6A
330
1
100
AcDbSymbolTableRecord
100
AcDbBlockTableRecord
  2
eca-logo-0
 70
    0
280
    1
281
    0
  0
BLOCK_RECORD
  5
6D
330
1
100
AcDbSymbolTableRecord
100
AcDbBlockTableRecord
  2
eca-logo-1
 70
    0
280
    1
281
    0
  0
BLOCK_RECORD
  5
70
330
1
100
AcDbSymbolTableRecord
100
AcDbBlockTableRecord
  2
Terminal-in
 70
    0
280
    1
281
    0
  0
BLOCK_RECORD
  5
73
330
1
100
AcDbSymbolTableRecord
100
AcDbBlockTableRecord
  2
junction
 70
    0
280
    1
281
    0
  0
BLOCK_RECORD
  5
76
330
1
100
AcDbSymbolTableRecord
100
AcDbBlockTableRecord
  2
junction-0
 70
    0
280
    1
281
    0
  0
BLOCK_RECORD
  5
79
330
1
100
AcDbSymbolTableRecord
100
AcDbBlockTableRecord
  2
junction-1
 70
    0
280
    1
281
    0
  0
BLOCK_RECORD
  5
7C
330
1
100
AcDbSymbolTableRecord
100
AcDbBlockTableRecord
  2
junction-3
 70
    0
280
    1
281
    0
  0
BLOCK_RECORD
  5
7F
330
1
100
AcDbSymbolTableRecord
100
AcDbBlockTableRecord
  2
junction-4
 70
    0
280
    1
281
    0
  0
BLOCK_RECORD
  5
82
330
1
100
AcDbSymbolTableRecord
100
AcDbBlockTableRecord
  2
mcp2014x-connector-0
 70
    0
280
    1
281
    0
  0
BLOCK_RECORD
  5
85
330
1
100
AcDbSymbolTableRecord
100
AcDbBlockTableRecord
  2
r1
 70
    0
280
    1
281
    0
  0
BLOCK_RECORD
  5
88
330
1
100
AcDbSymbolTableRecord
100
AcDbBlockTableRecord
  2
Diode-Power
 70
    0
280
    1
281
    0
  0
BLOCK_RECORD
  5
8B
330
1
100
AcDbSymbolTableRecord
100
AcDbBlockTableRecord
  2
relay
 70
    0
280
    1
281
    0
  0
BLOCK_RECORD
  5
8E
330
1
100
AcDbSymbolTableRecord
100
AcDbBlockTableRecord
  2
relay-0
 70
    0
280
    1
281
    0
  0
BLOCK_RECORD
  5
91
330
1
100
AcDbSymbolTableRecord
100
AcDbBlockTableRecord
  2
junction-14
 70
    0
280
    1
281
    0
  0
BLOCK_RECORD
  5
94
330
1
100
AcDbSymbolTableRecord
100
AcDbBlockTableRecord
  2
r1-0
 70
    0
280
    1
281
    0
  0
BLOCK_RECORD
  5
97
330
1
100
AcDbSymbolTableRecord
100
AcDbBlockTableRecord
  2
mcp2014x-connector-7
 70
    0
280
    1
281
    0
  0
BLOCK_RECORD
  5
9A
330
1
100
AcDbSymbolTableRecord
100
AcDbBlockTableRecord
  2
diodo_bobina
 70
    0
280
    1
281
    0
  0
BLOCK_RECORD
  5
9D
330
1
100
AcDbSymbolTableRecord
100
AcDbBlockTableRecord
  2
mcp2014x-connector
 70
    0
280
    1
281
    0
  0
BLOCK_RECORD
  5
A0
330
1
100
AcDbSymbolTableRecord
100
AcDbBlockTableRecord
  2
junction-15
 70
    0
280
    1
281
    0
  0
BLOCK_RECORD
  5
A3
330
1
100
AcDbSymbolTableRecord
100
AcDbBlockTableRecord
  2
r1-1
 70
    0
280
    1
281
    0
  0
BLOCK_RECORD
  5
A6
330
1
100
AcDbSymbolTableRecord
100
AcDbBlockTableRecord
  2
mcp2014x-connector-8
 70
    0
280
    1
281
    0
  0
BLOCK_RECORD
  5
A9
330
1
100
AcDbSymbolTableRecord
100
AcDbBlockTableRecord
  2
diodo_bobina-0
 70
    0
280
    1
281
    0
  0
BLOCK_RECORD
  5
AC
330
1
100
AcDbSymbolTableRecord
100
AcDbBlockTableRecord
  2
mcp2014x-connector-1
 70
    0
280
    1
281
    0
  0
BLOCK_RECORD
  5
AF
330
1
100
AcDbSymbolTableRecord
100
AcDbBlockTableRecord
  2
mcp2014x-connector-2
 70
    0
280
    1
281
    0
  0
BLOCK_RECORD
  5
B2
330
1
100
AcDbSymbolTableRecord
100
AcDbBlockTableRecord
  2
junction-2
 70
    0
280
    1
281
    0
  0
BLOCK_RECORD
  5
B5
330
1
100
AcDbSymbolTableRecord
100
AcDbBlockTableRecord
  2
junction-16
 70
    0
280
    1
281
    0
  0
BLOCK_RECORD
  5
B8
330
1
100
AcDbSymbolTableRecord
100
AcDbBlockTableRecord
  2
junction-17
 70
    0
280
    1
281
    0
  0
BLOCK_RECORD
  5
BB
330
1
100
AcDbSymbolTableRecord
100
AcDbBlockTableRecord
  2
r1-2
 70
    0
280
    1
281
    0
  0
BLOCK_RECORD
  5
BE
330
1
100
AcDbSymbolTableRecord
100
AcDbBlockTableRecord
  2
r1-3
 70
    0
280
    1
281
    0
  0
BLOCK_RECORD
  5
C1
330
1
100
AcDbSymbolTableRecord
100
AcDbBlockTableRecord
  2
r1-4
 70
    0
280
    1
281
    0
  0
BLOCK_RECORD
  5
C4
330
1
100
AcDbSymbolTableRecord
100
AcDbBlockTableRecord
  2
mcp2014x-connector-9
 70
    0
280
    1
281
    0
  0
BLOCK_RECORD
  5
C7
330
1
100
AcDbSymbolTableRecord
100
AcDbBlockTableRecord
  2
mcp2014x-connector-10
 70
    0
280
    1
281
    0
  0
BLOCK_RECORD
  5
CA
330
1
100
AcDbSymbolTableRecord
100
AcDbBlockTableRecord
  2
mcp2014x-connector-11
 70
    0
280
    1
281
    0
  0
BLOCK_RECORD
  5
CD
330
1
100
AcDbSymbolTableRecord
100
AcDbBlockTableRecord
  2
diodo_bobina-1
 70
    0
280
    1
281
    0
  0
BLOCK_RECORD
  5
D0
330
1
100
AcDbSymbolTableRecord
100
AcDbBlockTableRecord
  2
diodo_bobina-2
 70
    0
280
    1
281
    0
  0
BLOCK_RECORD
  5
D3
330
1
100
AcDbSymbolTableRecord
100
AcDbBlockTableRecord
  2
diodo_bobina-3
 70
    0
280
    1
281
    0
  0
BLOCK_RECORD
  5
D6
330
1
100
AcDbSymbolTableRecord
100
AcDbBlockTableRecord
  2
r1-5
 70
    0
280
    1
281
    0
  0
BLOCK_RECORD
  5
D9
330
1
100
AcDbSymbolTableRecord
100
AcDbBlockTableRecord
  2
mcp2014x-connector-12
 70
    0
280
    1
281
    0
  0
BLOCK_RECORD
  5
DC
330
1
100
AcDbSymbolTableRecord
100
AcDbBlockTableRecord
  2
diodo_bobina-4
 70
    0
280
    1
281
    0
  0
BLOCK_RECORD
  5
DF
330
1
100
AcDbSymbolTableRecord
100
AcDbBlockTableRecord
  2
junction-5
 70
    0
280
    1
281
    0
  0
BLOCK_RECORD
  5
E2
330
1
100
AcDbSymbolTableRecord
100
AcDbBlockTableRecord
  2
junction-6
 70
    0
280
    1
281
    0
  0
BLOCK_RECORD
  5
E5
330
1
100
AcDbSymbolTableRecord
100
AcDbBlockTableRecord
  2
junction-7
 70
    0
280
    1
281
    0
  0
BLOCK_RECORD
  5
E8
330
1
100
AcDbSymbolTableRecord
100
AcDbBlockTableRecord
  2
junction-8
 70
    0
280
    1
281
    0
  0
BLOCK_RECORD
  5
EB
330
1
100
AcDbSymbolTableRecord
100
AcDbBlockTableRecord
  2
junction-9
 70
    0
280
    1
281
    0
  0
BLOCK_RECORD
  5
EE
330
1
100
AcDbSymbolTableRecord
100
AcDbBlockTableRecord
  2
junction-10
 70
    0
280
    1
281
    0
  0
BLOCK_RECORD
  5
F1
330
1
100
AcDbSymbolTableRecord
100
AcDbBlockTableRecord
  2
junction-11
 70
    0
280
    1
281
    0
  0
BLOCK_RECORD
  5
F4
330
1
100
AcDbSymbolTableRecord
100
AcDbBlockTableRecord
  2
junction-12
 70
    0
280
    1
281
    0
  0
BLOCK_RECORD
  5
F7
330
1
100
AcDbSymbolTableRecord
100
AcDbBlockTableRecord
  2
junction-13
 70
    0
280
    1
281
    0
  0
BLOCK_RECORD
  5
FA
330
1
100
AcDbSymbolTableRecord
100
AcDbBlockTableRecord
  2
junction-18
 70
    0
280
    1
281
    0
  0
BLOCK_RECORD
  5
FD
330
1
100
AcDbSymbolTableRecord
100
AcDbBlockTableRecord
  2
junction-19
 70
    0
280
    1
281
    0
  0
BLOCK_RECORD
  5
100
330
1
100
AcDbSymbolTableRecord
100
AcDbBlockTableRecord
  2
junction-20
 70
    0
280
    1
281
    0
  0
BLOCK_RECORD
  5
103
330
1
100
AcDbSymbolTableRecord
100
AcDbBlockTableRecord
  2
junction-21
 70
    0
280
    1
281
    0
  0
BLOCK_RECORD
  5
106
330
1
100
AcDbSymbolTableRecord
100
AcDbBlockTableRecord
  2
junction-22
 70
    0
280
    1
281
    0
  0
BLOCK_RECORD
  5
109
330
1
100
AcDbSymbolTableRecord
100
AcDbBlockTableRecord
  2
junction-23
 70
    0
280
    1
281
    0
  0
BLOCK_RECORD
  5
10C
330
1
100
AcDbSymbolTableRecord
100
AcDbBlockTableRecord
  2
junction-24
 70
    0
280
    1
281
    0
  0
BLOCK_RECORD
  5
10F
330
1
100
AcDbSymbolTableRecord
100
AcDbBlockTableRecord
  2
junction-25
 70
    0
280
    1
281
    0
  0
ENDTAB
  0
ENDSEC
  0
SECTION
  2
BLOCKS
  0
BLOCK
  5
20
330
1F
100
AcDbEntity
  8
0
100
AcDbBlockBegin
  2
*Model_Space
 70
    0
 10
0
 20
0
 30
0
  3
*Model_Space
  1

  0
ENDBLK
  5
21
330
1F
100
AcDbEntity
  8
0
100
AcDbBlockEnd
  0
BLOCK
  5
1C
330
1B
100
AcDbEntity
  8
0
100
AcDbBlockBegin
  2
*Paper_Space
 70
    0
 10
0
 20
0
 30
0
  3
*Paper_Space
  1

  0
ENDBLK
  5
1D
330
1F
100
AcDbEntity
  8
0
100
AcDbBlockEnd
  0
BLOCK
  5
56
330
55
100
AcDbEntity
  8
0
100
AcDbBlockBegin
  2
*D2
 70
    1
 10
0
 20
0
  3
*D2
  1

  0
LINE
  5
112
100
AcDbEntity
  8
0
  6
CONTINUOUS
 62
    7
370
    0
100
AcDbLine
 10
359.0764330069787
 20
250.8771540781544
 11
346.3737922941608
 21
261.5382989621266
  0
LINE
  5
113
100
AcDbEntity
  8
0
  6
CONTINUOUS
 62
    7
370
    0
100
AcDbLine
 10
346.3737922941608
 20
261.5382989621266
 11
346.3737922941608
 21
282.8605887300711
  0
SOLID
  5
114
100
AcDbEntity
  8
0
  6
CONTINUOUS
 62
    7
370
    0
100
AcDbTrace
 10
359.0764330069787
 20
250.8771540781544
 30
0
 11
356.8938799346258
 21
252.1654688699114
 31
0
 12
357.4291148101817
 22
252.8031955301483
 32
0
 13
357.4291148101817
 23
252.8031955301483
 33
0
  0
ENDBLK
  5
57
330
55
100
AcDbEntity
  8
0
100
AcDbBlockEnd
  0
BLOCK
  5
59
330
58
100
AcDbEntity
  8
0
100
AcDbBlockBegin
  2
*D4
 70
    1
 10
0
 20
0
  3
*D4
  1

  0
LINE
  5
115
100
AcDbEntity
  8
0
  6
CONTINUOUS
 62
    7
370
    0
100
AcDbLine
 10
290.71246864647
 20
190.9226530055085
 11
290.71246864647
 21
193.3166674632578
  0
SOLID
  5
116
100
AcDbEntity
  8
0
  6
CONTINUOUS
 62
    7
370
    0
100
AcDbTrace
 10
290.71246864647
 20
190.9226530055085
 30
0
 11
290.2961839886971
 21
193.4226530055085
 31
0
 12
291.1287533042428
 22
193.4226530055085
 32
0
 13
291.1287533042428
 23
193.4226530055085
 33
0
  0
ENDBLK
  5
5A
330
58
100
AcDbEntity
  8
0
100
AcDbBlockEnd
  0
BLOCK
  5
5C
330
5B
100
AcDbEntity
  8
0
100
AcDbBlockBegin
  2
*D3
 70
    1
 10
0
 20
0
  3
*D3
  1

  0
LINE
  5
117
100
AcDbEntity
  8
0
  6
CONTINUOUS
 62
    7
370
    0
100
AcDbLine
 10
290.71246864647
 20
222.2443421610621
 11
290.71246864647
 21
219.4513252936879
  0
SOLID
  5
118
100
AcDbEntity
  8
0
  6
CONTINUOUS
 62
    7
370
    0
100
AcDbTrace
 10
290.71246864647
 20
222.2443421610621
 30
0
 11
291.1287533042428
 21
219.7443421610621
 31
0
 12
290.2961839886971
 22
219.7443421610621
 32
0
 13
290.2961839886971
 23
219.7443421610621
 33
0
  0
ENDBLK
  5
5D
330
5B
100
AcDbEntity
  8
0
100
AcDbBlockEnd
  0
BLOCK
  5
5F
330
5E
100
AcDbEntity
  8
0
100
AcDbBlockBegin
  2
*D5
 70
    1
 10
0
 20
0
  3
*D5
  1

  0
LINE
  5
119
100
AcDbEntity
  8
0
  6
CONTINUOUS
 62
    7
370
    0
100
AcDbLine
 10
287.7126097119923
 20
203.5890265955101
 11
267.303929784325
 21
216.2822299651568
  0
SOLID
  5
11A
100
AcDbEntity
  8
0
  6
CONTINUOUS
 62
    7
370
    0
100
AcDbTrace
 10
287.7126097119923
 20
203.5890265955101
 30
0
 11
285.3698552764538
 21
204.5558743451903
 31
0
 12
285.8095650882871
 22
205.2628587485302
 32
0
 13
285.8095650882871
 23
205.2628587485302
 33
0
  0
ENDBLK
  5
60
330
5E
100
AcDbEntity
  8
0
100
AcDbBlockEnd
  0
BLOCK
  5
62
330
61
100
AcDbEntity
  8
0
100
AcDbBlockBegin
  2
*D1
 70
    1
 10
0
 20
0
  3
*D1
  1

  0
LINE
  5
11B
100
AcDbEntity
  8
schematic
  6
CONTINUOUS
 62
    7
370
    0
100
AcDbLine
 10
56.52794907383129
 20
158.0802018564917
 11
56.52794907383129
 21
205.6183116125893
  0
SOLID
  5
11C
100
AcDbEntity
  8
schematic
  6
CONTINUOUS
 62
    7
370
    0
100
AcDbTrace
 10
56.52794907383129
 20
158.0802018564917
 30
0
 11
56.11166441605845
 21
160.5802018564917
 31
0
 12
56.94423373160413
 22
160.5802018564917
 32
0
 13
56.94423373160413
 23
160.5802018564917
 33
0
  0
ENDBLK
  5
63
330
61
100
AcDbEntity
  8
0
100
AcDbBlockEnd
  0
BLOCK
  5
65
330
64
100
AcDbEntity
  8
0
100
AcDbBlockBegin
  2
a3
 70
    0
 10
0
 20
0
  3
a3
  1

  0
HATCH
  5
11D
100
AcDbEntity
  8
hatch
  6
ByLayer
 62
  256
370
   -1
100
AcDbHatch
 10
0
 20
0
 30
0
210
0
220
0
230
1
  2
ansi31
 70
    0
 71
    0
 91
    1
 92
    0
 93
    3
 72
    1
 10
124.999976
 20
287.000024
 11
122.499976
 21
291.330151019
 72
    1
 10
122.499976
 20
291.330151019
 11
127.499976
 21
291.330151019
 72
    1
 10
127.499976
 20
291.330151019
 11
124.999976
 21
287.000024
 97
    0
 75
    0
 76
    1
 52
4.71238898038
 41
0.5
 77
    0
 78
    0
 98
    0
  0
HATCH
  5
11E
100
AcDbEntity
  8
hatch
  6
ByLayer
 62
  256
370
   -1
100
AcDbHatch
 10
0
 20
0
 30
0
210
0
220
0
230
1
  2
ansi31
 70
    0
 71
    0
 91
    1
 92
    0
 93
    3
 72
    1
 10
229.999976
 20
287.000024
 11
227.499976
 21
291.330151019
 72
    1
 10
227.499976
 20
291.330151019
 11
232.499976
 21
291.330151019
 72
    1
 10
232.499976
 20
291.330151019
 11
229.999976
 21
287.000024
 97
    0
 75
    0
 76
    1
 52
4.71238898038
 41
0.5
 77
    0
 78
    0
 98
    0
  0
HATCH
  5
11F
100
AcDbEntity
  8
hatch
  6
ByLayer
 62
  256
370
   -1
100
AcDbHatch
 10
0
 20
0
 30
0
210
0
220
0
230
1
  2
ansi31
 70
    0
 71
    0
 91
    1
 92
    0
 93
    3
 72
    1
 10
315
 20
287.000024
 11
312.5
 21
291.330151019
 72
    1
 10
312.5
 20
291.330151019
 11
317.5
 21
291.330151019
 72
    1
 10
317.5
 20
291.330151019
 11
315
 21
287.000024
 97
    0
 75
    0
 76
    1
 52
4.71238898038
 41
0.5
 77
    0
 78
    0
 98
    0
  0
HATCH
  5
120
100
AcDbEntity
  8
hatch
  6
ByLayer
 62
  256
370
   -1
100
AcDbHatch
 10
0
 20
0
 30
0
210
0
220
0
230
1
  2
ansi31
 70
    0
 71
    0
 91
    1
 92
    0
 93
    3
 72
    1
 10
315
 20
9.999976
 11
312.5
 21
5.66984898108
 72
    1
 10
312.5
 20
5.66984898108
 11
317.5
 21
5.66984898108
 72
    1
 10
317.5
 20
5.66984898108
 11
315
 21
9.999976
 97
    0
 75
    0
 76
    1
 52
4.71238898038
 41
0.5
 77
    0
 78
    0
 98
    0
  0
HATCH
  5
121
100
AcDbEntity
  8
hatch
  6
ByLayer
 62
  256
370
   -1
100
AcDbHatch
 10
0
 20
0
 30
0
210
0
220
0
230
1
  2
ansi31
 70
    0
 71
    0
 91
    1
 92
    0
 93
    3
 72
    1
 10
229.999976
 20
9.999976
 11
227.499976
 21
5.66984898108
 72
    1
 10
227.499976
 20
5.66984898108
 11
232.499976
 21
5.66984898108
 72
    1
 10
232.499976
 20
5.66984898108
 11
229.999976
 21
9.999976
 97
    0
 75
    0
 76
    1
 52
4.71238898038
 41
0.5
 77
    0
 78
    0
 98
    0
  0
HATCH
  5
122
100
AcDbEntity
  8
hatch
  6
ByLayer
 62
  256
370
   -1
100
AcDbHatch
 10
0
 20
0
 30
0
210
0
220
0
230
1
  2
ansi31
 70
    0
 71
    0
 91
    1
 92
    0
 93
    3
 72
    1
 10
124.999976
 20
9.999976
 11
122.499976
 21
5.66984898108
 72
    1
 10
122.499976
 20
5.66984898108
 11
127.499976
 21
5.66984898108
 72
    1
 10
127.499976
 20
5.66984898108
 11
124.999976
 21
9.999976
 97
    0
 75
    0
 76
    1
 52
4.71238898038
 41
0.5
 77
    0
 78
    0
 98
    0
  0
HATCH
  5
123
100
AcDbEntity
  8
hatch
  6
ByLayer
 62
  256
370
   -1
100
AcDbHatch
 10
0
 20
0
 30
0
210
0
220
0
230
1
  2
ansi31
 70
    0
 71
    0
 91
    1
 92
    0
 93
    3
 72
    1
 10
410
 20
148.5
 11
414.330127019
 21
146
 72
    1
 10
414.330127019
 20
146
 11
414.330127019
 21
151
 72
    1
 10
414.330127019
 20
151
 11
410
 21
148.5
 97
    0
 75
    0
 76
    1
 52
3.14159265359
 41
0.5
 77
    0
 78
    0
 98
    0
  0
HATCH
  5
124
100
AcDbEntity
  8
hatch
  6
ByLayer
 62
  256
370
   -1
100
AcDbHatch
 10
0
 20
0
 30
0
210
0
220
0
230
1
  2
ansi31
 70
    0
 71
    0
 91
    1
 92
    0
 93
    3
 72
    1
 10
20
 20
148.5
 11
15.6698729811
 21
146
 72
    1
 10
15.6698729811
 20
146
 11
15.6698729811
 21
151
 72
    1
 10
15.6698729811
 20
151
 11
20
 21
148.5
 97
    0
 75
    0
 76
    1
 52
0
 41
0.5
 77
    0
 78
    0
 98
    0
  0
CIRCLE
  5
125
100
AcDbEntity
  8
help-lines
  6
ByLayer
 62
  256
370
   -1
100
AcDbCircle
 10
15
 20
222.75
 40
3
  0
LINE
  5
126
100
AcDbEntity
  8
help-lines
  6
ByLayer
 62
  256
370
   -1
100
AcDbLine
 10
20
 20
148.5
 11
15.6698729811
 21
146
  0
LINE
  5
127
100
AcDbEntity
  8
help-lines
  6
ByLayer
 62
  256
370
   -1
100
AcDbLine
 10
20
 20
148.5
 11
15.6698729811
 21
151
  0
LINE
  5
128
100
AcDbEntity
  8
help-lines
  6
ByLayer
 62
  256
370
   -1
100
AcDbLine
 10
15.6698729811
 20
146
 11
15.6698729811
 21
151
  0
CIRCLE
  5
129
100
AcDbEntity
  8
help-lines
  6
ByLayer
 62
  256
370
   -1
100
AcDbCircle
 10
15
 20
74.25
 40
3
  0
MTEXT
  5
12A
100
AcDbEntity
  8
help-lines
  6
ByLayer
 62
  256
370
   -1
100
AcDbMText
 10
15
 20
74.25
 30
0
 40
4
 41
2.666666666666667
 71
    5
 72
    5
  1
A
  7
iso
210
0
220
0
230
1
 50
6.28318530718
 73
    2
 44
0.96
  0
MTEXT
  5
12B
100
AcDbEntity
  8
help-lines
  6
ByLayer
 62
  256
370
   -1
100
AcDbMText
 10
15
 20
222.75
 30
0
 40
4
 41
2.222222222222222
 71
    5
 72
    5
  1
B
  7
iso
210
0
220
0
230
1
 50
6.28318530718
 73
    2
 44
0.96
  0
LINE
  5
12C
100
AcDbEntity
  8
help-lines
  6
ByLayer
 62
  256
370
   -1
100
AcDbLine
 10
2.57e-14
 20
297
 11
0
 21
0
  0
CIRCLE
  5
12D
100
AcDbEntity
  8
help-lines
  6
ByLayer
 62
  256
370
   -1
100
AcDbCircle
 10
415
 20
222.75
 40
3
  0
LINE
  5
12E
100
AcDbEntity
  8
help-lines
  6
ByLayer
 62
  256
370
   -1
100
AcDbLine
 10
410
 20
148.5
 11
414.330127019
 21
146
  0
LINE
  5
12F
100
AcDbEntity
  8
help-lines
  6
ByLayer
 62
  256
370
   -1
100
AcDbLine
 10
410
 20
148.5
 11
414.330127019
 21
151
  0
LINE
  5
130
100
AcDbEntity
  8
help-lines
  6
ByLayer
 62
  256
370
   -1
100
AcDbLine
 10
414.330127019
 20
146
 11
414.330127019
 21
151
  0
CIRCLE
  5
131
100
AcDbEntity
  8
help-lines
  6
ByLayer
 62
  256
370
   -1
100
AcDbCircle
 10
415
 20
74.25
 40
3
  0
MTEXT
  5
132
100
AcDbEntity
  8
help-lines
  6
ByLayer
 62
  256
370
   -1
100
AcDbMText
 10
415
 20
74.25
 30
0
 40
4
 41
2.666666666666667
 71
    5
 72
    5
  1
A
  7
iso
210
0
220
0
230
1
 50
6.28318530718
 73
    2
 44
0.96
  0
MTEXT
  5
133
100
AcDbEntity
  8
help-lines
  6
ByLayer
 62
  256
370
   -1
100
AcDbMText
 10
415
 20
222.75
 30
0
 40
4
 41
2.222222222222222
 71
    5
 72
    5
  1
B
  7
iso
210
0
220
0
230
1
 50
6.28318530718
 73
    2
 44
0.96
  0
LINE
  5
134
100
AcDbEntity
  8
help-lines
  6
ByLayer
 62
  256
370
   -1
100
AcDbLine
 10
420
 20
297
 11
2.57e-14
 21
297
  0
LINE
  5
135
100
AcDbEntity
  8
help-lines
  6
ByLayer
 62
  256
370
   -1
100
AcDbLine
 10
125
 20
0
 11
125
 21
10
  0
LINE
  5
136
100
AcDbEntity
  8
help-lines
  6
ByLayer
 62
  256
370
   -1
100
AcDbLine
 10
230
 20
2.84e-14
 11
230
 21
10
  0
LINE
  5
137
100
AcDbEntity
  8
help-lines
  6
ByLayer
 62
  256
370
   -1
100
AcDbLine
 10
124.999976
 20
9.999976
 11
122.499976
 21
5.66984898108
  0
LINE
  5
138
100
AcDbEntity
  8
help-lines
  6
ByLayer
 62
  256
370
   -1
100
AcDbLine
 10
124.999976
 20
9.999976
 11
127.499976
 21
5.66984898108
  0
LINE
  5
139
100
AcDbEntity
  8
help-lines
  6
ByLayer
 62
  256
370
   -1
100
AcDbLine
 10
122.499976
 20
5.66984898108
 11
127.499976
 21
5.66984898108
  0
CIRCLE
  5
13A
100
AcDbEntity
  8
help-lines
  6
ByLayer
 62
  256
370
   -1
100
AcDbCircle
 10
177.5
 20
5
 40
3
  0
LINE
  5
13B
100
AcDbEntity
  8
help-lines
  6
ByLayer
 62
  256
370
   -1
100
AcDbLine
 10
229.999976
 20
9.999976
 11
227.499976
 21
5.66984898108
  0
LINE
  5
13C
100
AcDbEntity
  8
help-lines
  6
ByLayer
 62
  256
370
   -1
100
AcDbLine
 10
229.999976
 20
9.999976
 11
232.499976
 21
5.66984898108
  0
LINE
  5
13D
100
AcDbEntity
  8
help-lines
  6
ByLayer
 62
  256
370
   -1
100
AcDbLine
 10
227.499976
 20
5.66984898108
 11
232.499976
 21
5.66984898108
  0
CIRCLE
  5
13E
100
AcDbEntity
  8
help-lines
  6
ByLayer
 62
  256
370
   -1
100
AcDbCircle
 10
72.5
 20
5
 40
3
  0
MTEXT
  5
13F
100
AcDbEntity
  8
help-lines
  6
ByLayer
 62
  256
370
   -1
100
AcDbMText
 10
72.5
 20
5
 30
0
 40
4
 41
0.8888888888888888
 71
    5
 72
    5
  1
1
  7
iso
210
0
220
0
230
1
 50
0
 73
    2
 44
0.96
  0
MTEXT
  5
140
100
AcDbEntity
  8
help-lines
  6
ByLayer
 62
  256
370
   -1
100
AcDbMText
 10
177.5
 20
5
 30
0
 40
4
 41
1.777777777777778
 71
    5
 72
    5
  1
2
  7
iso
210
0
220
0
230
1
 50
0
 73
    2
 44
0.96
  0
CIRCLE
  5
141
100
AcDbEntity
  8
help-lines
  6
ByLayer
 62
  256
370
   -1
100
AcDbCircle
 10
278
 20
5
 40
3
  0
MTEXT
  5
142
100
AcDbEntity
  8
help-lines
  6
ByLayer
 62
  256
370
   -1
100
AcDbMText
 10
278
 20
5
 30
0
 40
4
 41
1.777777777778026
 71
    5
 72
    5
  1
3
  7
iso
210
0
220
0
230
1
 50
0
 73
    2
 44
0.96
  0
LINE
  5
143
100
AcDbEntity
  8
help-lines
  6
ByLayer
 62
  256
370
   -1
100
AcDbLine
 10
315
 20
9.999976
 11
312.5
 21
5.66984898108
  0
LINE
  5
144
100
AcDbEntity
  8
help-lines
  6
ByLayer
 62
  256
370
   -1
100
AcDbLine
 10
315
 20
9.999976
 11
317.5
 21
5.66984898108
  0
LINE
  5
145
100
AcDbEntity
  8
help-lines
  6
ByLayer
 62
  256
370
   -1
100
AcDbLine
 10
312.5
 20
5.66984898108
 11
317.5
 21
5.66984898108
  0
CIRCLE
  5
146
100
AcDbEntity
  8
help-lines
  6
ByLayer
 62
  256
370
   -1
100
AcDbCircle
 10
363.000024
 20
5
 40
3
  0
MTEXT
  5
147
100
AcDbEntity
  8
help-lines
  6
ByLayer
 62
  256
370
   -1
100
AcDbMText
 10
363.000024
 20
5
 30
0
 40
4
 41
2.222222222222222
 71
    5
 72
    5
  1
4
  7
iso
210
0
220
0
230
1
 50
0
 73
    2
 44
0.96
  0
LINE
  5
148
100
AcDbEntity
  8
help-lines
  6
ByLayer
 62
  256
370
   -1
100
AcDbLine
 10
420
 20
0
 11
420
 21
297
  0
LINE
  5
149
100
AcDbEntity
  8
help-lines
  6
ByLayer
 62
  256
370
   -1
100
AcDbLine
 10
3.55e-14
 20
0
 11
420
 21
0
  0
LINE
  5
14A
100
AcDbEntity
  8
help-lines
  6
ByLayer
 62
  256
370
   -1
100
AcDbLine
 10
125
 20
297
 11
125
 21
287
  0
LINE
  5
14B
100
AcDbEntity
  8
help-lines
  6
ByLayer
 62
  256
370
   -1
100
AcDbLine
 10
230
 20
297
 11
230
 21
287
  0
LINE
  5
14C
100
AcDbEntity
  8
help-lines
  6
ByLayer
 62
  256
370
   -1
100
AcDbLine
 10
124.999976
 20
287.000024
 11
122.499976
 21
291.330151019
  0
LINE
  5
14D
100
AcDbEntity
  8
help-lines
  6
ByLayer
 62
  256
370
   -1
100
AcDbLine
 10
124.999976
 20
287.000024
 11
127.499976
 21
291.330151019
  0
LINE
  5
14E
100
AcDbEntity
  8
help-lines
  6
ByLayer
 62
  256
370
   -1
100
AcDbLine
 10
122.499976
 20
291.330151019
 11
127.499976
 21
291.330151019
  0
CIRCLE
  5
14F
100
AcDbEntity
  8
help-lines
  6
ByLayer
 62
  256
370
   -1
100
AcDbCircle
 10
177.5
 20
292
 40
3
  0
LINE
  5
150
100
AcDbEntity
  8
help-lines
  6
ByLayer
 62
  256
370
   -1
100
AcDbLine
 10
229.999976
 20
287.000024
 11
227.499976
 21
291.330151019
  0
LINE
  5
151
100
AcDbEntity
  8
help-lines
  6
ByLayer
 62
  256
370
   -1
100
AcDbLine
 10
229.999976
 20
287.000024
 11
232.499976
 21
291.330151019
  0
LINE
  5
152
100
AcDbEntity
  8
help-lines
  6
ByLayer
 62
  256
370
   -1
100
AcDbLine
 10
227.499976
 20
291.330151019
 11
232.499976
 21
291.330151019
  0
CIRCLE
  5
153
100
AcDbEntity
  8
help-lines
  6
ByLayer
 62
  256
370
   -1
100
AcDbCircle
 10
72.5
 20
292
 40
3
  0
MTEXT
  5
154
100
AcDbEntity
  8
help-lines
  6
ByLayer
 62
  256
370
   -1
100
AcDbMText
 10
72.5
 20
292
 30
0
 40
4
 41
0.8888888888888888
 71
    5
 72
    5
  1
1
  7
iso
210
0
220
0
230
1
 50
0
 73
    2
 44
0.96
  0
MTEXT
  5
155
100
AcDbEntity
  8
help-lines
  6
ByLayer
 62
  256
370
   -1
100
AcDbMText
 10
177.5
 20
292
 30
0
 40
4
 41
1.777777777777778
 71
    5
 72
    5
  1
2
  7
iso
210
0
220
0
230
1
 50
0
 73
    2
 44
0.96
  0
CIRCLE
  5
156
100
AcDbEntity
  8
help-lines
  6
ByLayer
 62
  256
370
   -1
100
AcDbCircle
 10
278
 20
292
 40
3
  0
MTEXT
  5
157
100
AcDbEntity
  8
help-lines
  6
ByLayer
 62
  256
370
   -1
100
AcDbMText
 10
278
 20
292
 30
0
 40
4
 41
1.777777777778026
 71
    5
 72
    5
  1
3
  7
iso
210
0
220
0
230
1
 50
0
 73
    2
 44
0.96
  0
LINE
  5
158
100
AcDbEntity
  8
help-lines
  6
ByLayer
 62
  256
370
   -1
100
AcDbLine
 10
315
 20
287.000024
 11
312.5
 21
291.330151019
  0
LINE
  5
159
100
AcDbEntity
  8
help-lines
  6
ByLayer
 62
  256
370
   -1
100
AcDbLine
 10
315
 20
287.000024
 11
317.5
 21
291.330151019
  0
LINE
  5
15A
100
AcDbEntity
  8
help-lines
  6
ByLayer
 62
  256
370
   -1
100
AcDbLine
 10
312.5
 20
291.330151019
 11
317.5
 21
291.330151019
  0
CIRCLE
  5
15B
100
AcDbEntity
  8
help-lines
  6
ByLayer
 62
  256
370
   -1
100
AcDbCircle
 10
363.000024
 20
292
 40
3
  0
MTEXT
  5
15C
100
AcDbEntity
  8
help-lines
  6
ByLayer
 62
  256
370
   -1
100
AcDbMText
 10
363.000024
 20
292
 30
0
 40
4
 41
2.222222222222222
 71
    5
 72
    5
  1
4
  7
iso
210
0
220
0
230
1
 50
0
 73
    2
 44
0.96
  0
ENDBLK
  5
66
330
64
100
AcDbEntity
  8
0
100
AcDbBlockEnd
  0
BLOCK
  5
68
330
67
100
AcDbEntity
  8
0
100
AcDbBlockBegin
  2
a3-0
 70
    0
 10
0
 20
0
  3
a3-0
  1

  0
HATCH
  5
15D
100
AcDbEntity
  8
hatch
  6
ByLayer
 62
  256
370
   -1
100
AcDbHatch
 10
0
 20
0
 30
0
210
0
220
0
230
1
  2
ansi31
 70
    0
 71
    0
 91
    1
 92
    0
 93
    3
 72
    1
 10
20
 20
148.5
 11
15.6698729811
 21
146
 72
    1
 10
15.6698729811
 20
146
 11
15.6698729811
 21
151
 72
    1
 10
15.6698729811
 20
151
 11
20
 21
148.5
 97
    0
 75
    0
 76
    1
 52
0
 41
0.5
 77
    0
 78
    0
 98
    0
  0
HATCH
  5
15E
100
AcDbEntity
  8
hatch
  6
ByLayer
 62
  256
370
   -1
100
AcDbHatch
 10
0
 20
0
 30
0
210
0
220
0
230
1
  2
ansi31
 70
    0
 71
    0
 91
    1
 92
    0
 93
    3
 72
    1
 10
410
 20
148.5
 11
414.330127019
 21
146
 72
    1
 10
414.330127019
 20
146
 11
414.330127019
 21
151
 72
    1
 10
414.330127019
 20
151
 11
410
 21
148.5
 97
    0
 75
    0
 76
    1
 52
3.14159265359
 41
0.5
 77
    0
 78
    0
 98
    0
  0
HATCH
  5
15F
100
AcDbEntity
  8
hatch
  6
ByLayer
 62
  256
370
   -1
100
AcDbHatch
 10
0
 20
0
 30
0
210
0
220
0
230
1
  2
ansi31
 70
    0
 71
    0
 91
    1
 92
    0
 93
    3
 72
    1
 10
124.999976
 20
9.999976
 11
122.499976
 21
5.66984898108
 72
    1
 10
122.499976
 20
5.66984898108
 11
127.499976
 21
5.66984898108
 72
    1
 10
127.499976
 20
5.66984898108
 11
124.999976
 21
9.999976
 97
    0
 75
    0
 76
    1
 52
4.71238898038
 41
0.5
 77
    0
 78
    0
 98
    0
  0
HATCH
  5
160
100
AcDbEntity
  8
hatch
  6
ByLayer
 62
  256
370
   -1
100
AcDbHatch
 10
0
 20
0
 30
0
210
0
220
0
230
1
  2
ansi31
 70
    0
 71
    0
 91
    1
 92
    0
 93
    3
 72
    1
 10
229.999976
 20
9.999976
 11
227.499976
 21
5.66984898108
 72
    1
 10
227.499976
 20
5.66984898108
 11
232.499976
 21
5.66984898108
 72
    1
 10
232.499976
 20
5.66984898108
 11
229.999976
 21
9.999976
 97
    0
 75
    0
 76
    1
 52
4.71238898038
 41
0.5
 77
    0
 78
    0
 98
    0
  0
HATCH
  5
161
100
AcDbEntity
  8
hatch
  6
ByLayer
 62
  256
370
   -1
100
AcDbHatch
 10
0
 20
0
 30
0
210
0
220
0
230
1
  2
ansi31
 70
    0
 71
    0
 91
    1
 92
    0
 93
    3
 72
    1
 10
315
 20
9.999976
 11
312.5
 21
5.66984898108
 72
    1
 10
312.5
 20
5.66984898108
 11
317.5
 21
5.66984898108
 72
    1
 10
317.5
 20
5.66984898108
 11
315
 21
9.999976
 97
    0
 75
    0
 76
    1
 52
4.71238898038
 41
0.5
 77
    0
 78
    0
 98
    0
  0
HATCH
  5
162
100
AcDbEntity
  8
hatch
  6
ByLayer
 62
  256
370
   -1
100
AcDbHatch
 10
0
 20
0
 30
0
210
0
220
0
230
1
  2
ansi31
 70
    0
 71
    0
 91
    1
 92
    0
 93
    3
 72
    1
 10
315
 20
287.000024
 11
312.5
 21
291.330151019
 72
    1
 10
312.5
 20
291.330151019
 11
317.5
 21
291.330151019
 72
    1
 10
317.5
 20
291.330151019
 11
315
 21
287.000024
 97
    0
 75
    0
 76
    1
 52
4.71238898038
 41
0.5
 77
    0
 78
    0
 98
    0
  0
HATCH
  5
163
100
AcDbEntity
  8
hatch
  6
ByLayer
 62
  256
370
   -1
100
AcDbHatch
 10
0
 20
0
 30
0
210
0
220
0
230
1
  2
ansi31
 70
    0
 71
    0
 91
    1
 92
    0
 93
    3
 72
    1
 10
229.999976
 20
287.000024
 11
227.499976
 21
291.330151019
 72
    1
 10
227.499976
 20
291.330151019
 11
232.499976
 21
291.330151019
 72
    1
 10
232.499976
 20
291.330151019
 11
229.999976
 21
287.000024
 97
    0
 75
    0
 76
    1
 52
4.71238898038
 41
0.5
 77
    0
 78
    0
 98
    0
  0
HATCH
  5
164
100
AcDbEntity
  8
hatch
  6
ByLayer
 62
  256
370
   -1
100
AcDbHatch
 10
0
 20
0
 30
0
210
0
220
0
230
1
  2
ansi31
 70
    0
 71
    0
 91
    1
 92
    0
 93
    3
 72
    1
 10
124.999976
 20
287.000024
 11
122.499976
 21
291.330151019
 72
    1
 10
122.499976
 20
291.330151019
 11
127.499976
 21
291.330151019
 72
    1
 10
127.499976
 20
291.330151019
 11
124.999976
 21
287.000024
 97
    0
 75
    0
 76
    1
 52
4.71238898038
 41
0.5
 77
    0
 78
    0
 98
    0
  0
CIRCLE
  5
165
100
AcDbEntity
  8
help-lines
  6
ByLayer
 62
  256
370
   -1
100
AcDbCircle
 10
15
 20
222.75
 40
3
  0
LINE
  5
166
100
AcDbEntity
  8
help-lines
  6
ByLayer
 62
  256
370
   -1
100
AcDbLine
 10
20
 20
148.5
 11
15.6698729811
 21
146
  0
LINE
  5
167
100
AcDbEntity
  8
help-lines
  6
ByLayer
 62
  256
370
   -1
100
AcDbLine
 10
20
 20
148.5
 11
15.6698729811
 21
151
  0
LINE
  5
168
100
AcDbEntity
  8
help-lines
  6
ByLayer
 62
  256
370
   -1
100
AcDbLine
 10
15.6698729811
 20
146
 11
15.6698729811
 21
151
  0
CIRCLE
  5
169
100
AcDbEntity
  8
help-lines
  6
ByLayer
 62
  256
370
   -1
100
AcDbCircle
 10
15
 20
74.25
 40
3
  0
MTEXT
  5
16A
100
AcDbEntity
  8
help-lines
  6
ByLayer
 62
  256
370
   -1
100
AcDbMText
 10
15
 20
74.25
 30
0
 40
4
 41
2.666666666666667
 71
    5
 72
    5
  1
A
  7
iso
210
0
220
0
230
1
 50
6.28318530718
 73
    2
 44
0.96
  0
MTEXT
  5
16B
100
AcDbEntity
  8
help-lines
  6
ByLayer
 62
  256
370
   -1
100
AcDbMText
 10
15
 20
222.75
 30
0
 40
4
 41
2.222222222222222
 71
    5
 72
    5
  1
B
  7
iso
210
0
220
0
230
1
 50
6.28318530718
 73
    2
 44
0.96
  0
LINE
  5
16C
100
AcDbEntity
  8
help-lines
  6
ByLayer
 62
  256
370
   -1
100
AcDbLine
 10
1.82076576039e-14
 20
297
 11
0
 21
0
  0
CIRCLE
  5
16D
100
AcDbEntity
  8
help-lines
  6
ByLayer
 62
  256
370
   -1
100
AcDbCircle
 10
415
 20
222.75
 40
3
  0
LINE
  5
16E
100
AcDbEntity
  8
help-lines
  6
ByLayer
 62
  256
370
   -1
100
AcDbLine
 10
410
 20
148.5
 11
414.330127019
 21
146
  0
LINE
  5
16F
100
AcDbEntity
  8
help-lines
  6
ByLayer
 62
  256
370
   -1
100
AcDbLine
 10
410
 20
148.5
 11
414.330127019
 21
151
  0
LINE
  5
170
100
AcDbEntity
  8
help-lines
  6
ByLayer
 62
  256
370
   -1
100
AcDbLine
 10
414.330127019
 20
146
 11
414.330127019
 21
151
  0
CIRCLE
  5
171
100
AcDbEntity
  8
help-lines
  6
ByLayer
 62
  256
370
   -1
100
AcDbCircle
 10
415
 20
74.25
 40
3
  0
MTEXT
  5
172
100
AcDbEntity
  8
help-lines
  6
ByLayer
 62
  256
370
   -1
100
AcDbMText
 10
415
 20
74.25
 30
0
 40
4
 41
2.666666666666667
 71
    5
 72
    5
  1
A
  7
iso
210
0
220
0
230
1
 50
6.28318530718
 73
    2
 44
0.96
  0
MTEXT
  5
173
100
AcDbEntity
  8
help-lines
  6
ByLayer
 62
  256
370
   -1
100
AcDbMText
 10
415
 20
222.75
 30
0
 40
4
 41
2.222222222222222
 71
    5
 72
    5
  1
B
  7
iso
210
0
220
0
230
1
 50
6.28318530718
 73
    2
 44
0.96
  0
LINE
  5
174
100
AcDbEntity
  8
help-lines
  6
ByLayer
 62
  256
370
   -1
100
AcDbLine
 10
420
 20
297
 11
1.82076576039e-14
 21
297
  0
LINE
  5
175
100
AcDbEntity
  8
help-lines
  6
ByLayer
 62
  256
370
   -1
100
AcDbLine
 10
125
 20
0
 11
125
 21
10
  0
LINE
  5
176
100
AcDbEntity
  8
help-lines
  6
ByLayer
 62
  256
370
   -1
100
AcDbLine
 10
230
 20
0
 11
230
 21
10
  0
LINE
  5
177
100
AcDbEntity
  8
help-lines
  6
ByLayer
 62
  256
370
   -1
100
AcDbLine
 10
124.999976
 20
9.999976
 11
122.499976
 21
5.66984898108
  0
LINE
  5
178
100
AcDbEntity
  8
help-lines
  6
ByLayer
 62
  256
370
   -1
100
AcDbLine
 10
124.999976
 20
9.999976
 11
127.499976
 21
5.66984898108
  0
LINE
  5
179
100
AcDbEntity
  8
help-lines
  6
ByLayer
 62
  256
370
   -1
100
AcDbLine
 10
122.499976
 20
5.66984898108
 11
127.499976
 21
5.66984898108
  0
CIRCLE
  5
17A
100
AcDbEntity
  8
help-lines
  6
ByLayer
 62
  256
370
   -1
100
AcDbCircle
 10
177.5
 20
5
 40
3
  0
LINE
  5
17B
100
AcDbEntity
  8
help-lines
  6
ByLayer
 62
  256
370
   -1
100
AcDbLine
 10
229.999976
 20
9.999976
 11
227.499976
 21
5.66984898108
  0
LINE
  5
17C
100
AcDbEntity
  8
help-lines
  6
ByLayer
 62
  256
370
   -1
100
AcDbLine
 10
229.999976
 20
9.999976
 11
232.499976
 21
5.66984898108
  0
LINE
  5
17D
100
AcDbEntity
  8
help-lines
  6
ByLayer
 62
  256
370
   -1
100
AcDbLine
 10
227.499976
 20
5.66984898108
 11
232.499976
 21
5.66984898108
  0
CIRCLE
  5
17E
100
AcDbEntity
  8
help-lines
  6
ByLayer
 62
  256
370
   -1
100
AcDbCircle
 10
72.5
 20
5
 40
3
  0
MTEXT
  5
17F
100
AcDbEntity
  8
help-lines
  6
ByLayer
 62
  256
370
   -1
100
AcDbMText
 10
72.5
 20
5
 30
0
 40
4
 41
0.8888888888888888
 71
    5
 72
    5
  1
1
  7
iso
210
0
220
0
230
1
 50
0
 73
    2
 44
0.96
  0
MTEXT
  5
180
100
AcDbEntity
  8
help-lines
  6
ByLayer
 62
  256
370
   -1
100
AcDbMText
 10
177.5
 20
5
 30
0
 40
4
 41
1.777777777777778
 71
    5
 72
    5
  1
2
  7
iso
210
0
220
0
230
1
 50
0
 73
    2
 44
0.96
  0
CIRCLE
  5
181
100
AcDbEntity
  8
help-lines
  6
ByLayer
 62
  256
370
   -1
100
AcDbCircle
 10
278
 20
5
 40
3
  0
MTEXT
  5
182
100
AcDbEntity
  8
help-lines
  6
ByLayer
 62
  256
370
   -1
100
AcDbMText
 10
278
 20
5
 30
0
 40
4
 41
1.777777777778026
 71
    5
 72
    5
  1
3
  7
iso
210
0
220
0
230
1
 50
0
 73
    2
 44
0.96
  0
LINE
  5
183
100
AcDbEntity
  8
help-lines
  6
ByLayer
 62
  256
370
   -1
100
AcDbLine
 10
315
 20
9.999976
 11
312.5
 21
5.66984898108
  0
LINE
  5
184
100
AcDbEntity
  8
help-lines
  6
ByLayer
 62
  256
370
   -1
100
AcDbLine
 10
315
 20
9.999976
 11
317.5
 21
5.66984898108
  0
LINE
  5
185
100
AcDbEntity
  8
help-lines
  6
ByLayer
 62
  256
370
   -1
100
AcDbLine
 10
312.5
 20
5.66984898108
 11
317.5
 21
5.66984898108
  0
CIRCLE
  5
186
100
AcDbEntity
  8
help-lines
  6
ByLayer
 62
  256
370
   -1
100
AcDbCircle
 10
363.000024
 20
5
 40
3
  0
MTEXT
  5
187
100
AcDbEntity
  8
help-lines
  6
ByLayer
 62
  256
370
   -1
100
AcDbMText
 10
363.000024
 20
5
 30
0
 40
4
 41
2.222222222222222
 71
    5
 72
    5
  1
4
  7
iso
210
0
220
0
230
1
 50
0
 73
    2
 44
0.96
  0
LINE
  5
188
100
AcDbEntity
  8
help-lines
  6
ByLayer
 62
  256
370
   -1
100
AcDbLine
 10
420
 20
0
 11
420
 21
297
  0
LINE
  5
189
100
AcDbEntity
  8
help-lines
  6
ByLayer
 62
  256
370
   -1
100
AcDbLine
 10
3.5527136788e-14
 20
0
 11
420
 21
0
  0
LINE
  5
18A
100
AcDbEntity
  8
help-lines
  6
ByLayer
 62
  256
370
   -1
100
AcDbLine
 10
125
 20
297
 11
125
 21
287
  0
LINE
  5
18B
100
AcDbEntity
  8
help-lines
  6
ByLayer
 62
  256
370
   -1
100
AcDbLine
 10
230
 20
297
 11
230
 21
287
  0
LINE
  5
18C
100
AcDbEntity
  8
help-lines
  6
ByLayer
 62
  256
370
   -1
100
AcDbLine
 10
124.999976
 20
287.000024
 11
122.499976
 21
291.330151019
  0
LINE
  5
18D
100
AcDbEntity
  8
help-lines
  6
ByLayer
 62
  256
370
   -1
100
AcDbLine
 10
124.999976
 20
287.000024
 11
127.499976
 21
291.330151019
  0
LINE
  5
18E
100
AcDbEntity
  8
help-lines
  6
ByLayer
 62
  256
370
   -1
100
AcDbLine
 10
122.499976
 20
291.330151019
 11
127.499976
 21
291.330151019
  0
CIRCLE
  5
18F
100
AcDbEntity
  8
help-lines
  6
ByLayer
 62
  256
370
   -1
100
AcDbCircle
 10
177.5
 20
292
 40
3
  0
LINE
  5
190
100
AcDbEntity
  8
help-lines
  6
ByLayer
 62
  256
370
   -1
100
AcDbLine
 10
229.999976
 20
287.000024
 11
227.499976
 21
291.330151019
  0
LINE
  5
191
100
AcDbEntity
  8
help-lines
  6
ByLayer
 62
  256
370
   -1
100
AcDbLine
 10
229.999976
 20
287.000024
 11
232.499976
 21
291.330151019
  0
LINE
  5
192
100
AcDbEntity
  8
help-lines
  6
ByLayer
 62
  256
370
   -1
100
AcDbLine
 10
227.499976
 20
291.330151019
 11
232.499976
 21
291.330151019
  0
CIRCLE
  5
193
100
AcDbEntity
  8
help-lines
  6
ByLayer
 62
  256
370
   -1
100
AcDbCircle
 10
72.5
 20
292
 40
3
  0
MTEXT
  5
194
100
AcDbEntity
  8
help-lines
  6
ByLayer
 62
  256
370
   -1
100
AcDbMText
 10
72.5
 20
292
 30
0
 40
4
 41
0.8888888888888888
 71
    5
 72
    5
  1
1
  7
iso
210
0
220
0
230
1
 50
0
 73
    2
 44
0.96
  0
MTEXT
  5
195
100
AcDbEntity
  8
help-lines
  6
ByLayer
 62
  256
370
   -1
100
AcDbMText
 10
177.5
 20
292
 30
0
 40
4
 41
1.777777777777778
 71
    5
 72
    5
  1
2
  7
iso
210
0
220
0
230
1
 50
0
 73
    2
 44
0.96
  0
CIRCLE
  5
196
100
AcDbEntity
  8
help-lines
  6
ByLayer
 62
  256
370
   -1
100
AcDbCircle
 10
278
 20
292
 40
3
  0
MTEXT
  5
197
100
AcDbEntity
  8
help-lines
  6
ByLayer
 62
  256
370
   -1
100
AcDbMText
 10
278
 20
292
 30
0
 40
4
 41
1.777777777778026
 71
    5
 72
    5
  1
3
  7
iso
210
0
220
0
230
1
 50
0
 73
    2
 44
0.96
  0
LINE
  5
198
100
AcDbEntity
  8
help-lines
  6
ByLayer
 62
  256
370
   -1
100
AcDbLine
 10
315
 20
287.000024
 11
312.5
 21
291.330151019
  0
LINE
  5
199
100
AcDbEntity
  8
help-lines
  6
ByLayer
 62
  256
370
   -1
100
AcDbLine
 10
315
 20
287.000024
 11
317.5
 21
291.330151019
  0
LINE
  5
19A
100
AcDbEntity
  8
help-lines
  6
ByLayer
 62
  256
370
   -1
100
AcDbLine
 10
312.5
 20
291.330151019
 11
317.5
 21
291.330151019
  0
CIRCLE
  5
19B
100
AcDbEntity
  8
help-lines
  6
ByLayer
 62
  256
370
   -1
100
AcDbCircle
 10
363.000024
 20
292
 40
3
  0
MTEXT
  5
19C
100
AcDbEntity
  8
help-lines
  6
ByLayer
 62
  256
370
   -1
100
AcDbMText
 10
363.000024
 20
292
 30
0
 40
4
 41
2.222222222222222
 71
    5
 72
    5
  1
4
  7
iso
210
0
220
0
230
1
 50
0
 73
    2
 44
0.96
  0
ENDBLK
  5
69
330
67
100
AcDbEntity
  8
0
100
AcDbBlockEnd
  0
BLOCK
  5
6B
330
6A
100
AcDbEntity
  8
0
100
AcDbBlockBegin
  2
eca-logo-0
 70
    0
 10
0
 20
0
  3
eca-logo-0
  1

  0
ARC
  5
19D
100
AcDbEntity
  8
0
  6
ByLayer
 62
  256
370
   -1
100
AcDbCircle
 10
110.420388752
 20
76.91488935949999
 40
7.01016792418
100
AcDbArc
 50
87.74620047419999
 51
274.031479733
  0
LINE
  5
19E
100
AcDbEntity
  8
0
  6
ByLayer
 62
  256
370
   -1
100
AcDbLine
 10
110.886912
 20
69.94001919999999
 11
115.008423684
 21
69.9454058127
  0
ARC
  5
19F
100
AcDbEntity
  8
0
  6
ByLayer
 62
  256
370
   -1
100
AcDbCircle
 10
123.926518775
 20
77.00278865919999
 40
11.2882077629
100
AcDbArc
 50
141.77912084
 51
217.944755456
  0
LINE
  5
1A0
100
AcDbEntity
  8
0
  6
ByLayer
 62
  256
370
   -1
100
AcDbLine
 10
110.65210144
 20
83.92022498999999
 11
114.989564861
 21
83.93583805510001
  0
MTEXT
  5
1A1
100
AcDbEntity
  8
0
  6
ByLayer
 62
  256
370
   -1
100
AcDbMText
 10
109.008608924
 20
82.4343709274
 30
0
 40
2.5
 41
1.666666666666667
 71
    1
 72
    1
  1
E\PC\PA
  7
standard
210
0
220
0
230
1
 50
0
 73
    2
 44
1
  0
LINE
  5
1A2
100
AcDbEntity
  8
0
  6
ByLayer
 62
  256
370
   -1
100
AcDbLine
 10
113.540949806
 20
72.6336679929
 11
125.540949806
 21
72.6336679929
  0
LINE
  5
1A3
100
AcDbEntity
  8
0
  6
ByLayer
 62
  256
370
   -1
100
AcDbLine
 10
113.540949806
 20
81.34970815200001
 11
125.540949806
 21
81.34970815200001
  0
LINE
  5
1A4
100
AcDbEntity
  8
0
  6
ByLayer
 62
  256
370
   -1
100
AcDbLine
 10
112.649976812
 20
76.8948431818
 11
125.523374438
 21
76.93048210160001
  0
ENDBLK
  5
6C
330
6A
100
AcDbEntity
  8
0
100
AcDbBlockEnd
  0
BLOCK
  5
6E
330
6D
100
AcDbEntity
  8
0
100
AcDbBlockBegin
  2
eca-logo-1
 70
    0
 10
0
 20
0
  3
eca-logo-1
  1

  0
ARC
  5
1A5
100
AcDbEntity
  8
0
  6
ByLayer
 62
  256
370
   -1
100
AcDbCircle
 10
11.1840352802
 20
10.462484617
 40
7.01016792418
100
AcDbArc
 50
87.74620047419999
 51
274.031479733
  0
LINE
  5
1A6
100
AcDbEntity
  8
0
  6
ByLayer
 62
  256
370
   -1
100
AcDbLine
 10
11.6505585283
 20
3.4876144575
 11
15.7720702125
 21
3.49300107019
  0
ARC
  5
1A7
100
AcDbEntity
  8
0
  6
ByLayer
 62
  256
370
   -1
100
AcDbCircle
 10
24.6901653037
 20
10.5503839167
 40
11.2882077629
100
AcDbArc
 50
141.77912084
 51
217.944755456
  0
LINE
  5
1A8
100
AcDbEntity
  8
0
  6
ByLayer
 62
  256
370
   -1
100
AcDbLine
 10
11.4157479686
 20
17.4678202475
 11
15.753211389
 21
17.4834333126
  0
MTEXT
  5
1A9
100
AcDbEntity
  8
0
  6
ByLayer
 62
  256
370
   -1
100
AcDbMText
 10
9.77225545204
 20
15.9819661849
 30
0
 40
2.5
 41
1.666666666666667
 71
    1
 72
    1
  1
E\PC\PA
  7
standard
210
0
220
0
230
1
 50
0
 73
    2
 44
1
  0
LINE
  5
1AA
100
AcDbEntity
  8
0
  6
ByLayer
 62
  256
370
   -1
100
AcDbLine
 10
14.3045963348
 20
6.18126325039
 11
26.3045963348
 21
6.18126325039
  0
LINE
  5
1AB
100
AcDbEntity
  8
0
  6
ByLayer
 62
  256
370
   -1
100
AcDbLine
 10
14.3045963348
 20
14.8973034095
 11
26.3045963348
 21
14.8973034095
  0
LINE
  5
1AC
100
AcDbEntity
  8
0
  6
ByLayer
 62
  256
370
   -1
100
AcDbLine
 10
13.4136233407
 20
10.4424384393
 11
26.287020966
 21
10.4780773591
  0
ENDBLK
  5
6F
330
6D
100
AcDbEntity
  8
0
100
AcDbBlockEnd
  0
BLOCK
  5
71
330
70
100
AcDbEntity
  8
0
100
AcDbBlockBegin
  2
Terminal-in
 70
    0
 10
0
 20
0
  3
Terminal-in
  1

  0
CIRCLE
  5
1AD
100
AcDbEntity
  8
0
  6
ByLayer
 62
  256
370
   -1
100
AcDbCircle
 10
0.00863291037492786
 20
10.74201307537149
 40
3.343779540414038
  0
LINE
  5
1AE
100
AcDbEntity
  8
0
  6
ByLayer
 62
  256
370
   -1
100
AcDbLine
 10
0.00863291037492786
 20
0.0666705345713865
 11
0.00863291037492786
 21
7.398233534957427
  0
ENDBLK
  5
72
330
70
100
AcDbEntity
  8
0
100
AcDbBlockEnd
  0
BLOCK
  5
74
330
73
100
AcDbEntity
  8
0
100
AcDbBlockBegin
  2
junction
 70
    0
 10
0
 20
0
  3
junction
  1

  0
HATCH
  5
1AF
100
AcDbEntity
  8
0
  6
ByLayer
 62
  256
370
   -1
100
AcDbHatch
 10
0
 20
0
 30
0
210
0
220
0
230
1
  2
gost_ceramics
 70
    0
 71
    0
 91
    1
 92
    0
 93
    1
 72
    2
 10
-0.05958860800001275
 20
-0.1342767104000018
 40
1.289183059150252
 50
0
 51
360
 73
    1
 97
    0
 75
    0
 76
    1
 52
0
 41
0.05
 77
    0
 78
    0
 98
    0
  0
CIRCLE
  5
1B0
100
AcDbEntity
  8
0
  6
ByLayer
 62
  256
370
   -1
100
AcDbCircle
 10
-0.05958860800001275
 20
-0.1342767104000018
 40
1.289183059150252
  0
ENDBLK
  5
75
330
73
100
AcDbEntity
  8
0
100
AcDbBlockEnd
  0
BLOCK
  5
77
330
76
100
AcDbEntity
  8
0
100
AcDbBlockBegin
  2
junction-0
 70
    0
 10
0
 20
0
  3
junction-0
  1

  0
HATCH
  5
1B1
100
AcDbEntity
  8
0
  6
ByLayer
 62
  256
370
   -1
100
AcDbHatch
 10
0
 20
0
 30
0
210
0
220
0
230
1
  2
gost_ceramics
 70
    0
 71
    0
 91
    1
 92
    0
 93
    1
 72
    2
 10
-0.05958860800001275
 20
-0.1342767104000018
 40
1.289183059150252
 50
0
 51
360
 73
    1
 97
    0
 75
    0
 76
    1
 52
0
 41
0.05
 77
    0
 78
    0
 98
    0
  0
CIRCLE
  5
1B2
100
AcDbEntity
  8
0
  6
ByLayer
 62
  256
370
   -1
100
AcDbCircle
 10
-0.05958860800001275
 20
-0.1342767104000018
 40
1.289183059150252
  0
ENDBLK
  5
78
330
76
100
AcDbEntity
  8
0
100
AcDbBlockEnd
  0
BLOCK
  5
7A
330
79
100
AcDbEntity
  8
0
100
AcDbBlockBegin
  2
junction-1
 70
    0
 10
0
 20
0
  3
junction-1
  1

  0
HATCH
  5
1B3
100
AcDbEntity
  8
0
  6
ByLayer
 62
  256
370
   -1
100
AcDbHatch
 10
0
 20
0
 30
0
210
0
220
0
230
1
  2
gost_ceramics
 70
    0
 71
    0
 91
    1
 92
    0
 93
    1
 72
    2
 10
-0.05958860800001275
 20
-0.1342767104000018
 40
1.289183059150252
 50
0
 51
360
 73
    1
 97
    0
 75
    0
 76
    1
 52
0
 41
0.05
 77
    0
 78
    0
 98
    0
  0
CIRCLE
  5
1B4
100
AcDbEntity
  8
0
  6
ByLayer
 62
  256
370
   -1
100
AcDbCircle
 10
-0.05958860800001275
 20
-0.1342767104000018
 40
1.289183059150252
  0
ENDBLK
  5
7B
330
79
100
AcDbEntity
  8
0
100
AcDbBlockEnd
  0
BLOCK
  5
7D
330
7C
100
AcDbEntity
  8
0
100
AcDbBlockBegin
  2
junction-3
 70
    0
 10
0
 20
0
  3
junction-3
  1

  0
HATCH
  5
1B5
100
AcDbEntity
  8
0
  6
ByLayer
 62
  256
370
   -1
100
AcDbHatch
 10
0
 20
0
 30
0
210
0
220
0
230
1
  2
gost_ceramics
 70
    0
 71
    0
 91
    1
 92
    0
 93
    1
 72
    2
 10
-0.05958860800001275
 20
-0.1342767104000018
 40
1.289183059150252
 50
0
 51
360
 73
    1
 97
    0
 75
    0
 76
    1
 52
0
 41
0.05
 77
    0
 78
    0
 98
    0
  0
CIRCLE
  5
1B6
100
AcDbEntity
  8
0
  6
ByLayer
 62
  256
370
   -1
100
AcDbCircle
 10
-0.05958860800001275
 20
-0.1342767104000018
 40
1.289183059150252
  0
ENDBLK
  5
7E
330
7C
100
AcDbEntity
  8
0
100
AcDbBlockEnd
  0
BLOCK
  5
80
330
7F
100
AcDbEntity
  8
0
100
AcDbBlockBegin
  2
junction-4
 70
    0
 10
0
 20
0
  3
junction-4
  1

  0
HATCH
  5
1B7
100
AcDbEntity
  8
0
  6
ByLayer
 62
  256
370
   -1
100
AcDbHatch
 10
0
 20
0
 30
0
210
0
220
0
230
1
  2
gost_ceramics
 70
    0
 71
    0
 91
    1
 92
    0
 93
    1
 72
    2
 10
-0.05958860800001275
 20
-0.1342767104000018
 40
1.289183059150252
 50
0
 51
360
 73
    1
 97
    0
 75
    0
 76
    1
 52
0
 41
0.05
 77
    0
 78
    0
 98
    0
  0
CIRCLE
  5
1B8
100
AcDbEntity
  8
0
  6
ByLayer
 62
  256
370
   -1
100
AcDbCircle
 10
-0.05958860800001275
 20
-0.1342767104000018
 40
1.289183059150252
  0
ENDBLK
  5
81
330
7F
100
AcDbEntity
  8
0
100
AcDbBlockEnd
  0
BLOCK
  5
83
330
82
100
AcDbEntity
  8
0
100
AcDbBlockBegin
  2
mcp2014x-connector-0
 70
    0
 10
0
 20
0
  3
mcp2014x-connector-0
  1

  0
LINE
  5
1B9
100
AcDbEntity
  8
0
  6
ByLayer
 62
  256
370
   -1
100
AcDbLine
 10
0.001768171077685565
 20
6.175801839350044
 11
6.251768171077682
 21
6.175801839350044
  0
LINE
  5
1BA
100
AcDbEntity
  8
0
  6
ByLayer
 62
  256
370
   -1
100
AcDbLine
 10
6.251768171077682
 20
6.175801839350044
 11
6.251768171077682
 21
0.003926839350043565
  0
LINE
  5
1BB
100
AcDbEntity
  8
0
  6
ByLayer
 62
  256
370
   -1
100
AcDbLine
 10
6.251768171077682
 20
0.003926839350043565
 11
0.001768171077685565
 21
0.003926839350043565
  0
LINE
  5
1BC
100
AcDbEntity
  8
0
  6
ByLayer
 62
  256
370
   -1
100
AcDbLine
 10
0.001768171077685565
 20
0.003926839350043565
 11
0.001768171077685565
 21
6.175801839350044
  0
ENDBLK
  5
84
330
82
100
AcDbEntity
  8
0
100
AcDbBlockEnd
  0
BLOCK
  5
86
330
85
100
AcDbEntity
  8
0
100
AcDbBlockBegin
  2
r1
 70
    0
 10
0
 20
0
  3
r1
  1

  0
LINE
  5
1BD
100
AcDbEntity
  8
0
  6
CONTINUOUS
 62
    7
370
   25
100
AcDbLine
 10
4.5
 20
6
 11
10.5
 21
6
  0
LINE
  5
1BE
100
AcDbEntity
  8
0
  6
CONTINUOUS
 62
    7
370
   25
100
AcDbLine
 10
4.5
 20
-6
 11
10.5
 21
-6
  0
LINE
  5
1BF
100
AcDbEntity
  8
0
  6
CONTINUOUS
 62
    7
370
   25
100
AcDbLine
 10
10.5
 20
-6
 11
10.5
 21
6
  0
LINE
  5
1C0
100
AcDbEntity
  8
0
  6
CONTINUOUS
 62
    7
370
   25
100
AcDbLine
 10
4.5
 20
6
 11
4.5
 21
-6
  0
LINE
  5
1C1
100
AcDbEntity
  8
0
  6
CONTINUOUS
 62
    7
370
   25
100
AcDbLine
 10
15
 20
0
 11
10.5
 21
0
  0
LINE
  5
1C2
100
AcDbEntity
  8
0
  6
CONTINUOUS
 62
    7
370
   25
100
AcDbLine
 10
4.5
 20
0
 11
0
 21
0
  0
POINT
  5
1C3
100
AcDbEntity
  8
0
  6
CONTINUOUS
 62
    7
370
   25
100
AcDbPoint
 10
0
 20
0
  0
POINT
  5
1C4
100
AcDbEntity
  8
0
  6
CONTINUOUS
 62
    7
370
   25
100
AcDbPoint
 10
15
 20
0
  0
ENDBLK
  5
87
330
85
100
AcDbEntity
  8
0
100
AcDbBlockEnd
  0
BLOCK
  5
89
330
88
100
AcDbEntity
  8
0
100
AcDbBlockBegin
  2
Diode-Power
 70
    0
 10
0
 20
0
  3
Diode-Power
  1

  0
LINE
  5
1C5
100
AcDbEntity
  8
Contour
  6
ByLayer
 62
  256
370
   25
100
AcDbLine
 10
0
 20
25
 11
-5
 21
15
  0
LINE
  5
1C6
100
AcDbEntity
  8
Contour
  6
ByLayer
 62
  256
370
   25
100
AcDbLine
 10
-5
 20
15
 11
5
 21
15
  0
LINE
  5
1C7
100
AcDbEntity
  8
Contour
  6
ByLayer
 62
  256
370
   25
100
AcDbLine
 10
5
 20
15
 11
0
 21
25
  0
LINE
  5
1C8
100
AcDbEntity
  8
Contour
  6
ByLayer
 62
  256
370
   25
100
AcDbLine
 10
0
 20
25
 11
-5
 21
25
  0
LINE
  5
1C9
100
AcDbEntity
  8
Contour
  6
ByLayer
 62
  256
370
   25
100
AcDbLine
 10
0
 20
25
 11
5
 21
25
  0
LINE
  5
1CA
100
AcDbEntity
  8
Contour
  6
ByLayer
 62
  256
370
   25
100
AcDbLine
 10
0
 20
25
 11
0
 21
40
  0
LINE
  5
1CB
100
AcDbEntity
  8
Contour
  6
ByLayer
 62
  256
370
   25
100
AcDbLine
 10
0
 20
15
 11
0
 21
0
  0
ENDBLK
  5
8A
330
88
100
AcDbEntity
  8
0
100
AcDbBlockEnd
  0
BLOCK
  5
8C
330
8B
100
AcDbEntity
  8
0
100
AcDbBlockBegin
  2
relay
 70
    0
 10
0
 20
0
  3
relay
  1

  0
HATCH
  5
1CC
100
AcDbEntity
  8
schematics
  6
ByLayer
 62
  256
370
   -1
100
AcDbHatch
 10
0
 20
0
 30
0
210
0
220
0
230
1
  2
concrete
 70
    0
 71
    0
 91
    1
 92
    0
 93
    1
 72
    2
 10
0
 20
32
 40
1
 50
0
 51
360
 73
    1
 97
    0
 75
    0
 76
    1
 52
0
 41
0.1
 77
    0
 78
    0
 98
    0
  0
HATCH
  5
1CD
100
AcDbEntity
  8
schematics
  6
ByLayer
 62
  256
370
   -1
100
AcDbHatch
 10
0
 20
0
 30
0
210
0
220
0
230
1
  2
concrete
 70
    0
 71
    0
 91
    1
 92
    0
 93
    1
 72
    2
 10
0
 20
8
 40
1
 50
0
 51
360
 73
    1
 97
    0
 75
    0
 76
    1
 52
0
 41
0.1
 77
    0
 78
    0
 98
    0
  0
LINE
  5
1CE
100
AcDbEntity
  8
schematics
  6
ByLayer
 62
  256
370
   -1
100
AcDbLine
 10
-5
 20
10
 11
5
 21
10
  0
LINE
  5
1CF
100
AcDbEntity
  8
schematics
  6
ByLayer
 62
  256
370
   -1
100
AcDbLine
 10
5
 20
10
 11
5
 21
30
  0
LINE
  5
1D0
100
AcDbEntity
  8
schematics
  6
ByLayer
 62
  256
370
   -1
100
AcDbLine
 10
5
 20
30
 11
-5
 21
30
  0
LINE
  5
1D1
100
AcDbEntity
  8
schematics
  6
ByLayer
 62
  256
370
   -1
100
AcDbLine
 10
-5
 20
30
 11
-5
 21
10
  0
LINE
  5
1D2
100
AcDbEntity
  8
schematics
  6
ByLayer
 62
  256
370
   -1
100
AcDbLine
 10
0
 20
30
 11
0
 21
40
  0
LINE
  5
1D3
100
AcDbEntity
  8
schematics
  6
ByLayer
 62
  256
370
   -1
100
AcDbLine
 10
0
 20
0
 11
0
 21
10
  0
LINE
  5
1D4
100
AcDbEntity
  8
schematics
  6
ByLayer
 62
  256
370
   -1
100
AcDbLine
 10
0
 20
8
 11
9
 21
8
  0
LINE
  5
1D5
100
AcDbEntity
  8
schematics
  6
ByLayer
 62
  256
370
   -1
100
AcDbLine
 10
9
 20
8
 11
9
 21
18
  0
LINE
  5
1D6
100
AcDbEntity
  8
schematics
  6
ByLayer
 62
  256
370
   -1
100
AcDbLine
 10
9
 20
18
 11
7
 21
18
  0
LINE
  5
1D7
100
AcDbEntity
  8
schematics
  6
ByLayer
 62
  256
370
   -1
100
AcDbLine
 10
7
 20
18
 11
9
 21
21
  0
LINE
  5
1D8
100
AcDbEntity
  8
schematics
  6
ByLayer
 62
  256
370
   -1
100
AcDbLine
 10
9
 20
21
 11
11
 21
18
  0
LINE
  5
1D9
100
AcDbEntity
  8
schematics
  6
ByLayer
 62
  256
370
   -1
100
AcDbLine
 10
11
 20
18
 11
9
 21
18
  0
LINE
  5
1DA
100
AcDbEntity
  8
schematics
  6
ByLayer
 62
  256
370
   -1
100
AcDbLine
 10
7
 20
21
 11
11
 21
21
  0
LINE
  5
1DB
100
AcDbEntity
  8
schematics
  6
ByLayer
 62
  256
370
   -1
100
AcDbLine
 10
9
 20
21
 11
9
 21
32
  0
LINE
  5
1DC
100
AcDbEntity
  8
schematics
  6
ByLayer
 62
  256
370
   -1
100
AcDbLine
 10
9
 20
32
 11
0
 21
32
  0
CIRCLE
  5
1DD
100
AcDbEntity
  8
schematics
  6
ByLayer
 62
  256
370
   -1
100
AcDbCircle
 10
0
 20
32
 40
1
  0
CIRCLE
  5
1DE
100
AcDbEntity
  8
schematics
  6
ByLayer
 62
  256
370
   -1
100
AcDbCircle
 10
0
 20
8
 40
1
  0
ENDBLK
  5
8D
330
8B
100
AcDbEntity
  8
0
100
AcDbBlockEnd
  0
BLOCK
  5
8F
330
8E
100
AcDbEntity
  8
0
100
AcDbBlockBegin
  2
relay-0
 70
    0
 10
0
 20
0
  3
relay-0
  1

  0
HATCH
  5
1DF
100
AcDbEntity
  8
schematics
  6
ByLayer
 62
  256
370
   -1
100
AcDbHatch
 10
0
 20
0
 30
0
210
0
220
0
230
1
  2
concrete
 70
    0
 71
    0
 91
    1
 92
    0
 93
    1
 72
    2
 10
0
 20
32
 40
1
 50
0
 51
360
 73
    1
 97
    0
 75
    0
 76
    1
 52
0
 41
0.1
 77
    0
 78
    0
 98
    0
  0
HATCH
  5
1E0
100
AcDbEntity
  8
schematics
  6
ByLayer
 62
  256
370
   -1
100
AcDbHatch
 10
0
 20
0
 30
0
210
0
220
0
230
1
  2
concrete
 70
    0
 71
    0
 91
    1
 92
    0
 93
    1
 72
    2
 10
0
 20
8
 40
1
 50
0
 51
360
 73
    1
 97
    0
 75
    0
 76
    1
 52
0
 41
0.1
 77
    0
 78
    0
 98
    0
  0
LINE
  5
1E1
100
AcDbEntity
  8
schematics
  6
ByLayer
 62
  256
370
   -1
100
AcDbLine
 10
-5
 20
10
 11
5
 21
10
  0
LINE
  5
1E2
100
AcDbEntity
  8
schematics
  6
ByLayer
 62
  256
370
   -1
100
AcDbLine
 10
5
 20
10
 11
5
 21
30
  0
LINE
  5
1E3
100
AcDbEntity
  8
schematics
  6
ByLayer
 62
  256
370
   -1
100
AcDbLine
 10
5
 20
30
 11
-5
 21
30
  0
LINE
  5
1E4
100
AcDbEntity
  8
schematics
  6
ByLayer
 62
  256
370
   -1
100
AcDbLine
 10
-5
 20
30
 11
-5
 21
10
  0
LINE
  5
1E5
100
AcDbEntity
  8
schematics
  6
ByLayer
 62
  256
370
   -1
100
AcDbLine
 10
0
 20
30
 11
0
 21
40
  0
LINE
  5
1E6
100
AcDbEntity
  8
schematics
  6
ByLayer
 62
  256
370
   -1
100
AcDbLine
 10
0
 20
0
 11
0
 21
10
  0
LINE
  5
1E7
100
AcDbEntity
  8
schematics
  6
ByLayer
 62
  256
370
   -1
100
AcDbLine
 10
0
 20
8
 11
9
 21
8
  0
LINE
  5
1E8
100
AcDbEntity
  8
schematics
  6
ByLayer
 62
  256
370
   -1
100
AcDbLine
 10
9
 20
8
 11
9
 21
18
  0
LINE
  5
1E9
100
AcDbEntity
  8
schematics
  6
ByLayer
 62
  256
370
   -1
100
AcDbLine
 10
9
 20
18
 11
7
 21
18
  0
LINE
  5
1EA
100
AcDbEntity
  8
schematics
  6
ByLayer
 62
  256
370
   -1
100
AcDbLine
 10
7
 20
18
 11
9
 21
21
  0
LINE
  5
1EB
100
AcDbEntity
  8
schematics
  6
ByLayer
 62
  256
370
   -1
100
AcDbLine
 10
9
 20
21
 11
11
 21
18
  0
LINE
  5
1EC
100
AcDbEntity
  8
schematics
  6
ByLayer
 62
  256
370
   -1
100
AcDbLine
 10
11
 20
18
 11
9
 21
18
  0
LINE
  5
1ED
100
AcDbEntity
  8
schematics
  6
ByLayer
 62
  256
370
   -1
100
AcDbLine
 10
7
 20
21
 11
11
 21
21
  0
LINE
  5
1EE
100
AcDbEntity
  8
schematics
  6
ByLayer
 62
  256
370
   -1
100
AcDbLine
 10
9
 20
21
 11
9
 21
32
  0
LINE
  5
1EF
100
AcDbEntity
  8
schematics
  6
ByLayer
 62
  256
370
   -1
100
AcDbLine
 10
9
 20
32
 11
0
 21
32
  0
CIRCLE
  5
1F0
100
AcDbEntity
  8
schematics
  6
ByLayer
 62
  256
370
   -1
100
AcDbCircle
 10
0
 20
32
 40
1
  0
CIRCLE
  5
1F1
100
AcDbEntity
  8
schematics
  6
ByLayer
 62
  256
370
   -1
100
AcDbCircle
 10
0
 20
8
 40
1
  0
ENDBLK
  5
90
330
8E
100
AcDbEntity
  8
0
100
AcDbBlockEnd
  0
BLOCK
  5
92
330
91
100
AcDbEntity
  8
0
100
AcDbBlockBegin
  2
junction-14
 70
    0
 10
0
 20
0
  3
junction-14
  1

  0
CIRCLE
  5
1F2
100
AcDbEntity
  8
schematic
  6
ByLayer
 62
  256
370
   -1
100
AcDbCircle
 10
25.64059739332136
 20
-16.0738021138314
 40
1.160264753235227
  0
ENDBLK
  5
93
330
91
100
AcDbEntity
  8
0
100
AcDbBlockEnd
  0
BLOCK
  5
95
330
94
100
AcDbEntity
  8
0
100
AcDbBlockBegin
  2
r1-0
 70
    0
 10
0
 20
0
  3
r1-0
  1

  0
POINT
  5
1F3
100
AcDbEntity
  8
schematic
  6
CONTINUOUS
 62
    7
370
   70
100
AcDbPoint
 10
25.7431223111376
 20
-38.67271699936748
  0
POINT
  5
1F4
100
AcDbEntity
  8
schematic
  6
CONTINUOUS
 62
    7
370
   70
100
AcDbPoint
 10
25.7431223111376
 20
-25.17271699936748
  0
LINE
  5
1F5
100
AcDbEntity
  8
schematic
  6
CONTINUOUS
 62
    7
370
   25
100
AcDbLine
 10
20.3431223111376
 20
-34.62271699936748
 11
20.3431223111376
 21
-29.22271699936748
  0
LINE
  5
1F6
100
AcDbEntity
  8
schematic
  6
CONTINUOUS
 62
    7
370
   25
100
AcDbLine
 10
31.1431223111376
 20
-34.62271699936748
 11
31.1431223111376
 21
-29.22271699936748
  0
LINE
  5
1F7
100
AcDbEntity
  8
schematic
  6
CONTINUOUS
 62
    7
370
   25
100
AcDbLine
 10
31.1431223111376
 20
-29.22271699936748
 11
20.3431223111376
 21
-29.22271699936748
  0
LINE
  5
1F8
100
AcDbEntity
  8
schematic
  6
CONTINUOUS
 62
    7
370
   25
100
AcDbLine
 10
20.3431223111376
 20
-34.62271699936748
 11
31.1431223111376
 21
-34.62271699936748
  0
LINE
  5
1F9
100
AcDbEntity
  8
schematic
  6
CONTINUOUS
 62
    7
370
   25
100
AcDbLine
 10
25.7431223111376
 20
-25.17271699936748
 11
25.7431223111376
 21
-29.22271699936748
  0
LINE
  5
1FA
100
AcDbEntity
  8
schematic
  6
CONTINUOUS
 62
    7
370
   25
100
AcDbLine
 10
25.7431223111376
 20
-34.62271699936748
 11
25.7431223111376
 21
-38.67271699936748
  0
ENDBLK
  5
96
330
94
100
AcDbEntity
  8
0
100
AcDbBlockEnd
  0
BLOCK
  5
98
330
97
100
AcDbEntity
  8
0
100
AcDbBlockBegin
  2
mcp2014x-connector-7
 70
    0
 10
0
 20
0
  3
mcp2014x-connector-7
  1

  0
LINE
  5
1FB
100
AcDbEntity
  8
schematic
  6
ByLayer
 62
  256
370
   -1
100
AcDbLine
 10
22.9858633924501
 20
-93.73560570477096
 11
28.6108633924501
 21
-93.73560570477096
  0
LINE
  5
1FC
100
AcDbEntity
  8
schematic
  6
ByLayer
 62
  256
370
   -1
100
AcDbLine
 10
28.6108633924501
 20
-93.73560570477096
 11
28.6108633924501
 21
-99.29029320477096
  0
LINE
  5
1FD
100
AcDbEntity
  8
schematic
  6
ByLayer
 62
  256
370
   -1
100
AcDbLine
 10
28.6108633924501
 20
-99.29029320477096
 11
22.9858633924501
 21
-99.29029320477096
  0
LINE
  5
1FE
100
AcDbEntity
  8
schematic
  6
ByLayer
 62
  256
370
   -1
100
AcDbLine
 10
22.9858633924501
 20
-99.29029320477096
 11
22.9858633924501
 21
-93.73560570477096
  0
ENDBLK
  5
99
330
97
100
AcDbEntity
  8
0
100
AcDbBlockEnd
  0
BLOCK
  5
9B
330
9A
100
AcDbEntity
  8
0
100
AcDbBlockBegin
  2
diodo_bobina
 70
    0
 10
0
 20
0
  3
diodo_bobina
  1

  0
LINE
  5
1FF
100
AcDbEntity
  8
schematic
  6
CONTINUOUS
 62
    7
370
   25
100
AcDbLine
 10
29.65184984745991
 20
-33.82970824704299
 11
29.65184984745991
 21
-30.22970824704299
  0
LINE
  5
200
100
AcDbEntity
  8
schematic
  6
CONTINUOUS
 62
    7
370
   25
100
AcDbLine
 10
29.65184984745991
 20
-31.30970824704299
 11
30.37184984745991
 21
-32.74970824704299
  0
LINE
  5
201
100
AcDbEntity
  8
schematic
  6
CONTINUOUS
 62
    7
370
   25
100
AcDbLine
 10
30.37184984745991
 20
-32.74970824704299
 11
28.93184984745992
 21
-32.74970824704299
  0
LINE
  5
202
100
AcDbEntity
  8
schematic
  6
CONTINUOUS
 62
    7
370
   25
100
AcDbLine
 10
28.93184984745992
 20
-32.74970824704299
 11
29.65184984745991
 21
-31.30970824704299
  0
LINE
  5
203
100
AcDbEntity
  8
schematic
  6
CONTINUOUS
 62
    7
370
   25
100
AcDbLine
 10
30.37184984745991
 20
-31.30970824704299
 11
28.93184984745992
 21
-31.30970824704299
  0
ENDBLK
  5
9C
330
9A
100
AcDbEntity
  8
0
100
AcDbBlockEnd
  0
BLOCK
  5
9E
330
9D
100
AcDbEntity
  8
0
100
AcDbBlockBegin
  2
mcp2014x-connector
 70
    0
 10
0
 20
0
  3
mcp2014x-connector
  1

  0
LINE
  5
204
100
AcDbEntity
  8
schematic
  6
ByLayer
 62
  256
370
   -1
100
AcDbLine
 10
37.38586339245008
 20
-125.235605704771
 11
43.01086339245008
 21
-125.235605704771
  0
LINE
  5
205
100
AcDbEntity
  8
schematic
  6
ByLayer
 62
  256
370
   -1
100
AcDbLine
 10
43.01086339245008
 20
-125.235605704771
 11
43.01086339245008
 21
-130.7902932047709
  0
LINE
  5
206
100
AcDbEntity
  8
schematic
  6
ByLayer
 62
  256
370
   -1
100
AcDbLine
 10
43.01086339245008
 20
-130.7902932047709
 11
37.38586339245008
 21
-130.7902932047709
  0
LINE
  5
207
100
AcDbEntity
  8
schematic
  6
ByLayer
 62
  256
370
   -1
100
AcDbLine
 10
37.38586339245008
 20
-130.7902932047709
 11
37.38586339245008
 21
-125.235605704771
  0
ENDBLK
  5
9F
330
9D
100
AcDbEntity
  8
0
100
AcDbBlockEnd
  0
BLOCK
  5
A1
330
A0
100
AcDbEntity
  8
0
100
AcDbBlockBegin
  2
junction-15
 70
    0
 10
0
 20
0
  3
junction-15
  1

  0
CIRCLE
  5
208
100
AcDbEntity
  8
schematic
  6
ByLayer
 62
  256
370
   -1
100
AcDbCircle
 10
9.203600411429955
 20
-16.0738021138314
 40
1.160264753235227
  0
ENDBLK
  5
A2
330
A0
100
AcDbEntity
  8
0
100
AcDbBlockEnd
  0
BLOCK
  5
A4
330
A3
100
AcDbEntity
  8
0
100
AcDbBlockBegin
  2
r1-1
 70
    0
 10
0
 20
0
  3
r1-1
  1

  0
POINT
  5
209
100
AcDbEntity
  8
schematic
  6
CONTINUOUS
 62
    7
370
   70
100
AcDbPoint
 10
9.306125329246186
 20
-38.67271699936748
  0
POINT
  5
20A
100
AcDbEntity
  8
schematic
  6
CONTINUOUS
 62
    7
370
   70
100
AcDbPoint
 10
9.306125329246186
 20
-25.17271699936748
  0
LINE
  5
20B
100
AcDbEntity
  8
schematic
  6
CONTINUOUS
 62
    7
370
   25
100
AcDbLine
 10
3.906125329246187
 20
-34.62271699936748
 11
3.906125329246188
 21
-29.22271699936748
  0
LINE
  5
20C
100
AcDbEntity
  8
schematic
  6
CONTINUOUS
 62
    7
370
   25
100
AcDbLine
 10
14.70612532924618
 20
-34.62271699936748
 11
14.70612532924618
 21
-29.22271699936748
  0
LINE
  5
20D
100
AcDbEntity
  8
schematic
  6
CONTINUOUS
 62
    7
370
   25
100
AcDbLine
 10
14.70612532924618
 20
-29.22271699936748
 11
3.906125329246188
 21
-29.22271699936748
  0
LINE
  5
20E
100
AcDbEntity
  8
schematic
  6
CONTINUOUS
 62
    7
370
   25
100
AcDbLine
 10
3.906125329246187
 20
-34.62271699936748
 11
14.70612532924618
 21
-34.62271699936748
  0
LINE
  5
20F
100
AcDbEntity
  8
schematic
  6
CONTINUOUS
 62
    7
370
   25
100
AcDbLine
 10
9.306125329246186
 20
-25.17271699936748
 11
9.306125329246186
 21
-29.22271699936748
  0
LINE
  5
210
100
AcDbEntity
  8
schematic
  6
CONTINUOUS
 62
    7
370
   25
100
AcDbLine
 10
9.306125329246186
 20
-34.62271699936748
 11
9.306125329246186
 21
-38.67271699936748
  0
ENDBLK
  5
A5
330
A3
100
AcDbEntity
  8
0
100
AcDbBlockEnd
  0
BLOCK
  5
A7
330
A6
100
AcDbEntity
  8
0
100
AcDbBlockBegin
  2
mcp2014x-connector-8
 70
    0
 10
0
 20
0
  3
mcp2014x-connector-8
  1

  0
LINE
  5
211
100
AcDbEntity
  8
schematic
  6
ByLayer
 62
  256
370
   -1
100
AcDbLine
 10
6.54886641055869
 20
-93.73560570477096
 11
12.17386641055869
 21
-93.73560570477096
  0
LINE
  5
212
100
AcDbEntity
  8
schematic
  6
ByLayer
 62
  256
370
   -1
100
AcDbLine
 10
12.17386641055869
 20
-93.73560570477096
 11
12.17386641055869
 21
-99.29029320477096
  0
LINE
  5
213
100
AcDbEntity
  8
schematic
  6
ByLayer
 62
  256
370
   -1
100
AcDbLine
 10
12.17386641055869
 20
-99.29029320477096
 11
6.54886641055869
 21
-99.29029320477096
  0
LINE
  5
214
100
AcDbEntity
  8
schematic
  6
ByLayer
 62
  256
370
   -1
100
AcDbLine
 10
6.54886641055869
 20
-99.29029320477096
 11
6.54886641055869
 21
-93.73560570477096
  0
ENDBLK
  5
A8
330
A6
100
AcDbEntity
  8
0
100
AcDbBlockEnd
  0
BLOCK
  5
AA
330
A9
100
AcDbEntity
  8
0
100
AcDbBlockBegin
  2
diodo_bobina-0
 70
    0
 10
0
 20
0
  3
diodo_bobina-0
  1

  0
LINE
  5
215
100
AcDbEntity
  8
schematic
  6
CONTINUOUS
 62
    7
370
   25
100
AcDbLine
 10
13.21485286556862
 20
-33.82970824704299
 11
13.21485286556862
 21
-30.22970824704299
  0
LINE
  5
216
100
AcDbEntity
  8
schematic
  6
CONTINUOUS
 62
    7
370
   25
100
AcDbLine
 10
13.21485286556862
 20
-31.30970824704299
 11
13.93485286556862
 21
-32.74970824704299
  0
LINE
  5
217
100
AcDbEntity
  8
schematic
  6
CONTINUOUS
 62
    7
370
   25
100
AcDbLine
 10
13.93485286556862
 20
-32.74970824704299
 11
12.49485286556862
 21
-32.74970824704299
  0
LINE
  5
218
100
AcDbEntity
  8
schematic
  6
CONTINUOUS
 62
    7
370
   25
100
AcDbLine
 10
12.49485286556862
 20
-32.74970824704299
 11
13.21485286556862
 21
-31.30970824704299
  0
LINE
  5
219
100
AcDbEntity
  8
schematic
  6
CONTINUOUS
 62
    7
370
   25
100
AcDbLine
 10
13.93485286556862
 20
-31.30970824704299
 11
12.49485286556862
 21
-31.30970824704299
  0
ENDBLK
  5
AB
330
A9
100
AcDbEntity
  8
0
100
AcDbBlockEnd
  0
BLOCK
  5
AD
330
AC
100
AcDbEntity
  8
0
100
AcDbBlockBegin
  2
mcp2014x-connector-1
 70
    0
 10
0
 20
0
  3
mcp2014x-connector-1
  1

  0
LINE
  5
21A
100
AcDbEntity
  8
schematic
  6
ByLayer
 62
  256
370
   -1
100
AcDbLine
 10
23.00349103329508
 20
-125.235605704771
 11
28.62849103329507
 21
-125.235605704771
  0
LINE
  5
21B
100
AcDbEntity
  8
schematic
  6
ByLayer
 62
  256
370
   -1
100
AcDbLine
 10
28.62849103329507
 20
-125.235605704771
 11
28.62849103329507
 21
-130.7902932047709
  0
LINE
  5
21C
100
AcDbEntity
  8
schematic
  6
ByLayer
 62
  256
370
   -1
100
AcDbLine
 10
28.62849103329507
 20
-130.7902932047709
 11
23.00349103329508
 21
-130.7902932047709
  0
LINE
  5
21D
100
AcDbEntity
  8
schematic
  6
ByLayer
 62
  256
370
   -1
100
AcDbLine
 10
23.00349103329508
 20
-130.7902932047709
 11
23.00349103329508
 21
-125.235605704771
  0
ENDBLK
  5
AE
330
AC
100
AcDbEntity
  8
0
100
AcDbBlockEnd
  0
BLOCK
  5
B0
330
AF
100
AcDbEntity
  8
0
100
AcDbBlockBegin
  2
mcp2014x-connector-2
 70
    0
 10
0
 20
0
  3
mcp2014x-connector-2
  1

  0
LINE
  5
21E
100
AcDbEntity
  8
schematic
  6
ByLayer
 62
  256
370
   -1
100
AcDbLine
 10
6.566494051403725
 20
-125.235605704771
 11
12.19149405140372
 21
-125.235605704771
  0
LINE
  5
21F
100
AcDbEntity
  8
schematic
  6
ByLayer
 62
  256
370
   -1
100
AcDbLine
 10
12.19149405140372
 20
-125.235605704771
 11
12.19149405140372
 21
-130.7902932047709
  0
LINE
  5
220
100
AcDbEntity
  8
schematic
  6
ByLayer
 62
  256
370
   -1
100
AcDbLine
 10
12.19149405140372
 20
-130.7902932047709
 11
6.566494051403725
 21
-130.7902932047709
  0
LINE
  5
221
100
AcDbEntity
  8
schematic
  6
ByLayer
 62
  256
370
   -1
100
AcDbLine
 10
6.566494051403725
 20
-130.7902932047709
 11
6.566494051403725
 21
-125.235605704771
  0
ENDBLK
  5
B1
330
AF
100
AcDbEntity
  8
0
100
AcDbBlockEnd
  0
BLOCK
  5
B3
330
B2
100
AcDbEntity
  8
0
100
AcDbBlockBegin
  2
junction-2
 70
    0
 10
0
 20
0
  3
junction-2
  1

  0
CIRCLE
  5
222
100
AcDbEntity
  8
labels
  6
ByLayer
 62
  256
370
   -1
100
AcDbCircle
 10
9.294912286250771
 20
-141.6377004815377
 40
1.160264753235227
  0
ENDBLK
  5
B4
330
B2
100
AcDbEntity
  8
0
100
AcDbBlockEnd
  0
BLOCK
  5
B6
330
B5
100
AcDbEntity
  8
0
100
AcDbBlockBegin
  2
junction-16
 70
    0
 10
0
 20
0
  3
junction-16
  1

  0
CIRCLE
  5
223
100
AcDbEntity
  8
schematic
  6
ByLayer
 62
  256
370
   -1
100
AcDbCircle
 10
46.60070327941209
 20
-15.88760129750498
 40
1.160264753235227
  0
ENDBLK
  5
B7
330
B5
100
AcDbEntity
  8
0
100
AcDbBlockEnd
  0
BLOCK
  5
B9
330
B8
100
AcDbEntity
  8
0
100
AcDbBlockBegin
  2
junction-17
 70
    0
 10
0
 20
0
  3
junction-17
  1

  0
CIRCLE
  5
224
100
AcDbEntity
  8
schematic
  6
ByLayer
 62
  256
370
   -1
100
AcDbCircle
 10
62.42777266716708
 20
-16.44620374648449
 40
1.160264753235227
  0
ENDBLK
  5
BA
330
B8
100
AcDbEntity
  8
0
100
AcDbBlockEnd
  0
BLOCK
  5
BC
330
BB
100
AcDbEntity
  8
0
100
AcDbBlockBegin
  2
r1-2
 70
    0
 10
0
 20
0
  3
r1-2
  1

  0
POINT
  5
225
100
AcDbEntity
  8
schematic
  6
CONTINUOUS
 62
    7
370
   70
100
AcDbPoint
 10
62.10575972375869
 20
-38.48204736344928
  0
POINT
  5
226
100
AcDbEntity
  8
schematic
  6
CONTINUOUS
 62
    7
370
   70
100
AcDbPoint
 10
62.10575972375869
 20
-24.98204736344928
  0
LINE
  5
227
100
AcDbEntity
  8
schematic
  6
CONTINUOUS
 62
    7
370
   25
100
AcDbLine
 10
56.7057597237587
 20
-34.43204736344929
 11
56.7057597237587
 21
-29.03204736344928
  0
LINE
  5
228
100
AcDbEntity
  8
schematic
  6
CONTINUOUS
 62
    7
370
   25
100
AcDbLine
 10
67.5057597237587
 20
-34.43204736344929
 11
67.5057597237587
 21
-29.03204736344928
  0
LINE
  5
229
100
AcDbEntity
  8
schematic
  6
CONTINUOUS
 62
    7
370
   25
100
AcDbLine
 10
67.5057597237587
 20
-29.03204736344928
 11
56.7057597237587
 21
-29.03204736344928
  0
LINE
  5
22A
100
AcDbEntity
  8
schematic
  6
CONTINUOUS
 62
    7
370
   25
100
AcDbLine
 10
56.7057597237587
 20
-34.43204736344929
 11
67.5057597237587
 21
-34.43204736344929
  0
LINE
  5
22B
100
AcDbEntity
  8
schematic
  6
CONTINUOUS
 62
    7
370
   25
100
AcDbLine
 10
62.10575972375869
 20
-24.98204736344928
 11
62.10575972375869
 21
-29.03204736344928
  0
LINE
  5
22C
100
AcDbEntity
  8
schematic
  6
CONTINUOUS
 62
    7
370
   25
100
AcDbLine
 10
62.10575972375869
 20
-34.43204736344929
 11
62.10575972375869
 21
-38.48204736344928
  0
ENDBLK
  5
BD
330
BB
100
AcDbEntity
  8
0
100
AcDbBlockEnd
  0
BLOCK
  5
BF
330
BE
100
AcDbEntity
  8
0
100
AcDbBlockBegin
  2
r1-3
 70
    0
 10
0
 20
0
  3
r1-3
  1

  0
POINT
  5
22D
100
AcDbEntity
  8
schematic
  6
CONTINUOUS
 62
    7
370
   70
100
AcDbPoint
 10
46.85218885028917
 20
-38.3867125454901
  0
POINT
  5
22E
100
AcDbEntity
  8
schematic
  6
CONTINUOUS
 62
    7
370
   70
100
AcDbPoint
 10
46.85218885028917
 20
-24.8867125454901
  0
LINE
  5
22F
100
AcDbEntity
  8
schematic
  6
CONTINUOUS
 62
    7
370
   25
100
AcDbLine
 10
41.45218885028917
 20
-34.3367125454901
 11
41.45218885028917
 21
-28.9367125454901
  0
LINE
  5
230
100
AcDbEntity
  8
schematic
  6
CONTINUOUS
 62
    7
370
   25
100
AcDbLine
 10
52.25218885028917
 20
-34.3367125454901
 11
52.25218885028917
 21
-28.9367125454901
  0
LINE
  5
231
100
AcDbEntity
  8
schematic
  6
CONTINUOUS
 62
    7
370
   25
100
AcDbLine
 10
52.25218885028917
 20
-28.9367125454901
 11
41.45218885028917
 21
-28.9367125454901
  0
LINE
  5
232
100
AcDbEntity
  8
schematic
  6
CONTINUOUS
 62
    7
370
   25
100
AcDbLine
 10
41.45218885028917
 20
-34.3367125454901
 11
52.25218885028917
 21
-34.3367125454901
  0
LINE
  5
233
100
AcDbEntity
  8
schematic
  6
CONTINUOUS
 62
    7
370
   25
100
AcDbLine
 10
46.85218885028917
 20
-24.8867125454901
 11
46.85218885028917
 21
-28.9367125454901
  0
LINE
  5
234
100
AcDbEntity
  8
schematic
  6
CONTINUOUS
 62
    7
370
   25
100
AcDbLine
 10
46.85218885028917
 20
-34.3367125454901
 11
46.85218885028917
 21
-38.3867125454901
  0
ENDBLK
  5
C0
330
BE
100
AcDbEntity
  8
0
100
AcDbBlockEnd
  0
BLOCK
  5
C2
330
C1
100
AcDbEntity
  8
0
100
AcDbBlockBegin
  2
r1-4
 70
    0
 10
0
 20
0
  3
r1-4
  1

  0
POINT
  5
235
100
AcDbEntity
  8
schematic
  6
CONTINUOUS
 62
    7
370
   70
100
AcDbPoint
 10
75.92930832784111
 20
-38.67271699936748
  0
POINT
  5
236
100
AcDbEntity
  8
schematic
  6
CONTINUOUS
 62
    7
370
   70
100
AcDbPoint
 10
75.92930832784111
 20
-25.17271699936748
  0
LINE
  5
237
100
AcDbEntity
  8
schematic
  6
CONTINUOUS
 62
    7
370
   25
100
AcDbLine
 10
70.52930832784111
 20
-34.62271699936748
 11
70.52930832784112
 21
-29.22271699936748
  0
LINE
  5
238
100
AcDbEntity
  8
schematic
  6
CONTINUOUS
 62
    7
370
   25
100
AcDbLine
 10
81.32930832784112
 20
-34.62271699936748
 11
81.32930832784112
 21
-29.22271699936748
  0
LINE
  5
239
100
AcDbEntity
  8
schematic
  6
CONTINUOUS
 62
    7
370
   25
100
AcDbLine
 10
81.32930832784112
 20
-29.22271699936748
 11
70.52930832784112
 21
-29.22271699936748
  0
LINE
  5
23A
100
AcDbEntity
  8
schematic
  6
CONTINUOUS
 62
    7
370
   25
100
AcDbLine
 10
70.52930832784111
 20
-34.62271699936748
 11
81.32930832784112
 21
-34.62271699936748
  0
LINE
  5
23B
100
AcDbEntity
  8
schematic
  6
CONTINUOUS
 62
    7
370
   25
100
AcDbLine
 10
75.92930832784111
 20
-25.17271699936748
 11
75.92930832784111
 21
-29.22271699936748
  0
LINE
  5
23C
100
AcDbEntity
  8
schematic
  6
CONTINUOUS
 62
    7
370
   25
100
AcDbLine
 10
75.92930832784111
 20
-34.62271699936748
 11
75.92930832784111
 21
-38.67271699936748
  0
ENDBLK
  5
C3
330
C1
100
AcDbEntity
  8
0
100
AcDbBlockEnd
  0
BLOCK
  5
C5
330
C4
100
AcDbEntity
  8
0
100
AcDbBlockBegin
  2
mcp2014x-connector-9
 70
    0
 10
0
 20
0
  3
mcp2014x-connector-9
  1

  0
LINE
  5
23D
100
AcDbEntity
  8
schematic
  6
ByLayer
 62
  256
370
   -1
100
AcDbLine
 10
44.19470723772453
 20
-93.73560570477096
 11
49.81970723772453
 21
-93.73560570477096
  0
LINE
  5
23E
100
AcDbEntity
  8
schematic
  6
ByLayer
 62
  256
370
   -1
100
AcDbLine
 10
49.81970723772453
 20
-93.73560570477096
 11
49.81970723772453
 21
-99.29029320477096
  0
LINE
  5
23F
100
AcDbEntity
  8
schematic
  6
ByLayer
 62
  256
370
   -1
100
AcDbLine
 10
49.81970723772453
 20
-99.29029320477096
 11
44.19470723772453
 21
-99.29029320477096
  0
LINE
  5
240
100
AcDbEntity
  8
schematic
  6
ByLayer
 62
  256
370
   -1
100
AcDbLine
 10
44.19470723772453
 20
-99.29029320477096
 11
44.19470723772453
 21
-93.73560570477096
  0
ENDBLK
  5
C6
330
C4
100
AcDbEntity
  8
0
100
AcDbBlockEnd
  0
BLOCK
  5
C8
330
C7
100
AcDbEntity
  8
0
100
AcDbBlockBegin
  2
mcp2014x-connector-10
 70
    0
 10
0
 20
0
  3
mcp2014x-connector-10
  1

  0
LINE
  5
241
100
AcDbEntity
  8
schematic
  6
ByLayer
 62
  256
370
   -1
100
AcDbLine
 10
59.49470723772448
 20
-93.73560570477096
 11
65.11970723772448
 21
-93.73560570477096
  0
LINE
  5
242
100
AcDbEntity
  8
schematic
  6
ByLayer
 62
  256
370
   -1
100
AcDbLine
 10
65.11970723772448
 20
-93.73560570477096
 11
65.11970723772448
 21
-99.29029320477096
  0
LINE
  5
243
100
AcDbEntity
  8
schematic
  6
ByLayer
 62
  256
370
   -1
100
AcDbLine
 10
65.11970723772448
 20
-99.29029320477096
 11
59.49470723772448
 21
-99.29029320477096
  0
LINE
  5
244
100
AcDbEntity
  8
schematic
  6
ByLayer
 62
  256
370
   -1
100
AcDbLine
 10
59.49470723772448
 20
-99.29029320477096
 11
59.49470723772448
 21
-93.73560570477096
  0
ENDBLK
  5
C9
330
C7
100
AcDbEntity
  8
0
100
AcDbBlockEnd
  0
BLOCK
  5
CB
330
CA
100
AcDbEntity
  8
0
100
AcDbBlockBegin
  2
mcp2014x-connector-11
 70
    0
 10
0
 20
0
  3
mcp2014x-connector-11
  1

  0
LINE
  5
245
100
AcDbEntity
  8
schematic
  6
ByLayer
 62
  256
370
   -1
100
AcDbLine
 10
72.99470723772448
 20
-93.73560570477096
 11
78.61970723772448
 21
-93.73560570477096
  0
LINE
  5
246
100
AcDbEntity
  8
schematic
  6
ByLayer
 62
  256
370
   -1
100
AcDbLine
 10
78.61970723772448
 20
-93.73560570477096
 11
78.61970723772448
 21
-99.29029320477096
  0
LINE
  5
247
100
AcDbEntity
  8
schematic
  6
ByLayer
 62
  256
370
   -1
100
AcDbLine
 10
78.61970723772448
 20
-99.29029320477096
 11
72.99470723772448
 21
-99.29029320477096
  0
LINE
  5
248
100
AcDbEntity
  8
schematic
  6
ByLayer
 62
  256
370
   -1
100
AcDbLine
 10
72.99470723772448
 20
-99.29029320477096
 11
72.99470723772448
 21
-93.73560570477096
  0
ENDBLK
  5
CC
330
CA
100
AcDbEntity
  8
0
100
AcDbBlockEnd
  0
BLOCK
  5
CE
330
CD
100
AcDbEntity
  8
0
100
AcDbBlockBegin
  2
diodo_bobina-1
 70
    0
 10
0
 20
0
  3
diodo_bobina-1
  1

  0
LINE
  5
249
100
AcDbEntity
  8
schematic
  6
CONTINUOUS
 62
    7
370
   25
100
AcDbLine
 10
66.12888904163236
 20
-33.600904683941
 11
66.12888904163236
 21
-30.00090468394099
  0
LINE
  5
24A
100
AcDbEntity
  8
schematic
  6
CONTINUOUS
 62
    7
370
   25
100
AcDbLine
 10
66.12888904163236
 20
-31.080904683941
 11
66.84888904163236
 21
-32.520904683941
  0
LINE
  5
24B
100
AcDbEntity
  8
schematic
  6
CONTINUOUS
 62
    7
370
   25
100
AcDbLine
 10
66.84888904163236
 20
-32.520904683941
 11
65.40888904163236
 21
-32.520904683941
  0
LINE
  5
24C
100
AcDbEntity
  8
schematic
  6
CONTINUOUS
 62
    7
370
   25
100
AcDbLine
 10
65.40888904163236
 20
-32.520904683941
 11
66.12888904163236
 21
-31.080904683941
  0
LINE
  5
24D
100
AcDbEntity
  8
schematic
  6
CONTINUOUS
 62
    7
370
   25
100
AcDbLine
 10
66.84888904163236
 20
-31.080904683941
 11
65.40888904163236
 21
-31.080904683941
  0
ENDBLK
  5
CF
330
CD
100
AcDbEntity
  8
0
100
AcDbBlockEnd
  0
BLOCK
  5
D1
330
D0
100
AcDbEntity
  8
0
100
AcDbBlockBegin
  2
diodo_bobina-2
 70
    0
 10
0
 20
0
  3
diodo_bobina-2
  1

  0
LINE
  5
24E
100
AcDbEntity
  8
schematic
  6
CONTINUOUS
 62
    7
370
   25
100
AcDbLine
 10
79.85710282775477
 20
-33.7534403926756
 11
79.85710282775477
 21
-30.1534403926756
  0
LINE
  5
24F
100
AcDbEntity
  8
schematic
  6
CONTINUOUS
 62
    7
370
   25
100
AcDbLine
 10
79.85710282775477
 20
-31.2334403926756
 11
80.57710282775477
 21
-32.6734403926756
  0
LINE
  5
250
100
AcDbEntity
  8
schematic
  6
CONTINUOUS
 62
    7
370
   25
100
AcDbLine
 10
80.57710282775477
 20
-32.6734403926756
 11
79.13710282775477
 21
-32.6734403926756
  0
LINE
  5
251
100
AcDbEntity
  8
schematic
  6
CONTINUOUS
 62
    7
370
   25
100
AcDbLine
 10
79.13710282775477
 20
-32.6734403926756
 11
79.85710282775477
 21
-31.2334403926756
  0
LINE
  5
252
100
AcDbEntity
  8
schematic
  6
CONTINUOUS
 62
    7
370
   25
100
AcDbLine
 10
80.57710282775477
 20
-31.2334403926756
 11
79.13710282775477
 21
-31.2334403926756
  0
ENDBLK
  5
D2
330
D0
100
AcDbEntity
  8
0
100
AcDbBlockEnd
  0
BLOCK
  5
D4
330
D3
100
AcDbEntity
  8
0
100
AcDbBlockBegin
  2
diodo_bobina-3
 70
    0
 10
0
 20
0
  3
diodo_bobina-3
  1

  0
LINE
  5
253
100
AcDbEntity
  8
schematic
  6
CONTINUOUS
 62
    7
370
   25
100
AcDbLine
 10
50.87531816816301
 20
-33.52463682957358
 11
50.87531816816301
 21
-29.92463682957358
  0
LINE
  5
254
100
AcDbEntity
  8
schematic
  6
CONTINUOUS
 62
    7
370
   25
100
AcDbLine
 10
50.87531816816301
 20
-31.00463682957358
 11
51.595318168163
 21
-32.44463682957358
  0
LINE
  5
255
100
AcDbEntity
  8
schematic
  6
CONTINUOUS
 62
    7
370
   25
100
AcDbLine
 10
51.595318168163
 20
-32.44463682957358
 11
50.15531816816301
 21
-32.44463682957358
  0
LINE
  5
256
100
AcDbEntity
  8
schematic
  6
CONTINUOUS
 62
    7
370
   25
100
AcDbLine
 10
50.15531816816301
 20
-32.44463682957358
 11
50.87531816816301
 21
-31.00463682957358
  0
LINE
  5
257
100
AcDbEntity
  8
schematic
  6
CONTINUOUS
 62
    7
370
   25
100
AcDbLine
 10
51.595318168163
 20
-31.00463682957358
 11
50.15531816816301
 21
-31.00463682957358
  0
ENDBLK
  5
D5
330
D3
100
AcDbEntity
  8
0
100
AcDbBlockEnd
  0
BLOCK
  5
D7
330
D6
100
AcDbEntity
  8
0
100
AcDbBlockBegin
  2
r1-5
 70
    0
 10
0
 20
0
  3
r1-5
  1

  0
POINT
  5
258
100
AcDbEntity
  8
schematic
  6
CONTINUOUS
 62
    7
370
   70
100
AcDbPoint
 10
97.50420590787149
 20
-38.67271699936748
  0
POINT
  5
259
100
AcDbEntity
  8
schematic
  6
CONTINUOUS
 62
    7
370
   70
100
AcDbPoint
 10
97.50420590787149
 20
-25.17271699936748
  0
LINE
  5
25A
100
AcDbEntity
  8
schematic
  6
CONTINUOUS
 62
    7
370
   25
100
AcDbLine
 10
92.10420590787149
 20
-34.62271699936748
 11
92.1042059078715
 21
-29.22271699936748
  0
LINE
  5
25B
100
AcDbEntity
  8
schematic
  6
CONTINUOUS
 62
    7
370
   25
100
AcDbLine
 10
102.9042059078715
 20
-34.62271699936748
 11
102.9042059078715
 21
-29.22271699936748
  0
LINE
  5
25C
100
AcDbEntity
  8
schematic
  6
CONTINUOUS
 62
    7
370
   25
100
AcDbLine
 10
102.9042059078715
 20
-29.22271699936748
 11
92.1042059078715
 21
-29.22271699936748
  0
LINE
  5
25D
100
AcDbEntity
  8
schematic
  6
CONTINUOUS
 62
    7
370
   25
100
AcDbLine
 10
92.10420590787149
 20
-34.62271699936748
 11
102.9042059078715
 21
-34.62271699936748
  0
LINE
  5
25E
100
AcDbEntity
  8
schematic
  6
CONTINUOUS
 62
    7
370
   25
100
AcDbLine
 10
97.50420590787149
 20
-25.17271699936748
 11
97.50420590787149
 21
-29.22271699936748
  0
LINE
  5
25F
100
AcDbEntity
  8
schematic
  6
CONTINUOUS
 62
    7
370
   25
100
AcDbLine
 10
97.50420590787149
 20
-34.62271699936748
 11
97.50420590787149
 21
-38.67271699936748
  0
ENDBLK
  5
D8
330
D6
100
AcDbEntity
  8
0
100
AcDbBlockEnd
  0
BLOCK
  5
DA
330
D9
100
AcDbEntity
  8
0
100
AcDbBlockBegin
  2
mcp2014x-connector-12
 70
    0
 10
0
 20
0
  3
mcp2014x-connector-12
  1

  0
LINE
  5
260
100
AcDbEntity
  8
schematic
  6
ByLayer
 62
  256
370
   -1
100
AcDbLine
 10
94.56960481775492
 20
-93.73560570477096
 11
100.1946048177549
 21
-93.73560570477096
  0
LINE
  5
261
100
AcDbEntity
  8
schematic
  6
ByLayer
 62
  256
370
   -1
100
AcDbLine
 10
100.1946048177549
 20
-93.73560570477096
 11
100.1946048177549
 21
-99.29029320477096
  0
LINE
  5
262
100
AcDbEntity
  8
schematic
  6
ByLayer
 62
  256
370
   -1
100
AcDbLine
 10
100.1946048177549
 20
-99.29029320477096
 11
94.56960481775492
 21
-99.29029320477096
  0
LINE
  5
263
100
AcDbEntity
  8
schematic
  6
ByLayer
 62
  256
370
   -1
100
AcDbLine
 10
94.56960481775492
 20
-99.29029320477096
 11
94.56960481775492
 21
-93.73560570477096
  0
ENDBLK
  5
DB
330
D9
100
AcDbEntity
  8
0
100
AcDbBlockEnd
  0
BLOCK
  5
DD
330
DC
100
AcDbEntity
  8
0
100
AcDbBlockBegin
  2
diodo_bobina-4
 70
    0
 10
0
 20
0
  3
diodo_bobina-4
  1

  0
LINE
  5
264
100
AcDbEntity
  8
schematic
  6
CONTINUOUS
 62
    7
370
   25
100
AcDbLine
 10
101.4320004077852
 20
-33.7534403926756
 11
101.4320004077852
 21
-30.1534403926756
  0
LINE
  5
265
100
AcDbEntity
  8
schematic
  6
CONTINUOUS
 62
    7
370
   25
100
AcDbLine
 10
101.4320004077852
 20
-31.2334403926756
 11
102.1520004077852
 21
-32.6734403926756
  0
LINE
  5
266
100
AcDbEntity
  8
schematic
  6
CONTINUOUS
 62
    7
370
   25
100
AcDbLine
 10
102.1520004077852
 20
-32.6734403926756
 11
100.7120004077852
 21
-32.6734403926756
  0
LINE
  5
267
100
AcDbEntity
  8
schematic
  6
CONTINUOUS
 62
    7
370
   25
100
AcDbLine
 10
100.7120004077852
 20
-32.6734403926756
 11
101.4320004077852
 21
-31.2334403926756
  0
LINE
  5
268
100
AcDbEntity
  8
schematic
  6
CONTINUOUS
 62
    7
370
   25
100
AcDbLine
 10
102.1520004077852
 20
-31.2334403926756
 11
100.7120004077852
 21
-31.2334403926756
  0
ENDBLK
  5
DE
330
DC
100
AcDbEntity
  8
0
100
AcDbBlockEnd
  0
BLOCK
  5
E0
330
DF
100
AcDbEntity
  8
0
100
AcDbBlockBegin
  2
junction-5
 70
    0
 10
0
 20
0
  3
junction-5
  1

  0
CIRCLE
  5
269
100
AcDbEntity
  8
labels
  6
ByLayer
 62
  256
370
   -1
100
AcDbCircle
 10
40.11077336950457
 20
-110.5951010218055
 40
1.289183059150252
  0
ENDBLK
  5
E1
330
DF
100
AcDbEntity
  8
0
100
AcDbBlockEnd
  0
BLOCK
  5
E3
330
E2
100
AcDbEntity
  8
0
100
AcDbBlockBegin
  2
junction-6
 70
    0
 10
0
 20
0
  3
junction-6
  1

  0
CIRCLE
  5
26A
100
AcDbEntity
  8
labels
  6
ByLayer
 62
  256
370
   -1
100
AcDbCircle
 10
75.80208434511441
 20
-16.594148277903
 40
1.289183059150252
  0
ENDBLK
  5
E4
330
E2
100
AcDbEntity
  8
0
100
AcDbBlockEnd
  0
BLOCK
  5
E6
330
E5
100
AcDbEntity
  8
0
100
AcDbBlockBegin
  2
junction-7
 70
    0
 10
0
 20
0
  3
junction-7
  1

  0
CIRCLE
  5
26B
100
AcDbEntity
  8
labels
  6
ByLayer
 62
  256
370
   -1
100
AcDbCircle
 10
25.37773221096798
 20
-44.6076772413177
 40
1.289183059150252
  0
ENDBLK
  5
E7
330
E5
100
AcDbEntity
  8
0
100
AcDbBlockEnd
  0
BLOCK
  5
E9
330
E8
100
AcDbEntity
  8
0
100
AcDbBlockBegin
  2
junction-8
 70
    0
 10
0
 20
0
  3
junction-8
  1

  0
CIRCLE
  5
26C
100
AcDbEntity
  8
labels
  6
ByLayer
 62
  256
370
   -1
100
AcDbCircle
 10
76.00959196706562
 20
-44.6076772413177
 40
1.289183059150252
  0
ENDBLK
  5
EA
330
E8
100
AcDbEntity
  8
0
100
AcDbBlockEnd
  0
BLOCK
  5
EC
330
EB
100
AcDbEntity
  8
0
100
AcDbBlockBegin
  2
junction-9
 70
    0
 10
0
 20
0
  3
junction-9
  1

  0
CIRCLE
  5
26D
100
AcDbEntity
  8
labels
  6
ByLayer
 62
  256
370
   -1
100
AcDbCircle
 10
97.59038464999237
 20
-44.6076772413177
 40
1.289183059150252
  0
ENDBLK
  5
ED
330
EB
100
AcDbEntity
  8
0
100
AcDbBlockEnd
  0
BLOCK
  5
EF
330
EE
100
AcDbEntity
  8
0
100
AcDbBlockBegin
  2
junction-10
 70
    0
 10
0
 20
0
  3
junction-10
  1

  0
CIRCLE
  5
26E
100
AcDbEntity
  8
0
  6
ByLayer
 62
  256
370
   -1
100
AcDbCircle
 10
-0.05958860800000003
 20
-0.1342767104000001
 40
1.289183059150252
  0
ENDBLK
  5
F0
330
EE
100
AcDbEntity
  8
0
100
AcDbBlockEnd
  0
BLOCK
  5
F2
330
F1
100
AcDbEntity
  8
0
100
AcDbBlockBegin
  2
junction-11
 70
    0
 10
0
 20
0
  3
junction-11
  1

  0
CIRCLE
  5
26F
100
AcDbEntity
  8
0
  6
ByLayer
 62
  256
370
   -1
100
AcDbCircle
 10
-0.05958860800000003
 20
-0.1342767104000001
 40
1.289183059150252
  0
ENDBLK
  5
F3
330
F1
100
AcDbEntity
  8
0
100
AcDbBlockEnd
  0
BLOCK
  5
F5
330
F4
100
AcDbEntity
  8
0
100
AcDbBlockBegin
  2
junction-12
 70
    0
 10
0
 20
0
  3
junction-12
  1

  0
CIRCLE
  5
270
100
AcDbEntity
  8
0
  6
ByLayer
 62
  256
370
   -1
100
AcDbCircle
 10
-0.05958860800000003
 20
-0.1342767104000001
 40
1.289183059150252
  0
ENDBLK
  5
F6
330
F4
100
AcDbEntity
  8
0
100
AcDbBlockEnd
  0
BLOCK
  5
F8
330
F7
100
AcDbEntity
  8
0
100
AcDbBlockBegin
  2
junction-13
 70
    0
 10
0
 20
0
  3
junction-13
  1

  0
CIRCLE
  5
271
100
AcDbEntity
  8
0
  6
ByLayer
 62
  256
370
   -1
100
AcDbCircle
 10
-0.05958860800000003
 20
-0.1342767104000001
 40
1.289183059150252
  0
ENDBLK
  5
F9
330
F7
100
AcDbEntity
  8
0
100
AcDbBlockEnd
  0
BLOCK
  5
FB
330
FA
100
AcDbEntity
  8
0
100
AcDbBlockBegin
  2
junction-18
 70
    0
 10
0
 20
0
  3
junction-18
  1

  0
CIRCLE
  5
272
100
AcDbEntity
  8
0
  6
ByLayer
 62
  256
370
   -1
100
AcDbCircle
 10
-0.05958860800000003
 20
-0.1342767104000001
 40
1.289183059150252
  0
ENDBLK
  5
FC
330
FA
100
AcDbEntity
  8
0
100
AcDbBlockEnd
  0
BLOCK
  5
FE
330
FD
100
AcDbEntity
  8
0
100
AcDbBlockBegin
  2
junction-19
 70
    0
 10
0
 20
0
  3
junction-19
  1

  0
CIRCLE
  5
273
100
AcDbEntity
  8
0
  6
ByLayer
 62
  256
370
   -1
100
AcDbCircle
 10
-0.05958860800000003
 20
-0.1342767104000001
 40
1.289183059150252
  0
ENDBLK
  5
FF
330
FD
100
AcDbEntity
  8
0
100
AcDbBlockEnd
  0
BLOCK
  5
101
330
100
100
AcDbEntity
  8
0
100
AcDbBlockBegin
  2
junction-20
 70
    0
 10
0
 20
0
  3
junction-20
  1

  0
CIRCLE
  5
274
100
AcDbEntity
  8
0
  6
ByLayer
 62
  256
370
   -1
100
AcDbCircle
 10
-0.05958860800000003
 20
-0.1342767104000001
 40
1.289183059150252
  0
ENDBLK
  5
102
330
100
100
AcDbEntity
  8
0
100
AcDbBlockEnd
  0
BLOCK
  5
104
330
103
100
AcDbEntity
  8
0
100
AcDbBlockBegin
  2
junction-21
 70
    0
 10
0
 20
0
  3
junction-21
  1

  0
CIRCLE
  5
275
100
AcDbEntity
  8
0
  6
ByLayer
 62
  256
370
   -1
100
AcDbCircle
 10
-0.05958860800000003
 20
-0.1342767104000001
 40
1.289183059150252
  0
ENDBLK
  5
105
330
103
100
AcDbEntity
  8
0
100
AcDbBlockEnd
  0
BLOCK
  5
107
330
106
100
AcDbEntity
  8
0
100
AcDbBlockBegin
  2
junction-22
 70
    0
 10
0
 20
0
  3
junction-22
  1

  0
CIRCLE
  5
276
100
AcDbEntity
  8
0
  6
ByLayer
 62
  256
370
   -1
100
AcDbCircle
 10
-0.05958860800000003
 20
-0.1342767104000001
 40
1.289183059150252
  0
ENDBLK
  5
108
330
106
100
AcDbEntity
  8
0
100
AcDbBlockEnd
  0
BLOCK
  5
10A
330
109
100
AcDbEntity
  8
0
100
AcDbBlockBegin
  2
junction-23
 70
    0
 10
0
 20
0
  3
junction-23
  1

  0
CIRCLE
  5
277
100
AcDbEntity
  8
0
  6
ByLayer
 62
  256
370
   -1
100
AcDbCircle
 10
-0.05958860800000003
 20
-0.1342767104000001
 40
1.289183059150252
  0
ENDBLK
  5
10B
330
109
100
AcDbEntity
  8
0
100
AcDbBlockEnd
  0
BLOCK
  5
10D
330
10C
100
AcDbEntity
  8
0
100
AcDbBlockBegin
  2
junction-24
 70
    0
 10
0
 20
0
  3
junction-24
  1

  0
CIRCLE
  5
278
100
AcDbEntity
  8
0
  6
ByLayer
 62
  256
370
   -1
100
AcDbCircle
 10
-0.05958860800000003
 20
-0.1342767104000001
 40
1.289183059150252
  0
ENDBLK
  5
10E
330
10C
100
AcDbEntity
  8
0
100
AcDbBlockEnd
  0
BLOCK
  5
110
330
10F
100
AcDbEntity
  8
0
100
AcDbBlockBegin
  2
junction-25
 70
    0
 10
0
 20
0
  3
junction-25
  1

  0
CIRCLE
  5
279
100
AcDbEntity
  8
0
  6
ByLayer
 62
  256
370
   -1
100
AcDbCircle
 10
-0.05958860800000003
 20
-0.1342767104000001
 40
1.289183059150252
  0
ENDBLK
  5
111
330
10F
100
AcDbEntity
  8
0
100
AcDbBlockEnd
  0
ENDSEC
  0
SECTION
  2
ENTITIES
  0
INSERT
  5
27A
100
AcDbEntity
  8
0
  6
ByLayer
 62
  256
370
   -1
100
AcDbBlockReference
  2
a3-0
 10
-0.5
 20
0.25
 30
0
 41
1
 42
1
 43
0
 50
0
 70
    1
 71
    1
 44
0
 45
0
  0
LINE
  5
27B
100
AcDbEntity
  8
0
  6
ByLayer
 62
  256
370
   -1
100
AcDbLine
 10
20.3926056338
 20
286.019366197
 11
408.897887324
 21
286.019366197
  0
LINE
  5
27C
100
AcDbEntity
  8
0
  6
ByLayer
 62
  256
370
   -1
100
AcDbLine
 10
408.897887324
 20
286.019366197
 11
408.897887324
 21
12.5492957746
  0
LINE
  5
27D
100
AcDbEntity
  8
0
  6
ByLayer
 62
  256
370
   -1
100
AcDbLine
 10
408.897887324
 20
12.5492957746
 11
20.3926056338
 21
12.5492957746
  0
LINE
  5
27E
100
AcDbEntity
  8
0
  6
ByLayer
 62
  256
370
   -1
100
AcDbLine
 10
20.3926056338
 20
12.5492957746
 11
20.3926056338
 21
286.019366197
  0
LINE
  5
27F
100
AcDbEntity
  8
frame-title
  6
ByLayer
 62
  256
370
   -1
100
AcDbLine
 10
300.137323944
 20
54.9031690141
 11
408.897887324
 21
54.9031690141
  0
LINE
  5
280
100
AcDbEntity
  8
frame-title
  6
ByLayer
 62
  256
370
   -1
100
AcDbLine
 10
300.132357769
 20
12.5492957746
 11
300.132357769
 21
54.9031690141
  0
INSERT
  5
281
100
AcDbEntity
  8
frame-title
  6
ByLayer
 62
  256
370
   -1
100
AcDbBlockReference
  2
eca-logo-1
 10
299.309070423
 20
35.6065352113
 30
0
 41
1
 42
1
 43
0
 50
0
 70
    1
 71
    1
 44
0
 45
0
  0
LINE
  5
282
100
AcDbEntity
  8
help-lines
  6
ByLayer
 62
  256
370
   -1
100
AcDbLine
 10
-0.3706532681816158
 20
148.6319605408279
 11
15.1698729811
 21
148.6319605408279
  0
LINE
  5
283
100
AcDbEntity
  8
help-lines
  6
ByLayer
 62
  256
370
   -1
100
AcDbLine
 10
314.5451730611308
 20
297.224709437482
 11
314.5451730611308
 21
291.580151019
  0
LINE
  5
284
100
AcDbEntity
  8
help-lines
  6
ByLayer
 62
  256
370
   -1
100
AcDbLine
 10
314.4947345867757
 20
0.3389682416326533
 11
314.4947345867757
 21
5.91984898108
  0
MTEXT
  5
285
100
AcDbEntity
  8
frame-title
  6
ByLayer
 62
  256
370
   -1
100
AcDbMText
 10
333.041577465
 20
52.2050704225
 30
0
 40
3
 41
59.50000154286238
 71
    1
 72
    1
  1
ECA Di Belardi\PVia Dei Crispolti 91-93, Roma\PTel. 0643535861
  7
standard
210
0
220
0
230
1
 50
0
 73
    2
 44
1
  0
LINE
  5
286
100
AcDbEntity
  8
help-lines
  6
ByLayer
 62
  256
370
   -1
100
AcDbLine
 10
414.1914734961435
 20
148.2774208543055
 11
419.8613464771435
 21
148.3178403027935
  0
MTEXT
  5
287
100
AcDbEntity
  8
schematic
  6
ByLayer
 62
  256
370
   -1
100
AcDbMText
 10
23.85546582952878
 20
36.05247100226143
 30
0
 40
3
 41
67.91666539465395
 71
    1
 72
    1
  1
PONTICELLARE T1 CON:\PCL - SE DISPLAY COM POSITIVO\PPE - SE DISPLAY COM NEGATIVO
  7
standard
210
0
220
0
230
1
 50
0
 73
    2
 44
1
  0
INSERT
  5
288
100
AcDbEntity
  8
schematic
  6
ByLayer
 62
  256
370
   -1
100
AcDbBlockReference
  2
relay
 10
143.9617571912093
 20
160.6268863077111
 30
0
 41
1
 42
1
 43
0
 50
0
 70
    1
 71
    1
 44
0
 45
0
  0
INSERT
  5
289
100
AcDbEntity
  8
schematic
  6
ByLayer
 62
  256
370
   -1
100
AcDbBlockReference
  2
relay-0
 10
179.5776108497459
 20
161.2305448442964
 30
0
 41
1
 42
1
 43
0
 50
0
 70
    1
 71
    1
 44
0
 45
0
  0
LINE
  5
28A
100
AcDbEntity
  8
schematic
  6
ByLayer
 62
  256
370
   -1
100
AcDbLine
 10
144.0560788375507
 20
255.2998807817964
 11
144.0560788375507
 21
251.5329100310342
  0
LINE
  5
28B
100
AcDbEntity
  8
schematic
  6
ByLayer
 62
  256
370
   -1
100
AcDbLine
 10
144.0560788375507
 20
239.7297350119794
 11
144.0560788375507
 21
230.6890052101502
  0
LINE
  5
28C
100
AcDbEntity
  8
schematic
  6
ByLayer
 62
  256
370
   -1
100
AcDbLine
 10
148.074180971697
 20
230.6890052101502
 11
144.0560788375507
 21
222.9039323252416
  0
LINE
  5
28D
100
AcDbEntity
  8
schematic
  6
ByLayer
 62
  256
370
   -1
100
AcDbLine
 10
144.0560788375507
 20
222.9039323252416
 11
144.0560788375507
 21
212.3564142231075
  0
INSERT
  5
28E
100
AcDbEntity
  8
schematic
  6
ByLayer
 62
  256
370
   -1
100
AcDbBlockReference
  2
mcp2014x-connector-0
 10
141.0425022369409
 20
243.9989685295099
 30
0
 41
1
 42
1
 43
0
 50
0
 70
    1
 71
    1
 44
1
 45
1
  0
INSERT
  5
28F
100
AcDbEntity
  8
schematic
  6
ByLayer
 62
  256
370
   -1
100
AcDbBlockReference
  2
mcp2014x-connector-0
 10
141.0425022369409
 20
207.0826551720403
 30
0
 41
1
 42
1
 43
0
 50
0
 70
    1
 71
    1
 44
1
 45
1
  0
LINE
  5
290
100
AcDbEntity
  8
schematic
  6
ByLayer
 62
  256
370
   -1
100
AcDbLine
 10
144.0560788375507
 20
199.7998450539002
 11
144.0560788375507
 21
205.5758668717355
  0
LINE
  5
291
100
AcDbEntity
  8
schematic
  6
ByLayer
 62
  256
370
   -1
100
AcDbLine
 10
144.0560788375507
 20
242.492180229205
 11
144.0560788375507
 21
237.9718153282903
  0
LINE
  5
292
100
AcDbEntity
  8
schematic
  6
ByLayer
 62
  256
370
   -1
100
AcDbLine
 10
144.0560788375507
 20
237.9718153282903
 11
179.4656038947153
 21
237.9718153282903
  0
LINE
  5
293
100
AcDbEntity
  8
schematic
  6
ByLayer
 62
  256
370
   -1
100
AcDbLine
 10
179.4656038947153
 20
239.7297350119794
 11
179.4656038947153
 21
230.6890052101502
  0
LINE
  5
294
100
AcDbEntity
  8
schematic
  6
ByLayer
 62
  256
370
   -1
100
AcDbLine
 10
183.4837060288617
 20
230.6890052101502
 11
179.4656038947153
 21
222.9039323252416
  0
LINE
  5
295
100
AcDbEntity
  8
schematic
  6
ByLayer
 62
  256
370
   -1
100
AcDbLine
 10
179.4656038947153
 20
222.9039323252416
 11
179.4656038947153
 21
212.3564142231075
  0
INSERT
  5
296
100
AcDbEntity
  8
schematic
  6
ByLayer
 62
  256
370
   -1
100
AcDbBlockReference
  2
mcp2014x-connector-0
 10
176.4520272941056
 20
207.0826551720403
 30
0
 41
1
 42
1
 43
0
 50
0
 70
    1
 71
    1
 44
1
 45
1
  0
LINE
  5
297
100
AcDbEntity
  8
schematic
  6
ByLayer
 62
  256
370
   -1
100
AcDbLine
 10
179.4656038947153
 20
199.7998450539002
 11
179.4656038947153
 21
205.5758668717355
  0
LINE
  5
298
100
AcDbEntity
  8
schematic
  6
ByLayer
 62
  256
370
   -1
100
AcDbLine
 10
143.8049474541665
 20
160.121086479205
 11
179.4656038947153
 21
160.121086479205
  0
LINE
  5
299
100
AcDbEntity
  8
schematic
  6
ByLayer
 62
  256
370
   -1
100
AcDbLine
 10
179.4656038947153
 20
160.121086479205
 11
179.4656038947153
 21
162.3812689296624
  0
LINE
  5
29A
100
AcDbEntity
  8
schematic
  6
ByLayer
 62
  256
370
   -1
100
AcDbLine
 10
179.4656038947153
 20
162.3812689296624
 11
179.4656038947153
 21
148.8201742269185
  0
INSERT
  5
29B
100
AcDbEntity
  8
schematic
  6
ByLayer
 62
  256
370
   -1
100
AcDbBlockReference
  2
Terminal-in
 10
179.4297691543091
 20
150.9387865291678
 30
0
 41
1
 42
1
 43
0
 50
180
 70
    1
 71
    1
 44
0
 45
0
  0
INSERT
  5
29C
100
AcDbEntity
  8
schematic
  6
ByLayer
 62
  256
370
   -1
100
AcDbBlockReference
  2
junction-0
 10
179.7167352780995
 20
160.121086479205
 30
0
 41
1
 42
1
 43
0
 50
0
 70
    1
 71
    1
 44
1
 45
1
  0
MTEXT
  5
29D
100
AcDbEntity
  8
schematic
  6
ByLayer
 62
  256
370
   -1
100
AcDbMText
 10
142.5492905372457
 20
248.7704648138087
 30
0
 40
3
 41
3.666666666666666
 71
    1
 72
    1
  1
LE
  7
standard
210
0
220
0
230
1
 50
0
 73
    2
 44
1
  0
MTEXT
  5
29E
100
AcDbEntity
  8
schematic
  6
ByLayer
 62
  256
370
   -1
100
AcDbMText
 10
143.5538160707824
 20
186.4898817345403
 30
0
 40
4
 41
2.666666666666667
 71
    1
 72
    1
  1
X\P1
  7
standard
210
0
220
0
230
1
 50
0
 73
    2
 44
1
  0
MTEXT
  5
29F
100
AcDbEntity
  8
schematic
  6
ByLayer
 62
  256
370
   -1
100
AcDbMText
 10
178.4610783611787
 20
186.9921445013087
 30
0
 40
4
 41
2.666666666666667
 71
    1
 72
    1
  1
X\P2
  7
standard
210
0
220
0
230
1
 50
0
 73
    2
 44
1
  0
MTEXT
  5
2A0
100
AcDbEntity
  8
schematic
  6
ByLayer
 62
  256
370
   -1
100
AcDbMText
 10
147.3207868215446
 20
198.0419253702111
 30
0
 40
3
 41
3.666666666666667
 71
    1
 72
    1
  1
A1\P
  7
standard
210
0
220
0
230
1
 50
0
 73
    2
 44
1
  0
MTEXT
  5
2A1
100
AcDbEntity
  8
schematic
  6
ByLayer
 62
  256
370
   -1
100
AcDbMText
 10
183.2325746454774
 20
197.790793986827
 30
0
 40
3
 41
3.666666666666667
 71
    1
 72
    1
  1
A1\P
  7
standard
210
0
220
0
230
1
 50
0
 73
    2
 44
1
  0
MTEXT
  5
2A2
100
AcDbEntity
  8
schematic
  6
ByLayer
 62
  256
370
   -1
100
AcDbMText
 10
146.8185240547762
 20
164.8925827635038
 30
0
 40
3
 41
4.333333333333333
 71
    1
 72
    1
  1
A2
  7
standard
210
0
220
0
230
1
 50
0
 73
    2
 44
1
  0
MTEXT
  5
2A3
100
AcDbEntity
  8
schematic
  6
ByLayer
 62
  256
370
   -1
100
AcDbMText
 10
182.7303118787092
 20
164.8925827635038
 30
0
 40
3
 41
4.333333333333333
 71
    1
 72
    1
  1
A2
  7
standard
210
0
220
0
230
1
 50
0
 73
    2
 44
1
  0
MTEXT
  5
2A4
100
AcDbEntity
  8
schematic
  6
ByLayer
 62
  256
370
   -1
100
AcDbMText
 10
143.051553304014
 20
211.603020072955
 30
0
 40
3
 41
3
 71
    1
 72
    1
  1
E1
  7
standard
210
0
220
0
230
1
 50
0
 73
    2
 44
1
  0
MTEXT
  5
2A5
100
AcDbEntity
  8
schematic
  6
ByLayer
 62
  256
370
   -1
100
AcDbMText
 10
178.2099469777946
 20
211.603020072955
 30
0
 40
3
 41
3.666666666666666
 71
    1
 72
    1
  1
E2
  7
standard
210
0
220
0
230
1
 50
0
 73
    2
 44
1
  0
LINE
  5
2A6
100
AcDbEntity
  8
schematic
  6
ByLayer
 62
  256
370
   -1
100
AcDbLine
 10
143.8544663184959
 20
160.1517410142661
 11
78.7536660136178
 21
160.1517410142661
  0
LINE
  5
2A7
100
AcDbEntity
  8
schematic
  6
ByLayer
 62
  256
370
   -1
100
AcDbLine
 10
78.7536660136178
 20
160.1517410142661
 11
78.7536660136178
 21
118.5063761133514
  0
LINE
  5
2A8
100
AcDbEntity
  8
schematic
  6
ByLayer
 62
  256
370
   -1
100
AcDbLine
 10
113.2187955867885
 20
118.5063761133514
 11
135.9562074579776
 21
118.5063761133514
  0
LINE
  5
2A9
100
AcDbEntity
  8
schematic
  6
ByLayer
 62
  256
370
   -1
100
AcDbLine
 10
135.9562074579776
 20
118.5063761133514
 11
145.7691957392276
 21
122.5751761324063
  0
LINE
  5
2AA
100
AcDbEntity
  8
schematic
  6
ByLayer
 62
  256
370
   -1
100
AcDbLine
 10
146.2478780944105
 20
118.5063761133514
 11
194.5947959678861
 21
118.5063761133514
  0
LINE
  5
2AB
100
AcDbEntity
  8
schematic
  6
ByLayer
 62
  256
370
   -1
100
AcDbLine
 10
113.2187955867885
 20
106.2999760561868
 11
135.9562074579776
 21
106.2999760561868
  0
LINE
  5
2AC
100
AcDbEntity
  8
schematic
  6
ByLayer
 62
  256
370
   -1
100
AcDbLine
 10
135.9562074579776
 20
106.2999760561868
 11
145.7691957392276
 21
110.3687760752417
  0
LINE
  5
2AD
100
AcDbEntity
  8
schematic
  6
ByLayer
 62
  256
370
   -1
100
AcDbLine
 10
146.008536916819
 20
106.2999760561868
 11
168.7459487880081
 21
106.2999760561868
  0
LINE
  5
2AE
100
AcDbEntity
  8
schematic
  6
ByLayer
 62
  256
370
   -1
100
AcDbLine
 10
168.7459487880081
 20
106.2999760561868
 11
168.7459487880081
 21
118.5063761133514
  0
LINE
  5
2AF
100
AcDbEntity
  8
schematic
  6
ByLayer
 62
  256
370
   -1
100
AcDbLine
 10
135.9562074579776
 20
90.98214069033307
 11
145.7691957392276
 21
95.05094070938794
  0
LINE
  5
2B0
100
AcDbEntity
  8
schematic
  6
ByLayer
 62
  256
370
   -1
100
AcDbLine
 10
146.2478780944105
 20
90.98214069033307
 11
194.5947959678861
 21
90.98214069033307
  0
LINE
  5
2B1
100
AcDbEntity
  8
schematic
  6
ByLayer
 62
  256
370
   -1
100
AcDbLine
 10
135.9562074579776
 20
74.46759943652206
 11
145.7691957392276
 21
78.53639945557694
  0
LINE
  5
2B2
100
AcDbEntity
  8
schematic
  6
ByLayer
 62
  256
370
   -1
100
AcDbLine
 10
146.2478780944105
 20
74.46759943652206
 11
194.5947959678861
 21
74.46759943652206
  0
INSERT
  5
2B3
100
AcDbEntity
  8
schematic
  6
ByLayer
 62
  256
370
   -1
100
AcDbBlockReference
  2
junction-0
 10
168.7459487880083
 20
118.5063761133516
 30
0
 41
1
 42
1
 43
0
 50
0
 70
    1
 71
    1
 44
1
 45
1
  0
INSERT
  5
2B4
100
AcDbEntity
  8
schematic
  6
ByLayer
 62
  256
370
   -1
100
AcDbBlockReference
  2
junction-0
 10
78.75366601361809
 20
118.5063761133516
 30
0
 41
1
 42
1
 43
0
 50
0
 70
    1
 71
    1
 44
1
 45
1
  0
INSERT
  5
2B5
100
AcDbEntity
  8
schematic
  6
ByLayer
 62
  256
370
   -1
100
AcDbBlockReference
  2
junction-0
 10
143.8544663184961
 20
160.1517410142662
 30
0
 41
1
 42
1
 43
0
 50
0
 70
    1
 71
    1
 44
1
 45
1
  0
MTEXT
  5
2B6
100
AcDbEntity
  8
schematic
  6
ByLayer
 62
  256
370
   -1
100
AcDbMText
 10
184.3031253314536
 20
143.8765409380467
 30
0
 40
7
 41
10.11111111111111
 71
    1
 72
    1
  1
TN
  7
standard
210
0
220
0
230
1
 50
0
 73
    2
 44
1
  0
MTEXT
  5
2B7
100
AcDbEntity
  8
schematic
  6
ByLayer
 62
  256
370
   -1
100
AcDbMText
 10
140.0250074770328
 20
104.1459054578637
 30
0
 40
3
 41
3.666666666666667
 71
    1
 72
    1
  1
X1
  7
standard
210
0
220
0
230
1
 50
0
 73
    2
 44
1
  0
MTEXT
  5
2B8
100
AcDbEntity
  8
schematic
  6
ByLayer
 62
  256
370
   -1
100
AcDbMText
 10
140.0250074770328
 20
72.31352883819902
 30
0
 40
3
 41
3.666666666666667
 71
    1
 72
    1
  1
X1
  7
standard
210
0
220
0
230
1
 50
0
 73
    2
 44
1
  0
MTEXT
  5
2B9
100
AcDbEntity
  8
schematic
  6
ByLayer
 62
  256
370
   -1
100
AcDbMText
 10
139.5463251218499
 20
117.5490114029857
 30
0
 40
3
 41
4.333333333333333
 71
    1
 72
    1
  1
X2
  7
standard
210
0
220
0
230
1
 50
0
 73
    2
 44
1
  0
MTEXT
  5
2BA
100
AcDbEntity
  8
schematic
  6
ByLayer
 62
  256
370
   -1
100
AcDbMText
 10
139.5463251218499
 20
89.30675244719293
 30
0
 40
3
 41
4.333333333333333
 71
    1
 72
    1
  1
X2
  7
standard
210
0
220
0
230
1
 50
0
 73
    2
 44
1
  0
INSERT
  5
2BB
100
AcDbEntity
  8
schematic
  6
ByLayer
 62
  256
370
   -1
100
AcDbBlockReference
  2
mcp2014x-connector-0
 10
117.391349416819
 20
244.0944691964307
 30
0
 41
1
 42
1
 43
0
 50
0
 70
    1
 71
    1
 44
1
 45
1
  0
INSERT
  5
2BC
100
AcDbEntity
  8
schematic
  6
ByLayer
 62
  256
370
   -1
100
AcDbBlockReference
  2
mcp2014x-connector-0
 10
99.50796527047763
 20
244.0944691964307
 30
0
 41
1
 42
1
 43
0
 50
0
 70
    1
 71
    1
 44
1
 45
1
  0
INSERT
  5
2BD
100
AcDbEntity
  8
schematic
  6
ByLayer
 62
  256
370
   -1
100
AcDbBlockReference
  2
mcp2014x-connector-0
 10
117.391349416819
 20
207.023704143077
 30
0
 41
1
 42
1
 43
0
 50
0
 70
    1
 71
    1
 44
1
 45
1
  0
INSERT
  5
2BE
100
AcDbEntity
  8
schematic
  6
ByLayer
 62
  256
370
   -1
100
AcDbBlockReference
  2
mcp2014x-connector-0
 10
99.50796527047763
 20
207.023704143077
 30
0
 41
1
 42
1
 43
0
 50
0
 70
    1
 71
    1
 44
1
 45
1
  0
INSERT
  5
2BF
100
AcDbEntity
  8
schematic
  6
ByLayer
 62
  256
370
   -1
100
AcDbBlockReference
  2
mcp2014x-connector-0
 10
53.30922289242879
 20
207.023704143077
 30
0
 41
1
 42
1
 43
0
 50
0
 70
    1
 71
    1
 44
1
 45
1
  0
INSERT
  5
2C0
100
AcDbEntity
  8
schematic
  6
ByLayer
 62
  256
370
   -1
100
AcDbBlockReference
  2
mcp2014x-connector-0
 10
33.7492714823678
 20
207.023704143077
 30
0
 41
1
 42
1
 43
0
 50
0
 70
    1
 71
    1
 44
1
 45
1
  0
LINE
  5
2C1
100
AcDbEntity
  8
schematic
  6
ByLayer
 62
  256
370
   -1
100
AcDbLine
 10
120.7444839442581
 20
251.5458792574063
 11
120.7444839442581
 21
255.2715842878941
  0
LINE
  5
2C2
100
AcDbEntity
  8
schematic
  6
ByLayer
 62
  256
370
   -1
100
AcDbLine
 10
102.8610997979166
 20
251.7321645089307
 11
102.8610997979166
 21
255.2715842878941
  0
INSERT
  5
2C3
100
AcDbEntity
  8
schematic
  6
ByLayer
 62
  256
370
   -1
100
AcDbBlockReference
  2
junction-0
 10
120.9307691957825
 20
255.2715842878941
 30
0
 41
1
 42
1
 43
0
 50
0
 70
    1
 71
    1
 44
1
 45
1
  0
INSERT
  5
2C4
100
AcDbEntity
  8
schematic
  6
ByLayer
 62
  256
370
   -1
100
AcDbBlockReference
  2
junction-0
 10
102.8610997979166
 20
255.2715842878941
 30
0
 41
1
 42
1
 43
0
 50
0
 70
    1
 71
    1
 44
1
 45
1
  0
LINE
  5
2C5
100
AcDbEntity
  8
schematic
  6
ByLayer
 62
  256
370
   -1
100
AcDbLine
 10
102.6748145463922
 20
205.9059926339307
 11
102.6748145463922
 21
160.0798207589307
  0
LINE
  5
2C6
100
AcDbEntity
  8
schematic
  6
ByLayer
 62
  256
370
   -1
100
AcDbLine
 10
120.7444839442581
 20
160.0798207589307
 11
120.7444839442581
 21
205.9059926339307
  0
INSERT
  5
2C7
100
AcDbEntity
  8
schematic
  6
ByLayer
 62
  256
370
   -1
100
AcDbBlockReference
  2
mcp2014x-connector-0
 10
76.1138389366361
 20
207.023704143077
 30
0
 41
1
 42
1
 43
0
 50
0
 70
    1
 71
    1
 44
1
 45
1
  0
LWPOLYLINE
  5
2C8
100
AcDbEntity
  8
schematic
  6
ByLayer
 62
  256
370
   -1
100
AcDbPolyline
 90
    4
 70
    1
 43
0
 10
197.4091180905995
 20
251.4232611171624
 10
23.84549861651418
 20
251.4232611171624
 10
23.84549861651418
 20
205.6183116125893
 10
197.4091180905995
 20
205.6183116125893
  0
MTEXT
  5
2C9
100
AcDbEntity
  8
schematic
  6
ByLayer
 62
  256
370
   -1
100
AcDbMText
 10
45.40035284669709
 20
236.8682520660953
 30
0
 40
4
 41
19.88888888888913
 71
    1
 72
    1
  1
BOX A3\PSMS
  7
standard
210
0
220
0
230
1
 50
0
 73
    2
 44
1
  0
INSERT
  5
2CA
100
AcDbEntity
  8
schematic
  6
ByLayer
 62
  256
370
   -1
100
AcDbBlockReference
  2
junction-0
 10
120.6548783802338
 20
160.0609564296624
 30
0
 41
1
 42
1
 43
0
 50
0
 70
    1
 71
    1
 44
1
 45
1
  0
INSERT
  5
2CB
100
AcDbEntity
  8
schematic
  6
ByLayer
 62
  256
370
   -1
100
AcDbBlockReference
  2
junction-0
 10
102.5804929000508
 20
160.0609564296624
 30
0
 41
1
 42
1
 43
0
 50
0
 70
    1
 71
    1
 44
1
 45
1
  0
INSERT
  5
2CC
100
AcDbEntity
  8
schematic
  6
ByLayer
 62
  256
370
   -1
100
AcDbBlockReference
  2
junction-0
 10
79.05903234364841
 20
159.8133621080161
 30
0
 41
1
 42
1
 43
0
 50
0
 70
    1
 71
    1
 44
1
 45
1
  0
MTEXT
  5
2CD
100
AcDbEntity
  8
schematic
  6
ByLayer
 62
  256
370
   -1
100
AcDbMText
 10
118.9217181287094
 20
248.4521292574063
 30
0
 40
3
 41
3.333333333333333
 71
    1
 72
    1
  1
P1
  7
standard
210
0
220
0
230
1
 50
0
 73
    2
 44
1
  0
MTEXT
  5
2CE
100
AcDbEntity
  8
schematic
  6
ByLayer
 62
  256
370
   -1
100
AcDbMText
 10
101.0949269701728
 20
248.4521292574063
 30
0
 40
3
 41
3.333332697326885
 71
    1
 72
    1
  1
S1
  7
standard
210
0
220
0
230
1
 50
0
 73
    2
 44
1
  0
MTEXT
  5
2CF
100
AcDbEntity
  8
schematic
  6
ByLayer
 62
  256
370
   -1
100
AcDbMText
 10
118.4265294854167
 20
211.5605753321015
 30
0
 40
3
 41
4
 71
    1
 72
    1
  1
NE
  7
standard
210
0
220
0
230
1
 50
0
 73
    2
 44
1
  0
MTEXT
  5
2D0
100
AcDbEntity
  8
schematic
  6
ByLayer
 62
  256
370
   -1
100
AcDbMText
 10
100.3521440052338
 20
211.312981010455
 30
0
 40
3
 41
4
 71
    1
 72
    1
  1
P2
  7
standard
210
0
220
0
230
1
 50
0
 73
    2
 44
1
  0
MTEXT
  5
2D1
100
AcDbEntity
  8
schematic
  6
ByLayer
 62
  256
370
   -1
100
AcDbMText
 10
77.32587209212402
 20
211.312981010455
 30
0
 40
3
 41
3.999999363993552
 71
    1
 72
    1
  1
S2
  7
standard
210
0
220
0
230
1
 50
0
 73
    2
 44
1
  0
MTEXT
  5
2D2
100
AcDbEntity
  8
schematic
  6
ByLayer
 62
  256
370
   -1
100
AcDbMText
 10
54.7947888223069
 20
211.312981010455
 30
0
 40
3
 41
3.333333333333333
 71
    1
 72
    1
  1
T1
  7
standard
210
0
220
0
230
1
 50
0
 73
    2
 44
1
  0
MTEXT
  5
2D3
100
AcDbEntity
  8
schematic
  6
ByLayer
 62
  256
370
   -1
100
AcDbMText
 10
34.98724309059959
 20
211.312981010455
 30
0
 40
3
 41
4
 71
    1
 72
    1
  1
T2
  7
standard
210
0
220
0
230
1
 50
0
 73
    2
 44
1
  0
LEADER
  5
2D4
100
AcDbEntity
  8
schematic
  6
ByLayer
 62
  256
370
   -1
100
AcDbLeader
  3
Standard
 71
    1
 72
    0
 73
    3
 74
    0
 75
    0
 40
1
 41
10
 76
2
 76
2
 10
56.52794907383129
 20
158.0802018564917
 30
0
 10
56.52794907383129
 20
205.6183116125893
 30
0
  0
MTEXT
  5
2D5
100
AcDbEntity
  8
schematic
  6
ByLayer
 62
  256
370
   -1
100
AcDbMText
 10
54.7947888223069
 20
154.8614756750892
 30
0
 40
4
 41
5.333333333333333
 71
    1
 72
    1
  1
P0
  7
standard
210
0
220
0
230
1
 50
0
 73
    2
 44
1
  0
LINE
  5
2D6
100
AcDbEntity
  8
schematic
  6
ByLayer
 62
  256
370
   -1
100
AcDbLine
 10
194.1539229944865
 20
118.4992326900592
 11
204.4174105767796
 21
118.4992326900592
  0
LINE
  5
2D7
100
AcDbEntity
  8
schematic
  6
ByLayer
 62
  256
370
   -1
100
AcDbLine
 10
193.567437989784
 20
90.9344374690435
 11
218.4930506896386
 21
90.9344374690435
  0
LINE
  5
2D8
100
AcDbEntity
  8
schematic
  6
ByLayer
 62
  256
370
   -1
100
AcDbLine
 10
218.4930506896386
 20
90.9344374690435
 11
218.4930506896386
 21
176.854490657954
  0
LINE
  5
2D9
100
AcDbEntity
  8
schematic
  6
ByLayer
 62
  256
370
   -1
100
AcDbLine
 10
193.2741954874328
 20
74.5128573373746
 11
229.0497807742829
 21
74.5128573373746
  0
LINE
  5
2DA
100
AcDbEntity
  8
schematic
  6
ByLayer
 62
  256
370
   -1
100
AcDbLine
 10
229.0497807742829
 20
74.5128573373746
 11
228.7565382719317
 21
166.2977605733097
  0
LWPOLYLINE
  5
2DB
100
AcDbEntity
  8
schematic
  6
ByLayer
 62
  256
370
   -1
100
AcDbPolyline
 90
    4
 70
    1
 43
0
 10
353.9710867759071
 20
139.905935361699
 10
240.4862383659809
 20
139.905935361699
 10
240.4862383659809
 20
100.6114400466341
 10
353.9710867759071
 20
100.6114400466341
  0
INSERT
  5
2DC
100
AcDbEntity
  8
schematic
  6
ByLayer
 62
  256
370
   -1
100
AcDbBlockReference
  2
junction-0
 10
144.3901693838809
 20
254.9783417855429
 30
0
 41
1
 42
1
 43
0
 50
0
 70
    1
 71
    1
 44
1
 45
1
  0
MTEXT
  5
2DD
100
AcDbEntity
  8
schematic
  6
ByLayer
 62
  256
370
   -1
100
AcDbMText
 10
26.81663047627029
 20
56.78691613592409
 30
0
 40
4
 41
4.444444444444445
 71
    1
 72
    1
  1
T1
  7
standard
210
0
220
0
230
1
 50
0
 73
    2
 44
1
  0
INSERT
  5
2DE
100
AcDbEntity
  8
schematic
  6
ByLayer
 62
  256
370
   -1
100
AcDbBlockReference
  2
Terminal-in
 10
37.62025747220302
 20
74.09748068371746
 30
0
 41
1
 42
1
 43
0
 50
180
 70
    1
 71
    1
 44
0
 45
0
  0
LINE
  5
2DF
100
AcDbEntity
  8
schematic
  6
ByLayer
 62
  256
370
   -1
100
AcDbLine
 10
37.52522092831062
 20
74.05866068329746
 11
37.52522092831062
 21
102.5320076726267
  0
LINE
  5
2E0
100
AcDbEntity
  8
schematic
  6
ByLayer
 62
  256
370
   -1
100
AcDbLine
 10
37.33395872420265
 20
103.0863039399625
 11
37.33395872420265
 21
205.6153846153847
  0
INSERT
  5
2E1
100
AcDbEntity
  8
schematic
  6
ByLayer
 62
  256
370
   -1
100
AcDbBlockReference
  2
Terminal-in
 10
367.7496043336798
 20
188.2708431121511
 30
0
 41
1
 42
1
 43
0
 50
267.337
 70
    1
 71
    1
 44
0
 45
0
  0
INSERT
  5
2E2
100
AcDbEntity
  8
schematic
  6
ByLayer
 62
  256
370
   -1
100
AcDbBlockReference
  2
Terminal-in
 10
367.9250671347462
 20
224.9867018860158
 30
0
 41
1
 42
1
 43
0
 50
267.337
 70
    1
 71
    1
 44
0
 45
0
  0
LINE
  5
2E3
100
AcDbEntity
  8
schematic
  6
ByLayer
 62
  256
370
   -1
100
AcDbLine
 10
365.4890146212142
 20
224.7678481659988
 11
365.4890146212142
 21
211.0817496828232
  0
LINE
  5
2E4
100
AcDbEntity
  8
schematic
  6
ByLayer
 62
  256
370
   -1
100
AcDbLine
 10
365.4890146212142
 20
211.0817496828232
 11
367.9454938361432
 21
211.0817496828232
  0
LINE
  5
2E5
100
AcDbEntity
  8
schematic
  6
ByLayer
 62
  256
370
   -1
100
AcDbLine
 10
367.9454938361432
 20
211.0817496828232
 11
365.4890146212142
 21
204.0632376401691
  0
LINE
  5
2E6
100
AcDbEntity
  8
schematic
  6
ByLayer
 62
  256
370
   -1
100
AcDbLine
 10
365.4890146212142
 20
204.0632376401691
 11
365.3135518201479
 21
188.4470483452636
  0
LINE
  5
2E7
100
AcDbEntity
  8
schematic
  6
ByLayer
 62
  256
370
   -1
100
AcDbLine
 10
386.3690879481103
 20
224.7678481659988
 11
393.9139883939635
 21
224.9433109670651
  0
LINE
  5
2E8
100
AcDbEntity
  8
schematic
  6
ByLayer
 62
  256
370
   -1
100
AcDbLine
 10
393.9139883939635
 20
224.9433109670651
 11
393.9139883939635
 21
211.0817496828232
  0
LINE
  5
2E9
100
AcDbEntity
  8
schematic
  6
ByLayer
 62
  256
370
   -1
100
AcDbLine
 10
393.9139883939635
 20
211.0817496828232
 11
396.3704676088925
 21
211.0817496828232
  0
LINE
  5
2EA
100
AcDbEntity
  8
schematic
  6
ByLayer
 62
  256
370
   -1
100
AcDbLine
 10
396.3704676088925
 20
211.0817496828232
 11
393.9139883939635
 21
204.0632376401691
  0
LINE
  5
2EB
100
AcDbEntity
  8
schematic
  6
ByLayer
 62
  256
370
   -1
100
AcDbLine
 10
393.9139883939635
 20
204.0632376401691
 11
393.9139883939635
 21
188.0961227431309
  0
LINE
  5
2EC
100
AcDbEntity
  8
schematic
  6
ByLayer
 62
  256
370
   -1
100
AcDbLine
 10
393.9139883939635
 20
188.0961227431309
 11
386.5445507491767
 21
188.0961227431309
  0
INSERT
  5
2ED
100
AcDbEntity
  8
0
  6
ByLayer
 62
  256
370
   -1
100
AcDbBlockReference
  2
junction-10
 10
365.4277533633877
 20
224.7913740429033
 30
0
 41
1
 42
1
 43
0
 50
0
 70
    1
 71
    1
 44
0
 45
0
  0
INSERT
  5
2EE
100
AcDbEntity
  8
0
  6
ByLayer
 62
  256
370
   -1
100
AcDbBlockReference
  2
junction-11
 10
365.4277533633877
 20
188.2712819935517
 30
0
 41
1
 42
1
 43
0
 50
0
 70
    1
 71
    1
 44
0
 45
0
  0
LINE
  5
2EF
100
AcDbEntity
  8
0
  6
ByLayer
 62
  256
370
   -1
100
AcDbLine
 10
381.9865528640254
 20
225.018206912775
 11
386.2963773915886
 21
226.832869871749
  0
LINE
  5
2F0
100
AcDbEntity
  8
0
  6
ByLayer
 62
  256
370
   -1
100
AcDbLine
 10
386.2963773915886
 20
226.832869871749
 11
386.0695445217169
 21
222.0693796044423
  0
LINE
  5
2F1
100
AcDbEntity
  8
0
  6
ByLayer
 62
  256
370
   -1
100
AcDbLine
 10
386.0695445217169
 20
222.0693796044423
 11
382.4402186037689
 21
224.7913740429033
  0
LINE
  5
2F2
100
AcDbEntity
  8
0
  6
ByLayer
 62
  256
370
   -1
100
AcDbLine
 10
381.3060542544102
 20
188.04444912368
 11
385.6158787819734
 21
189.859112082654
  0
LINE
  5
2F3
100
AcDbEntity
  8
0
  6
ByLayer
 62
  256
370
   -1
100
AcDbLine
 10
385.6158787819734
 20
189.859112082654
 11
385.3890459121017
 21
185.0956218153472
  0
LINE
  5
2F4
100
AcDbEntity
  8
0
  6
ByLayer
 62
  256
370
   -1
100
AcDbLine
 10
385.3890459121017
 20
185.0956218153472
 11
381.7597199941537
 21
187.8176162538082
  0
MTEXT
  5
2F5
100
AcDbEntity
  8
0
  6
ByLayer
 62
  256
370
   -1
100
AcDbMText
 10
369.2839121512075
 20
208.2325745422656
 30
0
 40
3
 41
4.666666666666666
 71
    1
 72
    1
  1
RM
  7
standard
210
0
220
0
230
1
 50
0
 73
    2
 44
1
  0
MTEXT
  5
2F6
100
AcDbEntity
  8
0
  6
ByLayer
 62
  256
370
   -1
100
AcDbMText
 10
367.6960820621052
 20
216.8522235973921
 30
0
 40
3
 41
3.000000000000186
 71
    1
 72
    1
  1
31
  7
standard
210
0
220
0
230
1
 50
0
 73
    2
 44
1
  0
MTEXT
  5
2F7
100
AcDbEntity
  8
0
  6
ByLayer
 62
  256
370
   -1
100
AcDbMText
 10
368.1497478018487
 20
200.9739227063696
 30
0
 40
3
 41
3.666666666666852
 71
    1
 72
    1
  1
32\P
  7
standard
210
0
220
0
230
1
 50
0
 73
    2
 44
1
  0
MTEXT
  5
2F8
100
AcDbEntity
  8
0
  6
ByLayer
 62
  256
370
   -1
100
AcDbMText
 10
374.7279010281294
 20
234.5451874473885
 30
0
 40
4
 41
8.888888888888888
 71
    1
 72
    1
  1
FEM\P
  7
standard
210
0
220
0
230
1
 50
0
 73
    2
 44
1
  0
MTEXT
  5
2F9
100
AcDbEntity
  8
0
  6
ByLayer
 62
  256
370
   -1
100
AcDbMText
 10
374.2742352883859
 20
182.1467945070145
 30
0
 40
4
 41
8.888888888888888
 71
    1
 72
    1
  1
FEM\P
  7
standard
210
0
220
0
230
1
 50
0
 73
    2
 44
1
  0
MTEXT
  5
2FA
100
AcDbEntity
  8
0
  6
ByLayer
 62
  256
370
   -1
100
AcDbMText
 10
383.1207172133841
 20
209.1399060217526
 30
0
 40
4
 41
8.888888888888888
 71
    1
 72
    1
  1
FEM\P
  7
standard
210
0
220
0
230
1
 50
0
 73
    2
 44
1
  0
LEADER
  5
2FB
100
AcDbEntity
  8
0
  6
ByLayer
 62
  256
370
   -1
100
AcDbLeader
  3
Standard
 71
    1
 72
    0
 73
    3
 74
    0
 75
    0
 40
1
 41
10
 76
3
 76
3
 10
359.0764330069787
 20
250.8771540781544
 30
0
 10
346.3737922941608
 20
261.5382989621266
 30
0
 10
346.3737922941608
 20
282.8605887300711
 30
0
  0
MTEXT
  5
2FC
100
AcDbEntity
  8
0
  6
ByLayer
 62
  256
370
   -1
100
AcDbMText
 10
353.1787783903133
 20
282.8605887300711
 30
0
 40
3
 41
51.41666539465414
 71
    1
 72
    1
  1
CIRCUITO PRESENTE\PCON TESTATA RIDOTTA\PMONTARE INTER.FEM\PA DISTANZA DI SICUREZ-\PZA IN TESTATA\P
  7
standard
210
0
220
0
230
1
 50
0
 73
    2
 44
1
  0
INSERT
  5
2FD
100
AcDbEntity
  8
schematic
  6
ByLayer
 62
  256
370
   -1
100
AcDbBlockReference
  2
Terminal-in
 10
50.56516315308991
 20
271.3131150246144
 30
0
 41
1
 42
1
 43
0
 50
90.6491
 70
    1
 71
    1
 44
1
 45
1
  0
MTEXT
  5
2FE
100
AcDbEntity
  8
schematic
  6
ByLayer
 62
  256
370
   -1
100
AcDbMText
 10
36.76206933458988
 20
280.8627602820931
 30
0
 40
4
 41
4.888888888888888
 71
    1
 72
    1
  1
82
  7
standard
210
0
220
0
230
1
 50
0
 73
    2
 44
1
  0
LINE
  5
2FF
100
AcDbEntity
  8
0
  6
ByLayer
 62
  256
370
   -1
100
AcDbLine
 10
49.57758441775477
 20
271.2995591749358
 11
228.3782245169722
 21
271.2995591749358
  0
MTEXT
  5
300
100
AcDbEntity
  8
0
  6
ByLayer
 62
  256
370
   -1
100
AcDbMText
 10
48.42995514882526
 20
276.8081796657975
 30
0
 40
3
 41
75.83333269732724
 71
    1
 72
    1
  1
DAI PRE FINE CORSA -VEDI FOGLIO 2
  7
standard
210
0
220
0
230
1
 50
0
 73
    2
 44
1
  0
MTEXT
  5
301
100
AcDbEntity
  8
frame-title
  6
ByLayer
 62
  256
370
   -1
100
AcDbMText
 10
302.654478423
 20
37.8318098028
 30
0
 40
3
 41
66.91666539465454
 71
    1
 72
    1
  1
Schema: MC-POC48SEMIAE06A3TR\PAutore: Belardi\PData: 01/16\PFoglio: 9 di 20
  7
standard
210
0
220
0
230
1
 50
0
 73
    2
 44
1
  0
LINE
  5
302
100
AcDbEntity
  8
0
  6
ByLayer
 62
  256
370
   -1
100
AcDbLine
 10
227.7803872956312
 20
271.3935104529616
 11
274.0805749128919
 21
271.3935104529616
  0
LINE
  5
303
100
AcDbEntity
  8
schematic
  6
ByLayer
 62
  256
370
   -1
100
AcDbLine
 10
62.58928487645817
 20
255.7715240563937
 11
80.10009851975086
 21
255.7715240563937
  0
LINE
  5
304
100
AcDbEntity
  8
schematic
  6
ByLayer
 62
  256
370
   -1
100
AcDbLine
 10
80.10009851975086
 20
255.7715240563937
 11
90.15950210206798
 21
259.3109438353571
  0
LINE
  5
305
100
AcDbEntity
  8
schematic
  6
ByLayer
 62
  256
370
   -1
100
AcDbLine
 10
90.15950210206798
 20
259.3109438353571
 11
90.15950210206798
 21
255.7715240563937
  0
LINE
  5
306
100
AcDbEntity
  8
schematic
  6
ByLayer
 62
  256
370
   -1
100
AcDbLine
 10
90.26847558640107
 20
255.6501785542321
 11
102.5846606851528
 21
255.6501785542321
  0
MTEXT
  5
307
100
AcDbEntity
  8
schematic
  6
ByLayer
 62
  256
370
   -1
100
AcDbMText
 10
83.7205020539073
 20
263.9525393777722
 30
0
 40
3
 41
4.333333333333333
 71
    1
 72
    1
  1
RP
  7
standard
210
0
220
0
230
1
 50
0
 73
    2
 44
1
  0
MTEXT
  5
308
100
AcDbEntity
  8
schematic
  6
ByLayer
 62
  256
370
   -1
100
AcDbMText
 10
94.05838403160406
 20
261.549215169779
 30
0
 40
3
 41
3.666666666666666
 71
    1
 72
    1
  1
22
  7
standard
210
0
220
0
230
1
 50
0
 73
    2
 44
1
  0
MTEXT
  5
309
100
AcDbEntity
  8
schematic
  6
ByLayer
 62
  256
370
   -1
100
AcDbMText
 10
74.98612604737511
 20
261.169427431225
 30
0
 40
3
 41
3
 71
    1
 72
    1
  1
21
  7
standard
210
0
220
0
230
1
 50
0
 73
    2
 44
1
  0
INSERT
  5
30A
100
AcDbEntity
  8
schematic
  6
ByLayer
 62
  256
370
   -1
100
AcDbBlockReference
  2
Terminal-in
 10
50.15176862079294
 20
256.0175173296265
 30
0
 41
1
 42
1
 43
0
 50
90.6491
 70
    1
 71
    1
 44
1
 45
1
  0
LINE
  5
30B
100
AcDbEntity
  8
0
  6
ByLayer
 62
  256
370
   -1
100
AcDbLine
 10
48.98725207719109
 20
255.6845182256767
 11
66.55651969981237
 21
255.6845182256767
  0
MTEXT
  5
30C
100
AcDbEntity
  8
schematic
  6
ByLayer
 62
  256
370
   -1
100
AcDbMText
 10
36.96876660073836
 20
265.1537680548082
 30
0
 40
4
 41
4
 71
    1
 72
    1
  1
10
  7
standard
210
0
220
0
230
1
 50
0
 73
    2
 44
1
  0
LINE
  5
30D
100
AcDbEntity
  8
0
  6
ByLayer
 62
  256
370
   -1
100
AcDbLine
 10
102.7285412757974
 20
255.6845182256767
 11
144.4813890377914
 21
255.6845182256767
  0
LINE
  5
30E
100
AcDbEntity
  8
schematic
  6
ByLayer
 62
  256
370
   -1
100
AcDbLine
 10
83.00639324303852
 20
196.9539920811299
 11
79.28068821255071
 21
189.1300115171055
  0
MTEXT
  5
30F
100
AcDbEntity
  8
schematic
  6
ByLayer
 62
  256
370
   -1
100
AcDbMText
 10
69.40285379944099
 20
194.2422447488128
 30
0
 40
3
 41
6.999999363993552
 71
    1
 72
    1
  1
SAL\P
  7
standard
210
0
220
0
230
1
 50
0
 73
    2
 44
1
  0
MTEXT
  5
310
100
AcDbEntity
  8
schematic
  6
ByLayer
 62
  256
370
   -1
100
AcDbMText
 10
75.09752319730687
 20
202.1652630414957
 30
0
 40
3
 41
1.333333333333519
 71
    1
 72
    1
  1
3
  7
standard
210
0
220
0
230
1
 50
0
 73
    2
 44
1
  0
MTEXT
  5
311
100
AcDbEntity
  8
schematic
  6
ByLayer
 62
  256
370
   -1
100
AcDbMText
 10
74.60233455401418
 20
186.8144150994226
 30
0
 40
3
 41
1.666666666666667
 71
    1
 72
    1
  1
4
  7
standard
210
0
220
0
230
1
 50
0
 73
    2
 44
1
  0
LINE
  5
312
100
AcDbEntity
  8
0
  6
ByLayer
 62
  256
370
   -1
100
AcDbLine
 10
78.75165840257301
 20
196.9824946395068
 11
78.75165840257301
 21
205.6637798177432
  0
LINE
  5
313
100
AcDbEntity
  8
0
  6
ByLayer
 62
  256
370
   -1
100
AcDbLine
 10
78.95835566872151
 20
188.7146039935674
 11
78.95835566872151
 21
176.5194652908067
  0
LINE
  5
314
100
AcDbEntity
  8
0
  6
ByLayer
 62
  256
370
   -1
100
AcDbLine
 10
83.09230099169122
 20
176.5194652908067
 11
78.75165840257301
 21
168.4582719110158
  0
LINE
  5
315
100
AcDbEntity
  8
0
  6
ByLayer
 62
  256
370
   -1
100
AcDbLine
 10
78.75165840257301
 20
168.4582719110158
 11
78.95835566872151
 21
159.1568949343339
  0
MTEXT
  5
316
100
AcDbEntity
  8
0
  6
ByLayer
 62
  256
370
   -1
100
AcDbMText
 10
72.55074041811845
 20
174.2457953631734
 30
0
 40
3
 41
4.666666030660219
 71
    1
 72
    1
  1
SX
  7
standard
210
0
220
0
230
1
 50
0
 73
    2
 44
1
  0
MTEXT
  5
317
100
AcDbEntity
  8
0
  6
ByLayer
 62
  256
370
   -1
100
AcDbMText
 10
74.82441034575179
 20
180.6534106137764
 30
0
 40
3
 41
1.333333333333519
 71
    1
 72
    1
  1
3
  7
standard
210
0
220
0
230
1
 50
0
 73
    2
 44
1
  0
MTEXT
  5
318
100
AcDbEntity
  8
0
  6
ByLayer
 62
  256
370
   -1
100
AcDbMText
 10
74.61771307960331
 20
167.2180883141249
 30
0
 40
3
 41
1.666666666666667
 71
    1
 72
    1
  1
4
  7
standard
210
0
220
0
230
1
 50
0
 73
    2
 44
1
  0
MTEXT
  5
319
100
AcDbEntity
  8
0
  6
ByLayer
 62
  256
370
   -1
100
AcDbMText
 10
83.71239279013668
 20
193.675338381131
 30
0
 40
3
 41
10.33333333333333
 71
    1
 72
    1
  1
AUX4
  7
standard
210
0
220
0
230
1
 50
0
 73
    2
 44
1
  0
INSERT
  5
31A
100
AcDbEntity
  8
schematic
  6
ByLayer
 62
  256
370
   -1
100
AcDbBlockReference
  2
mcp2014x-connector-7
 10
228.9129840891166
 20
232.3411551164967
 30
0
 41
1
 42
1
 43
0
 50
0
 70
    1
 71
    1
 44
0
 45
0
  0
MTEXT
  5
31B
100
AcDbEntity
  8
labels
  6
ByLayer
 62
  256
370
   -1
100
AcDbMText
 10
252.940079676985
 20
137.1348910673314
 30
0
 40
2.7
 41
3.300000000000335
 71
    1
 72
    1
  1
65
  7
standard
210
0
220
0
230
1
 50
0
 73
    2
 44
1
  0
INSERT
  5
31C
100
AcDbEntity
  8
schematic
  6
ByLayer
 62
  256
370
   -1
100
AcDbBlockReference
  2
mcp2014x-connector
 10
228.9129840891166
 20
232.3411551164967
 30
0
 41
1
 42
1
 43
0
 50
0
 70
    1
 71
    1
 44
0
 45
0
  0
LINE
  5
31D
100
AcDbEntity
  8
schematic
  6
ByLayer
 62
  256
370
   -1
100
AcDbLine
 10
268.9972561275968
 20
122.2473277563108
 11
268.9972561275968
 21
107.1055494117259
  0
MTEXT
  5
31E
100
AcDbEntity
  8
labels
  6
ByLayer
 62
  256
370
   -1
100
AcDbMText
 10
267.221038814944
 20
105.7697359587599
 30
0
 40
2.7
 41
3.600000000000168
 71
    1
 72
    1
  1
64
  7
standard
210
0
220
0
230
1
 50
0
 73
    2
 44
1
  0
LINE
  5
31F
100
AcDbEntity
  8
schematic
  6
ByLayer
 62
  256
370
   -1
100
AcDbLine
 10
254.5972561275969
 20
133.0473277563108
 11
254.5972561275969
 21
129.4473277563108
  0
LINE
  5
320
100
AcDbEntity
  8
schematic
  6
ByLayer
 62
  256
370
   -1
100
AcDbLine
 10
254.5972561275969
 20
125.8473277563108
 11
254.5972561275969
 21
122.2473277563108
  0
LINE
  5
321
100
AcDbEntity
  8
schematic
  6
ByLayer
 62
  256
370
   -1
100
AcDbLine
 10
254.5972561275969
 20
125.8473277563108
 11
256.3972561275968
 21
129.4473277563108
  0
MTEXT
  5
322
100
AcDbEntity
  8
labels
  6
ByLayer
 62
  256
370
   -1
100
AcDbMText
 10
250.2037738092347
 20
128.5853825481491
 30
0
 40
2.7
 41
3.9
 71
    1
 72
    1
  1
RP
  7
standard
210
0
220
0
230
1
 50
0
 73
    2
 44
1
  0
LINE
  5
323
100
AcDbEntity
  8
schematic
  6
ByLayer
 62
  256
370
   -1
100
AcDbLine
 10
268.9972561275968
 20
90.74732775631077
 11
268.9972561275968
 21
100.6473277563109
  0
LINE
  5
324
100
AcDbEntity
  8
schematic
  6
ByLayer
 62
  256
370
   -1
100
AcDbLine
 10
304.9870460953207
 20
139.9396746950862
 11
304.9870460953207
 21
193.1754608175355
  0
LINE
  5
325
100
AcDbEntity
  8
schematic
  6
ByLayer
 62
  256
370
   -1
100
AcDbLine
 10
275.9308406934597
 20
140.1958870183517
 11
275.9308406934597
 21
193.9902755897805
  0
INSERT
  5
326
100
AcDbEntity
  8
schematic
  6
ByLayer
 62
  256
370
   -1
100
AcDbBlockReference
  2
mcp2014x-connector-9
 10
228.9129840891166
 20
232.3411551164967
 30
0
 41
1
 42
1
 43
0
 50
0
 70
    1
 71
    1
 44
0
 45
0
  0
INSERT
  5
327
100
AcDbEntity
  8
schematic
  6
ByLayer
 62
  256
370
   -1
100
AcDbBlockReference
  2
mcp2014x-connector-10
 10
228.9129840891166
 20
232.3411551164967
 30
0
 41
1
 42
1
 43
0
 50
0
 70
    1
 71
    1
 44
0
 45
0
  0
INSERT
  5
328
100
AcDbEntity
  8
schematic
  6
ByLayer
 62
  256
370
   -1
100
AcDbBlockReference
  2
mcp2014x-connector-11
 10
228.9129840891166
 20
232.3411551164967
 30
0
 41
1
 42
1
 43
0
 50
0
 70
    1
 71
    1
 44
0
 45
0
  0
LINE
  5
329
100
AcDbEntity
  8
schematic
  6
ByLayer
 62
  256
370
   -1
100
AcDbLine
 10
275.8060999728712
 20
133.0473277563108
 11
275.8060999728712
 21
129.4473277563108
  0
LINE
  5
32A
100
AcDbEntity
  8
schematic
  6
ByLayer
 62
  256
370
   -1
100
AcDbLine
 10
291.1060999728712
 20
133.0473277563108
 11
291.1060999728712
 21
129.4473277563108
  0
LINE
  5
32B
100
AcDbEntity
  8
schematic
  6
ByLayer
 62
  256
370
   -1
100
AcDbLine
 10
304.6060999728712
 20
133.0473277563108
 11
304.6060999728712
 21
129.4473277563108
  0
LINE
  5
32C
100
AcDbEntity
  8
schematic
  6
ByLayer
 62
  256
370
   -1
100
AcDbLine
 10
275.8060999728712
 20
125.8473277563108
 11
275.8060999728712
 21
122.2473277563108
  0
LINE
  5
32D
100
AcDbEntity
  8
schematic
  6
ByLayer
 62
  256
370
   -1
100
AcDbLine
 10
291.1060999728712
 20
122.2473277563108
 11
291.1060999728712
 21
125.8473277563108
  0
LINE
  5
32E
100
AcDbEntity
  8
schematic
  6
ByLayer
 62
  256
370
   -1
100
AcDbLine
 10
304.6060999728712
 20
122.2473277563108
 11
304.6060999728712
 21
125.8473277563108
  0
LINE
  5
32F
100
AcDbEntity
  8
schematic
  6
ByLayer
 62
  256
370
   -1
100
AcDbLine
 10
275.8060999728712
 20
125.8473277563108
 11
277.6060999728712
 21
129.4473277563108
  0
LINE
  5
330
100
AcDbEntity
  8
schematic
  6
ByLayer
 62
  256
370
   -1
100
AcDbLine
 10
291.1060999728712
 20
125.8473277563108
 11
292.9060999728713
 21
129.4473277563108
  0
LINE
  5
331
100
AcDbEntity
  8
schematic
  6
ByLayer
 62
  256
370
   -1
100
AcDbLine
 10
304.6060999728712
 20
125.8473277563108
 11
306.4060999728713
 21
129.4473277563108
  0
MTEXT
  5
332
100
AcDbEntity
  8
labels
  6
ByLayer
 62
  256
370
   -1
100
AcDbMText
 10
268.1811996626726
 20
129.181225160394
 30
0
 40
2.7
 41
6.600000000000001
 71
    1
 72
    1
  1
RPV
  7
standard
210
0
220
0
230
1
 50
0
 73
    2
 44
1
  0
MTEXT
  5
333
100
AcDbEntity
  8
labels
  6
ByLayer
 62
  256
370
   -1
100
AcDbMText
 10
281.7830407728768
 20
129.5387307277409
 30
0
 40
2.7
 41
8.699999427594198
 71
    1
 72
    1
  1
RSAL
  7
standard
210
0
220
0
230
1
 50
0
 73
    2
 44
1
  0
MTEXT
  5
334
100
AcDbEntity
  8
labels
  6
ByLayer
 62
  256
370
   -1
100
AcDbMText
 10
295.7423874504281
 20
130.0562808338635
 30
0
 40
2.7
 41
7.199999427594365
 71
    1
 72
    1
  1
RDIS
  7
standard
210
0
220
0
230
1
 50
0
 73
    2
 44
1
  0
MTEXT
  5
335
100
AcDbEntity
  8
labels
  6
ByLayer
 62
  256
370
   -1
100
AcDbMText
 10
274.2934416871571
 20
136.9978472665149
 30
0
 40
2.7
 41
3.300000000000335
 71
    1
 72
    1
  1
66
  7
standard
210
0
220
0
230
1
 50
0
 73
    2
 44
1
  0
MTEXT
  5
336
100
AcDbEntity
  8
labels
  6
ByLayer
 62
  256
370
   -1
100
AcDbMText
 10
289.3384676463407
 20
137.5936898787598
 30
0
 40
2.7
 41
3.300000000000168
 71
    1
 72
    1
  1
68
  7
standard
210
0
220
0
230
1
 50
0
 73
    2
 44
1
  0
MTEXT
  5
337
100
AcDbEntity
  8
labels
  6
ByLayer
 62
  256
370
   -1
100
AcDbMText
 10
302.7449264218509
 20
137.4447292256986
 30
0
 40
2.7
 41
3.300000000000168
 71
    1
 72
    1
  1
67
  7
standard
210
0
220
0
230
1
 50
0
 73
    2
 44
1
  0
LINE
  5
338
100
AcDbEntity
  8
schematic
  6
ByLayer
 62
  256
370
   -1
100
AcDbLine
 10
326.561943675351
 20
139.9396746950862
 11
326.561943675351
 21
193.1754608175355
  0
INSERT
  5
339
100
AcDbEntity
  8
schematic
  6
ByLayer
 62
  256
370
   -1
100
AcDbBlockReference
  2
mcp2014x-connector-12
 10
228.9129840891166
 20
232.3411551164967
 30
0
 41
1
 42
1
 43
0
 50
0
 70
    1
 71
    1
 44
0
 45
0
  0
LINE
  5
33A
100
AcDbEntity
  8
schematic
  6
ByLayer
 62
  256
370
   -1
100
AcDbLine
 10
326.1809975529016
 20
133.0473277563108
 11
326.1809975529016
 21
129.4473277563108
  0
LINE
  5
33B
100
AcDbEntity
  8
schematic
  6
ByLayer
 62
  256
370
   -1
100
AcDbLine
 10
326.1809975529016
 20
122.2473277563108
 11
326.1809975529016
 21
125.8473277563108
  0
LINE
  5
33C
100
AcDbEntity
  8
schematic
  6
ByLayer
 62
  256
370
   -1
100
AcDbLine
 10
326.1809975529016
 20
125.8473277563108
 11
327.9809975529016
 21
129.4473277563108
  0
LINE
  5
33D
100
AcDbEntity
  8
labels
  6
ByLayer
 62
  256
370
   -1
100
AcDbLine
 10
254.5578125300358
 20
121.8803308050913
 11
326.5629573471091
 21
121.8803308050913
  0
INSERT
  5
33E
100
AcDbEntity
  8
schematic
  6
ByLayer
 62
  256
370
   -1
100
AcDbBlockReference
  2
junction-5
 10
228.9129840891166
 20
232.3411551164967
 30
0
 41
1
 42
1
 43
0
 50
0
 70
    1
 71
    1
 44
0
 45
0
  0
MTEXT
  5
33F
100
AcDbEntity
  8
labels
  6
ByLayer
 62
  256
370
   -1
100
AcDbMText
 10
313.9246622365751
 20
130.0562808338635
 30
0
 40
2.7
 41
9.300000000000001
 71
    1
 72
    1
  1
RMAN
  7
standard
210
0
220
0
230
1
 50
0
 73
    2
 44
1
  0
MTEXT
  5
340
100
AcDbEntity
  8
labels
  6
ByLayer
 62
  256
370
   -1
100
AcDbMText
 10
324.3198240018814
 20
137.4447292256986
 30
0
 40
2.7
 41
3.300000000000168
 71
    1
 72
    1
  1
69
  7
standard
210
0
220
0
230
1
 50
0
 73
    2
 44
1
  0
INSERT
  5
341
100
AcDbEntity
  8
schematic
  6
ByLayer
 62
  256
370
   -1
100
AcDbBlockReference
  2
diodo_bobina-1
 10
229.1398169589883
 20
186.5209154024035
 30
0
 41
1
 42
1
 43
0
 50
0
 70
    1
 71
    1
 44
0
 45
0
  0
MTEXT
  5
342
100
AcDbEntity
  8
labels
  6
ByLayer
 62
  256
370
   -1
100
AcDbMText
 10
294.0029396998877
 20
160.4443112258921
 30
0
 40
1.8
 41
2.2
 71
    1
 72
    1
  1
A1
  7
standard
210
0
220
0
230
1
 50
0
 73
    2
 44
1
  0
MTEXT
  5
343
100
AcDbEntity
  8
labels
  6
ByLayer
 62
  256
370
   -1
100
AcDbMText
 10
293.1329328427429
 20
150.2270880422176
 30
0
 40
1.8
 41
2.6
 71
    1
 72
    1
  1
A2
  7
standard
210
0
220
0
230
1
 50
0
 73
    2
 44
1
  0
MTEXT
  5
344
100
AcDbEntity
  8
labels
  6
ByLayer
 62
  256
370
   -1
100
AcDbMText
 10
287.0315811366248
 20
156.2138286789544
 30
0
 40
2.7
 41
4.199999427594197
 71
    1
 72
    1
  1
SX
  7
standard
210
0
220
0
230
1
 50
0
 73
    2
 44
1
  0
INSERT
  5
345
100
AcDbEntity
  8
schematic
  6
ByLayer
 62
  256
370
   -1
100
AcDbBlockReference
  2
r1-2
 10
228.5375196398772
 20
185.7447548021369
 30
0
 41
1
 42
1
 43
0
 50
1.101000000000018
 70
    1
 71
    1
 44
0
 45
0
  0
LINE
  5
346
100
AcDbEntity
  8
schematic
  6
ByLayer
 62
  256
370
   -1
100
AcDbLine
 10
291.2691671270365
 20
148.2451393713266
 11
291.2691671270365
 21
139.8523231860719
  0
LINE
  5
347
100
AcDbEntity
  8
schematic
  6
ByLayer
 62
  256
370
   -1
100
AcDbLine
 10
275.2634359051948
 20
247.6372890609092
 11
275.2634359051948
 21
256.2025266119297
  0
INSERT
  5
348
100
AcDbEntity
  8
schematic
  6
ByLayer
 62
  256
370
   -1
100
AcDbBlockReference
  2
diodo_bobina-2
 10
228.4229020622562
 20
272.527881319054
 30
0
 41
1
 42
1
 43
0
 50
0
 70
    1
 71
    1
 44
0
 45
0
  0
INSERT
  5
349
100
AcDbEntity
  8
schematic
  6
ByLayer
 62
  256
370
   -1
100
AcDbBlockReference
  2
diodo_bobina-3
 10
228.4229020622562
 20
272.527881319054
 30
0
 41
1
 42
1
 43
0
 50
0
 70
    1
 71
    1
 44
0
 45
0
  0
MTEXT
  5
34A
100
AcDbEntity
  8
labels
  6
ByLayer
 62
  256
370
   -1
100
AcDbMText
 10
272.0144435460149
 20
241.982457550707
 30
0
 40
2.7
 41
4.200000000000001
 71
    1
 72
    1
  1
PV
  7
standard
210
0
220
0
230
1
 50
0
 73
    2
 44
1
  0
MTEXT
  5
34B
100
AcDbEntity
  8
labels
  6
ByLayer
 62
  256
370
   -1
100
AcDbMText
 10
277.7941168847882
 20
246.3023164894815
 30
0
 40
1.8
 41
2.2
 71
    1
 72
    1
  1
A1
  7
standard
210
0
220
0
230
1
 50
0
 73
    2
 44
1
  0
MTEXT
  5
34C
100
AcDbEntity
  8
labels
  6
ByLayer
 62
  256
370
   -1
100
AcDbMText
 10
307.2883261909108
 20
246.4512771425427
 30
0
 40
1.8
 41
2.2
 71
    1
 72
    1
  1
A1
  7
standard
210
0
220
0
230
1
 50
0
 73
    2
 44
1
  0
MTEXT
  5
34D
100
AcDbEntity
  8
labels
  6
ByLayer
 62
  256
370
   -1
100
AcDbMText
 10
278.0160179460107
 20
236.2340539588681
 30
0
 40
1.8
 41
2.6
 71
    1
 72
    1
  1
A2
  7
standard
210
0
220
0
230
1
 50
0
 73
    2
 44
1
  0
MTEXT
  5
34E
100
AcDbEntity
  8
labels
  6
ByLayer
 62
  256
370
   -1
100
AcDbMText
 10
306.8160179460108
 20
236.2340539588681
 30
0
 40
1.8
 41
2.6
 71
    1
 72
    1
  1
A2
  7
standard
210
0
220
0
230
1
 50
0
 73
    2
 44
1
  0
LINE
  5
34F
100
AcDbEntity
  8
schematic
  6
ByLayer
 62
  256
370
   -1
100
AcDbLine
 10
304.2960179460108
 20
247.3940539588683
 11
304.2960179460108
 21
256.0340539588681
  0
INSERT
  5
350
100
AcDbEntity
  8
schematic
  6
ByLayer
 62
  256
370
   -1
100
AcDbBlockReference
  2
diodo_bobina-4
 10
228.4229020622562
 20
272.527881319054
 30
0
 41
1
 42
1
 43
0
 50
0
 70
    1
 71
    1
 44
0
 45
0
  0
MTEXT
  5
351
100
AcDbEntity
  8
labels
  6
ByLayer
 62
  256
370
   -1
100
AcDbMText
 10
328.8632237709412
 20
246.4512771425427
 30
0
 40
1.8
 41
2.2
 71
    1
 72
    1
  1
A1
  7
standard
210
0
220
0
230
1
 50
0
 73
    2
 44
1
  0
MTEXT
  5
352
100
AcDbEntity
  8
labels
  6
ByLayer
 62
  256
370
   -1
100
AcDbMText
 10
328.3909155260411
 20
236.2340539588681
 30
0
 40
1.8
 41
2.6
 71
    1
 72
    1
  1
A2
  7
standard
210
0
220
0
230
1
 50
0
 73
    2
 44
1
  0
LINE
  5
353
100
AcDbEntity
  8
schematic
  6
ByLayer
 62
  256
370
   -1
100
AcDbLine
 10
325.8709155260412
 20
247.3940539588683
 11
325.8709155260412
 21
256.0340539588681
  0
INSERT
  5
354
100
AcDbEntity
  8
schematic
  6
ByLayer
 62
  256
370
   -1
100
AcDbBlockReference
  2
junction-6
 10
228.4229020622562
 20
272.527881319054
 30
0
 41
1
 42
1
 43
0
 50
0
 70
    1
 71
    1
 44
0
 45
0
  0
INSERT
  5
355
100
AcDbEntity
  8
schematic
  6
ByLayer
 62
  256
370
   -1
100
AcDbBlockReference
  2
r1-3
 10
227.8206047431451
 20
271.7517207187875
 30
0
 41
1
 42
1
 43
0
 50
1.101000000000018
 70
    1
 71
    1
 44
0
 45
0
  0
INSERT
  5
356
100
AcDbEntity
  8
schematic
  6
ByLayer
 62
  256
370
   -1
100
AcDbBlockReference
  2
r1-4
 10
227.8206047431451
 20
271.7517207187875
 30
0
 41
1
 42
1
 43
0
 50
1.101000000000018
 70
    1
 71
    1
 44
0
 45
0
  0
INSERT
  5
357
100
AcDbEntity
  8
schematic
  6
ByLayer
 62
  256
370
   -1
100
AcDbBlockReference
  2
r1-5
 10
227.8206047431451
 20
271.7517207187875
 30
0
 41
1
 42
1
 43
0
 50
1.101000000000018
 70
    1
 71
    1
 44
0
 45
0
  0
MTEXT
  5
358
100
AcDbEntity
  8
labels
  6
ByLayer
 62
  256
370
   -1
100
AcDbMText
 10
300.7340574562193
 20
241.982457550707
 30
0
 40
2.7
 41
5.399999427594365
 71
    1
 72
    1
  1
DS1
  7
standard
210
0
220
0
230
1
 50
0
 73
    2
 44
1
  0
MTEXT
  5
359
100
AcDbEntity
  8
labels
  6
ByLayer
 62
  256
370
   -1
100
AcDbMText
 10
322.3089550362497
 20
241.982457550707
 30
0
 40
2.7
 41
5.999999427594365
 71
    1
 72
    1
  1
DS2
  7
standard
210
0
220
0
230
1
 50
0
 73
    2
 44
1
  0
LINE
  5
35A
100
AcDbEntity
  8
schematic
  6
ByLayer
 62
  256
370
   -1
100
AcDbLine
 10
290.5677474850935
 20
240.7252084915321
 11
290.5677474850935
 21
224.4241313810819
  0
LINE
  5
35B
100
AcDbEntity
  8
schematic
  6
ByLayer
 62
  256
370
   -1
100
AcDbLine
 10
290.9468423016156
 20
188.4101238114826
 11
290.9468423016156
 21
160.3571073888474
  0
LINE
  5
35C
100
AcDbEntity
  8
schematic
  6
ByLayer
 62
  256
370
   -1
100
AcDbLine
 10
326.5817550546928
 20
191.0637875271373
 11
326.2026602381707
 21
235.4178810602228
  0
LINE
  5
35D
100
AcDbEntity
  8
schematic
  6
ByLayer
 62
  256
370
   -1
100
AcDbLine
 10
304.9733505129332
 20
234.6596914271786
 11
304.9733505129332
 21
189.926503077571
  0
LINE
  5
35E
100
AcDbEntity
  8
schematic
  6
ByLayer
 62
  256
370
   -1
100
AcDbLine
 10
276.1621444572538
 20
193.3383564262699
 11
275.7830496407317
 21
234.6596914271786
  0
LINE
  5
35F
100
AcDbEntity
  8
schematic
  6
DASHEDTINY
 62
  256
370
   -1
100
AcDbLine
 10
290.6230927534954
 20
221.616
 11
290.6230927534954
 21
191.901
  0
INSERT
  5
360
100
AcDbEntity
  8
0
  6
ByLayer
 62
  256
370
   -1
100
AcDbBlockReference
  2
junction-12
 10
304.2332638002248
 20
255.8674772153329
 30
0
 41
1
 42
1
 43
0
 50
0
 70
    1
 71
    1
 44
0
 45
0
  0
MTEXT
  5
361
100
AcDbEntity
  8
0
  6
ByLayer
 62
  256
370
   -1
100
AcDbMText
 10
297.5018151185232
 20
111.0277694827251
 30
0
 40
3
 41
18.66666666666685
 71
    1
 72
    1
  1
MCP2015X
  7
standard
210
0
220
0
230
1
 50
0
 73
    2
 44
1
  0
LINE
  5
362
100
AcDbEntity
  8
labels
  6
ByLayer
 62
  256
370
   -1
100
AcDbLine
 10
269.1107964251252
 20
100.707872271052
 11
269.1107964251252
 21
91.05113654419073
  0
INSERT
  5
363
100
AcDbEntity
  8
schematic
  6
ByLayer
 62
  256
370
   -1
100
AcDbBlockReference
  2
Terminal-in
 10
268.957122840492
 20
76.09553879712458
 30
0
 41
1
 42
1
 43
0
 50
180
 70
    1
 71
    1
 44
0
 45
0
  0
MTEXT
  5
364
100
AcDbEntity
  8
schematic
  6
ByLayer
 62
  256
370
   -1
100
AcDbMText
 10
273.8304790176365
 20
69.03329320600348
 30
0
 40
7
 41
10.11111111111111
 71
    1
 72
    1
  1
TN
  7
standard
210
0
220
0
230
1
 50
0
 73
    2
 44
1
  0
LINE
  5
365
100
AcDbEntity
  8
schematic
  6
ByLayer
 62
  256
370
   -1
100
AcDbLine
 10
269.0191515631079
 20
90.86802783656402
 11
269.3123940654592
 21
73.85996270019267
  0
LINE
  5
366
100
AcDbEntity
  8
0
  6
ByLayer
 62
  256
370
   -1
100
AcDbLine
 10
290.5129674416575
 20
240.7979542086194
 11
290.5129674416575
 21
255.9600457743651
  0
INSERT
  5
367
100
AcDbEntity
  8
schematic
  6
ByLayer
 62
  256
370
   -1
100
AcDbBlockReference
  2
junction-0
 10
290.5467200331916
 20
255.8700879023314
 30
0
 41
1
 42
1
 43
0
 50
0
 70
    1
 71
    1
 44
1
 45
1
  0
LEADER
  5
368
100
AcDbEntity
  8
0
  6
ByLayer
 62
  256
370
   -1
100
AcDbLeader
  3
Standard
 71
    1
 72
    0
 73
    3
 74
    0
 75
    0
 40
1
 41
10
 76
2
 76
2
 10
290.71246864647
 20
222.2443421610621
 30
0
 10
290.71246864647
 20
219.4513252936879
 30
0
  0
LEADER
  5
369
100
AcDbEntity
  8
0
  6
ByLayer
 62
  256
370
   -1
100
AcDbLeader
  3
Standard
 71
    1
 72
    0
 73
    3
 74
    0
 75
    0
 40
1
 41
10
 76
2
 76
2
 10
290.71246864647
 20
190.9226530055085
 30
0
 10
290.71246864647
 20
193.3166674632578
 30
0
  0
INSERT
  5
36A
100
AcDbEntity
  8
schematic
  6
ByLayer
 62
  256
370
   -1
100
AcDbBlockReference
  2
diodo_bobina
 10
228.4229020622562
 20
187.1619103997295
 30
0
 41
1
 42
1
 43
0
 50
0
 70
    1
 71
    1
 44
0
 45
0
  0
MTEXT
  5
36B
100
AcDbEntity
  8
labels
  6
ByLayer
 62
  256
370
   -1
100
AcDbMText
 10
256.0892077333913
 20
160.7873849170954
 30
0
 40
1.8
 41
2.2
 71
    1
 72
    1
  1
A1
  7
standard
210
0
220
0
230
1
 50
0
 73
    2
 44
1
  0
MTEXT
  5
36C
100
AcDbEntity
  8
labels
  6
ByLayer
 62
  256
370
   -1
100
AcDbMText
 10
255.9071741007364
 20
150.8680830395435
 30
0
 40
1.8
 41
2.6
 71
    1
 72
    1
  1
A2
  7
standard
210
0
220
0
230
1
 50
0
 73
    2
 44
1
  0
MTEXT
  5
36D
100
AcDbEntity
  8
labels
  6
ByLayer
 62
  256
370
   -1
100
AcDbMText
 10
250.663722982734
 20
156.4973181089335
 30
0
 40
2.7
 41
4.200000000000001
 71
    1
 72
    1
  1
PX
  7
standard
210
0
220
0
230
1
 50
0
 73
    2
 44
1
  0
INSERT
  5
36E
100
AcDbEntity
  8
schematic
  6
ByLayer
 62
  256
370
   -1
100
AcDbBlockReference
  2
r1-0
 10
227.8206047431451
 20
186.385749799463
 30
0
 41
1
 42
1
 43
0
 50
1.101000000000018
 70
    1
 71
    1
 44
0
 45
0
  0
INSERT
  5
36F
100
AcDbEntity
  8
0
  6
ByLayer
 62
  256
370
   -1
100
AcDbBlockReference
  2
junction-23
 10
254.33003242844
 20
145.2379794272202
 30
0
 41
1
 42
1
 43
0
 50
0
 70
    1
 71
    1
 44
0
 45
0
  0
LINE
  5
370
100
AcDbEntity
  8
0
  6
ByLayer
 62
  256
370
   -1
100
AcDbLine
 10
273.0283156176951
 20
271.2861112336259
 11
275.2682926829269
 21
271.2861112336259
  0
LINE
  5
371
100
AcDbEntity
  8
0
  6
ByLayer
 62
  256
370
   -1
100
AcDbLine
 10
275.2682926829269
 20
271.2861112336259
 11
275.0194063423455
 21
253.8640673929343
  0
LINE
  5
372
100
AcDbEntity
  8
0
  6
ByLayer
 62
  256
370
   -1
100
AcDbLine
 10
275.0194063423455
 20
253.8640673929343
 11
275.0194063423455
 21
255.8551581175848
  0
LINE
  5
373
100
AcDbEntity
  8
0
  6
ByLayer
 62
  256
370
   -1
100
AcDbLine
 10
275.0194063423455
 20
255.8551581175848
 11
325.7922198209324
 21
256.1040444581661
  0
INSERT
  5
374
100
AcDbEntity
  8
schematic
  6
ByLayer
 62
  256
370
   -1
100
AcDbBlockReference
  2
junction-0
 10
275.3646532577318
 20
256.1189742429127
 30
0
 41
1
 42
1
 43
0
 50
0
 70
    1
 71
    1
 44
1
 45
1
  0
INSERT
  5
375
100
AcDbEntity
  8
schematic
  6
ByLayer
 62
  256
370
   -1
100
AcDbBlockReference
  2
junction-0
 10
304.4843551057449
 20
256.1189742429127
 30
0
 41
1
 42
1
 43
0
 50
0
 70
    1
 71
    1
 44
1
 45
1
  0
LINE
  5
376
100
AcDbEntity
  8
0
  6
ByLayer
 62
  256
370
   -1
100
AcDbLine
 10
218.5222070303886
 20
176.9581881533101
 11
304.8857672121025
 21
176.9581881533101
  0
LINE
  5
377
100
AcDbEntity
  8
0
  6
ByLayer
 62
  256
370
   -1
100
AcDbLine
 10
254.1129537335157
 20
161.7761213778503
 11
253.8640673929343
 21
188.6558461606316
  0
LINE
  5
378
100
AcDbEntity
  8
0
  6
ByLayer
 62
  256
370
   -1
100
AcDbLine
 10
253.8640673929343
 20
188.6558461606316
 11
294.1836545671063
 21
188.6558461606316
  0
LINE
  5
379
100
AcDbEntity
  8
0
  6
ByLayer
 62
  256
370
   -1
100
AcDbLine
 10
254.1129537335157
 20
148.3362589864597
 11
254.361840074097
 21
139.8741234066952
  0
LINE
  5
37A
100
AcDbEntity
  8
0
  6
ByLayer
 62
  256
370
   -1
100
AcDbLine
 10
254.361840074097
 20
144.8518502183214
 11
204.335685617254
 21
144.8518502183214
  0
LINE
  5
37B
100
AcDbEntity
  8
0
  6
ByLayer
 62
  256
370
   -1
100
AcDbLine
 10
204.335685617254
 20
144.8518502183214
 11
204.0867992766727
 21
118.4698981167027
  0
INSERT
  5
37C
100
AcDbEntity
  8
schematic
  6
ByLayer
 62
  256
370
   -1
100
AcDbBlockReference
  2
junction-0
 10
254.2093143083206
 20
145.3645526842306
 30
0
 41
1
 42
1
 43
0
 50
0
 70
    1
 71
    1
 44
1
 45
1
  0
INSERT
  5
37D
100
AcDbEntity
  8
schematic
  6
ByLayer
 62
  256
370
   -1
100
AcDbBlockReference
  2
junction-0
 10
291.0444927143542
 20
188.6707759453782
 30
0
 41
1
 42
1
 43
0
 50
0
 70
    1
 71
    1
 44
1
 45
1
  0
LINE
  5
37E
100
AcDbEntity
  8
0
  6
ByLayer
 62
  256
370
   -1
100
AcDbLine
 10
347.9431041326689
 20
224.7443655449213
 11
347.6942177920876
 21
218.024434349226
  0
LINE
  5
37F
100
AcDbEntity
  8
0
  6
ByLayer
 62
  256
370
   -1
100
AcDbLine
 10
351.1786265602258
 20
218.024434349226
 11
347.6942177920876
 21
210.806730472368
  0
LINE
  5
380
100
AcDbEntity
  8
0
  6
ByLayer
 62
  256
370
   -1
100
AcDbLine
 10
347.6942177920876
 20
210.806730472368
 11
347.4453314515062
 21
200.3535041679531
  0
LINE
  5
381
100
AcDbEntity
  8
0
  6
ByLayer
 62
  256
370
   -1
100
AcDbLine
 10
351.1786265602258
 20
200.1046178273718
 11
347.4453314515062
 21
194.1313456534204
  0
LINE
  5
382
100
AcDbEntity
  8
0
  6
ByLayer
 62
  256
370
   -1
100
AcDbLine
 10
347.4453314515062
 20
194.1313456534204
 11
347.4453314515062
 21
188.4069598200503
  0
INSERT
  5
383
100
AcDbEntity
  8
schematic
  6
ByLayer
 62
  256
370
   -1
100
AcDbBlockReference
  2
junction-0
 10
365.4615085481654
 20
188.9196622859595
 30
0
 41
1
 42
1
 43
0
 50
0
 70
    1
 71
    1
 44
1
 45
1
  0
INSERT
  5
384
100
AcDbEntity
  8
schematic
  6
ByLayer
 62
  256
370
   -1
100
AcDbBlockReference
  2
junction-0
 10
347.5416920263112
 20
188.4218896047969
 30
0
 41
1
 42
1
 43
0
 50
0
 70
    1
 71
    1
 44
1
 45
1
  0
INSERT
  5
385
100
AcDbEntity
  8
schematic
  6
ByLayer
 62
  256
370
   -1
100
AcDbBlockReference
  2
junction-0
 10
348.0394647074738
 20
224.5104089890866
 30
0
 41
1
 42
1
 43
0
 50
0
 70
    1
 71
    1
 44
1
 45
1
  0
INSERT
  5
386
100
AcDbEntity
  8
schematic
  6
ByLayer
 62
  256
370
   -1
100
AcDbBlockReference
  2
junction-0
 10
365.4615085481653
 20
224.5104089890866
 30
0
 41
1
 42
1
 43
0
 50
0
 70
    1
 71
    1
 44
1
 45
1
  0
LWPOLYLINE
  5
387
100
AcDbEntity
  8
0
  6
DASHEDTINY
 62
  256
370
   -1
100
AcDbPolyline
 90
    5
 70
    1
 43
0
 10
401.7025536982314
 20
248.6374542407269
 10
336.74321880651
 20
248.6374542407269
 10
336.74321880651
 20
168.7449389141269
 10
401.7025536982314
 20
168.7449389141269
 10
401.7025536982314
 20
168.7449389141269
  0
LINE
  5
388
100
AcDbEntity
  8
schematic
  6
DASHEDTINY
 62
  256
370
   -1
100
AcDbLine
 10
310.479
 20
224.424
 11
369.238
 21
224.803
  0
LINE
  5
389
100
AcDbEntity
  8
schematic
  6
DASHEDTINY
 62
  256
370
   -1
100
AcDbLine
 10
369.238
 20
188.41
 11
310.858
 21
188.41
  0
LINE
  5
38A
100
AcDbEntity
  8
0
  6
DASHEDTINY
 62
  256
370
   -1
100
AcDbLine
 10
311.108
 20
224.744
 11
290.45
 21
224.744
  0
LINE
  5
38B
100
AcDbEntity
  8
0
  6
DASHEDTINY
 62
  256
370
   -1
100
AcDbLine
 10
311.108
 20
188.407
 11
291.197
 21
188.656
  0
MTEXT
  5
38C
100
AcDbEntity
  8
0
  6
ByLayer
 62
  256
370
   -1
100
AcDbMText
 10
237.9924361861348
 20
221.7250022007926
 30
0
 40
3
 41
33.58333206132043
 71
    1
 72
    1
  1
SENZA TESTATA\PRIDOTTA
  7
standard
210
0
220
0
230
1
 50
0
 73
    2
 44
1
  0
LEADER
  5
38D
100
AcDbEntity
  8
0
  6
ByLayer
 62
  256
370
   -1
100
AcDbLeader
  3
Standard
 71
    1
 72
    0
 73
    3
 74
    0
 75
    0
 40
1
 41
10
 76
2
 76
2
 10
287.7126097119923
 20
203.5890265955101
 30
0
 10
267.303929784325
 20
216.2822299651568
 30
0
  0
MTEXT
  5
38E
100
AcDbEntity
  8
0
  6
ByLayer
 62
  256
370
   -1
100
AcDbMText
 10
339.4809685529044
 20
198.3624134433026
 30
0
 40
3
 41
5.999999363993738
 71
    1
 72
    1
  1
DS1\P
  7
standard
210
0
220
0
230
1
 50
0
 73
    2
 44
1
  0
MTEXT
  5
38F
100
AcDbEntity
  8
0
  6
ByLayer
 62
  256
370
   -1
100
AcDbMText
 10
339.4809685529044
 20
216.2822299651568
 30
0
 40
3
 41
6.666666030660404
 71
    1
 72
    1
  1
DS2
  7
standard
210
0
220
0
230
1
 50
0
 73
    2
 44
1
  0
MTEXT
  5
390
100
AcDbEntity
  8
0
  6
ByLayer
 62
  256
370
   -1
100
AcDbMText
 10
344.7075817051119
 20
221.259956776783
 30
0
 40
3
 41
0.6666666666666666
 71
    1
 72
    1
  1
1
  7
standard
210
0
220
0
230
1
 50
0
 73
    2
 44
1
  0
MTEXT
  5
391
100
AcDbEntity
  8
0
  6
ByLayer
 62
  256
370
   -1
100
AcDbMText
 10
344.2098090239492
 20
193.6335729722578
 30
0
 40
3
 41
0.6666666666666666
 71
    1
 72
    1
  1
1
  7
standard
210
0
220
0
230
1
 50
0
 73
    2
 44
1
  0
MTEXT
  5
392
100
AcDbEntity
  8
0
  6
ByLayer
 62
  256
370
   -1
100
AcDbMText
 10
344.4586953645305
 20
210.5578441317867
 30
0
 40
3
 41
1.333333333333333
 71
    1
 72
    1
  1
2
  7
standard
210
0
220
0
230
1
 50
0
 73
    2
 44
1
  0
MTEXT
  5
393
100
AcDbEntity
  8
0
  6
ByLayer
 62
  256
370
   -1
100
AcDbMText
 10
344.4586953645305
 20
203.5890265955101
 30
0
 40
3
 41
1.333333333333333
 71
    1
 72
    1
  1
2
  7
standard
210
0
220
0
230
1
 50
0
 73
    2
 44
1
  0
LINE
  5
394
100
AcDbEntity
  8
schematic
  6
ByLayer
 62
  256
370
   -1
100
AcDbLine
 10
89.41009616226226
 20
118.5063761133514
 11
100.4197903314696
 21
122.3358349548148
  0
LINE
  5
395
100
AcDbEntity
  8
schematic
  6
ByLayer
 62
  256
370
   -1
100
AcDbLine
 10
89.41009616226226
 20
106.2999760561868
 11
100.4197903314696
 21
110.1294348976502
  0
MTEXT
  5
396
100
AcDbEntity
  8
schematic
  6
ByLayer
 62
  256
370
   -1
100
AcDbMText
 10
94.19691971409186
 20
117.3096702253942
 30
0
 40
3
 41
3.666666666666667
 71
    1
 72
    1
  1
X1
  7
standard
210
0
220
0
230
1
 50
0
 73
    2
 44
1
  0
MTEXT
  5
397
100
AcDbEntity
  8
schematic
  6
ByLayer
 62
  256
370
   -1
100
AcDbMText
 10
94.67560206927487
 20
104.3852466354552
 30
0
 40
3
 41
4.333333333333333
 71
    1
 72
    1
  1
X2
  7
standard
210
0
220
0
230
1
 50
0
 73
    2
 44
1
  0
LINE
  5
398
100
AcDbEntity
  8
0
  6
ByLayer
 62
  256
370
   -1
100
AcDbLine
 10
113.6130877458448
 20
118.5222952410356
 11
100.4634248122979
 21
118.5222952410356
  0
LINE
  5
399
100
AcDbEntity
  8
0
  6
ByLayer
 62
  256
370
   -1
100
AcDbLine
 10
100.4634248122979
 20
118.5222952410356
 11
100.288095973184
 21
122.2042008624287
  0
LINE
  5
39A
100
AcDbEntity
  8
0
  6
ByLayer
 62
  256
370
   -1
100
AcDbLine
 10
89.06705026989066
 20
118.6976240801496
 11
78.37199108393922
 21
118.6976240801496
  0
LINE
  5
39B
100
AcDbEntity
  8
0
  6
ByLayer
 62
  256
370
   -1
100
AcDbLine
 10
100.288095973184
 20
109.9311821244517
 11
100.288095973184
 21
106.2492765030585
  0
LINE
  5
39C
100
AcDbEntity
  8
0
  6
ByLayer
 62
  256
370
   -1
100
AcDbLine
 10
100.288095973184
 20
106.2492765030585
 11
115.5417049760983
 21
106.2492765030585
  0
MTEXT
  5
39D
100
AcDbEntity
  8
schematic
  6
ByLayer
 62
  256
370
   -1
100
AcDbMText
 10
83.10454076113909
 20
124.0112231979552
 30
0
 40
3
 41
3.666666666666666
 71
    1
 72
    1
  1
22
  7
standard
210
0
220
0
230
1
 50
0
 73
    2
 44
1
  0
MTEXT
  5
39E
100
AcDbEntity
  8
schematic
  6
ByLayer
 62
  256
370
   -1
100
AcDbMText
 10
83.10454076113909
 20
110.8474584304247
 30
0
 40
3
 41
3.666666666666666
 71
    1
 72
    1
  1
22
  7
standard
210
0
220
0
230
1
 50
0
 73
    2
 44
1
  0
MTEXT
  5
39F
100
AcDbEntity
  8
schematic
  6
ByLayer
 62
  256
370
   -1
100
AcDbMText
 10
103.0694654857564
 20
123.8358943588413
 30
0
 40
3
 41
3
 71
    1
 72
    1
  1
21
  7
standard
210
0
220
0
230
1
 50
0
 73
    2
 44
1
  0
MTEXT
  5
3A0
100
AcDbEntity
  8
schematic
  6
ByLayer
 62
  256
370
   -1
100
AcDbMText
 10
103.0694654857564
 20
111.3901531240852
 30
0
 40
3
 41
3
 71
    1
 72
    1
  1
21
  7
standard
210
0
220
0
230
1
 50
0
 73
    2
 44
1
  0
LINE
  5
3A1
100
AcDbEntity
  8
0
  6
ByLayer
 62
  256
370
   -1
100
AcDbLine
 10
135.7045214742035
 20
74.51475662343215
 11
112.2104570329331
 21
74.51475662343215
  0
LINE
  5
3A2
100
AcDbEntity
  8
0
  6
ByLayer
 62
  256
370
   -1
100
AcDbLine
 10
112.2104570329331
 20
74.51475662343215
 11
112.0351281938192
 21
106.4246053421725
  0
LINE
  5
3A3
100
AcDbEntity
  8
0
  6
ByLayer
 62
  256
370
   -1
100
AcDbLine
 10
135.7045214742035
 20
90.99566750014419
 11
124.1328180926823
 21
90.99566750014419
  0
LINE
  5
3A4
100
AcDbEntity
  8
0
  6
ByLayer
 62
  256
370
   -1
100
AcDbLine
 10
124.1328180926823
 20
90.99566750014419
 11
124.1328180926823
 21
118.5222952410356
  0
INSERT
  5
3A5
100
AcDbEntity
  8
schematic
  6
ByLayer
 62
  256
370
   -1
100
AcDbBlockReference
  2
junction-0
 10
305.5776412576911
 20
166.2780587521053
 30
0
 41
1
 42
1
 43
0
 50
0
 70
    1
 71
    1
 44
1
 45
1
  0
INSERT
  5
3A6
100
AcDbEntity
  8
schematic
  6
ByLayer
 62
  256
370
   -1
100
AcDbBlockReference
  2
junction-0
 10
326.967759629594
 20
177.1484467771707
 30
0
 41
1
 42
1
 43
0
 50
0
 70
    1
 71
    1
 44
1
 45
1
  0
LINE
  5
3A7
100
AcDbEntity
  8
0
  6
ByLayer
 62
  256
370
   -1
100
AcDbLine
 10
304.546193540945
 20
176.9067986659836
 11
327.1636137866456
 21
176.9067986659836
  0
LINE
  5
3A8
100
AcDbEntity
  8
0
  6
ByLayer
 62
  256
370
   -1
100
AcDbLine
 10
305.5981665756288
 20
166.2117394800322
 11
228.6288062046012
 21
166.2117394800322
  0
INSERT
  5
3A9
100
AcDbEntity
  8
schematic
  6
ByLayer
 62
  256
370
   -1
100
AcDbBlockReference
  2
junction-0
 10
112.0021331067926
 20
106.0604208541336
 30
0
 41
1
 42
1
 43
0
 50
0
 70
    1
 71
    1
 44
1
 45
1
  0
INSERT
  5
3AA
100
AcDbEntity
  8
schematic
  6
ByLayer
 62
  256
370
   -1
100
AcDbBlockReference
  2
junction-0
 10
124.4504806838836
 20
118.3334395921106
 30
0
 41
1
 42
1
 43
0
 50
0
 70
    1
 71
    1
 44
1
 45
1
  0
MTEXT
  5
3AB
100
AcDbEntity
  8
0
  6
ByLayer
 62
  256
370
   -1
100
AcDbMText
 10
132.7239312092662
 20
123.2561738971125
 30
0
 40
3
 41
0.6666666666666666
 71
    1
 72
    1
  1
1\P
  7
standard
210
0
220
0
230
1
 50
0
 73
    2
 44
1
  0
MTEXT
  5
3AC
100
AcDbEntity
  8
0
  6
ByLayer
 62
  256
370
   -1
100
AcDbMText
 10
132.8992600483801
 20
110.6324974809075
 30
0
 40
3
 41
0.6666666666666666
 71
    1
 72
    1
  1
1\P
  7
standard
210
0
220
0
230
1
 50
0
 73
    2
 44
1
  0
MTEXT
  5
3AD
100
AcDbEntity
  8
0
  6
ByLayer
 62
  256
370
   -1
100
AcDbMText
 10
150.0814862815481
 20
123.4315027362264
 30
0
 40
3
 41
1.333333333333333
 71
    1
 72
    1
  1
2
  7
standard
210
0
220
0
230
1
 50
0
 73
    2
 44
1
  0
MTEXT
  5
3AE
100
AcDbEntity
  8
0
  6
ByLayer
 62
  256
370
   -1
100
AcDbMText
 10
150.4321439597759
 20
110.6324974809075
 30
0
 40
3
 41
1.333333333333333
 71
    1
 72
    1
  1
2
  7
standard
210
0
220
0
230
1
 50
0
 73
    2
 44
1
  0
MTEXT
  5
3AF
100
AcDbEntity
  8
0
  6
ByLayer
 62
  256
370
   -1
100
AcDbMText
 10
132.7239312092662
 20
95.5542173171071
 30
0
 40
3
 41
1.333333333333519
 71
    1
 72
    1
  1
3
  7
standard
210
0
220
0
230
1
 50
0
 73
    2
 44
1
  0
MTEXT
  5
3B0
100
AcDbEntity
  8
0
  6
ByLayer
 62
  256
370
   -1
100
AcDbMText
 10
132.7239312092662
 20
79.07330644039506
 30
0
 40
3
 41
1.333333333333519
 71
    1
 72
    1
  1
3
  7
standard
210
0
220
0
230
1
 50
0
 73
    2
 44
1
  0
MTEXT
  5
3B1
100
AcDbEntity
  8
0
  6
ByLayer
 62
  256
370
   -1
100
AcDbMText
 10
150.256815120662
 20
95.5542173171071
 30
0
 40
3
 41
1.666666666666667
 71
    1
 72
    1
  1
4
  7
standard
210
0
220
0
230
1
 50
0
 73
    2
 44
1
  0
MTEXT
  5
3B2
100
AcDbEntity
  8
0
  6
ByLayer
 62
  256
370
   -1
100
AcDbMText
 10
150.4321439597759
 20
79.07330644039506
 30
0
 40
3
 41
1.666666666666667
 71
    1
 72
    1
  1
4
  7
standard
210
0
220
0
230
1
 50
0
 73
    2
 44
1
  0
LINE
  5
3B3
100
AcDbEntity
  8
0
  6
ByLayer
 62
  256
370
   -1
100
AcDbLine
 10
89.06705026989066
 20
106.4246053421725
 11
78.72264876216714
 21
106.4246053421725
  0
LINE
  5
3B4
100
AcDbEntity
  8
0
  6
ByLayer
 62
  256
370
   -1
100
AcDbLine
 10
78.72264876216714
 20
106.4246053421725
 11
78.72264876216714
 21
118.5222952410356
  0
ENDSEC
  0
SECTION
  2
OBJECTS
  0
DICTIONARY
  5
C
330
0
100
AcDbDictionary
281
    1
  3
ACAD_GROUP
350
D
  0
DICTIONARY
  5
D
330
C
100
AcDbDictionary
281
    1
  0
ENDSEC
  0
EOF
